<?xml version="1.0" encoding="UTF-8"?>
<svg version="1.1" xmlns="http://www.w3.org/2000/svg" width="512" height="512">
<path d="M0 0 C20.46 0 40.92 0 62 0 C68 18 68 18 68 21 C69.155 21.185625 70.31 21.37125 71.5 21.5625 C77.7924929 22.93522536 83.49155353 25.69665131 89.328125 28.34375 C89.9682251 28.62412109 90.6083252 28.90449219 91.26782227 29.19335938 C93 30 93 30 95.41796875 31.5 C99.86726945 32.36158924 103.26348766 29.66473181 107.0625 27.5 C108.6494279 26.60010353 110.24426417 25.71397276 111.84765625 24.84375 C112.54898682 24.44349609 113.25031738 24.04324219 113.97290039 23.63085938 C116 23 116 23 117.86882019 23.71688843 C120.32350206 25.19476969 122.10565932 26.86582172 124.12597656 28.89892578 C124.92650452 29.6996048 125.72703247 30.50028381 126.55181885 31.32522583 C127.40612488 32.18985443 128.26043091 33.05448303 129.140625 33.9453125 C130.02280701 34.8303244 130.90498901 35.7153363 131.81390381 36.62716675 C134.15194543 38.97450131 136.48555874 41.32606785 138.81713867 43.67980957 C141.19996526 46.08313927 143.58850348 48.48077767 145.9765625 50.87890625 C150.65631862 55.58071467 155.33031867 60.28818664 160 65 C158.7222015 69.08488851 157.17247511 72.35433736 154.92724609 75.99755859 C152.65601203 79.91504213 150.54633616 83.58135114 151.4140625 88.20751953 C153.06870196 92.8009513 155.47888052 96.96988711 157.95996094 101.16015625 C160.36897724 105.42174002 162 110.0925718 162 115 C163.2375 115.2475 164.475 115.495 165.75 115.75 C171.59696191 117.14213379 177.29802666 119.09934222 183 121 C183 131.23 183 141.46 183 152 C198.84 152 214.68 152 231 152 C231.33 173.78 231.66 195.56 232 218 C235.96 214.04 235.96 214.04 240 210 C243.84281736 211.92140868 245.80431927 213.5926816 248.75 216.625 C249.54921875 217.44226563 250.3484375 218.25953125 251.171875 219.1015625 C251.77515625 219.72804687 252.3784375 220.35453125 253 221 C251.34763349 225.29067546 248.1094793 228.1429553 244.8984375 231.296875 C244.30197418 231.89050842 243.70551086 232.48414185 243.0909729 233.09576416 C241.1903019 234.98526627 239.28278526 236.86768392 237.375 238.75 C236.08287532 240.03209065 234.79120324 241.31463761 233.5 242.59765625 C230.33855521 245.73708432 227.1709539 248.87017801 224 252 C219.70932454 250.34763349 216.8570447 247.1094793 213.703125 243.8984375 C212.81267487 243.00374252 212.81267487 243.00374252 211.90423584 242.0909729 C210.01473373 240.1903019 208.13231608 238.28278526 206.25 236.375 C204.96790935 235.08287532 203.68536239 233.79120324 202.40234375 232.5 C199.26291568 229.33855521 196.12982199 226.1709539 193 223 C194.69586126 219.36696916 196.73800488 217.05450954 199.625 214.25 C200.85089844 213.05117188 200.85089844 213.05117188 202.1015625 211.828125 C202.72804688 211.22484375 203.35453125 210.6215625 204 210 C208.62133915 211.77743813 210.06005621 214.06005621 214 218 C214.33 201.5 214.66 185 215 168 C204.44 168 193.88 168 183 168 C183 172.95 183 177.9 183 183 C180.06428063 184.00550633 177.1266423 185.00459254 174.1875 186 C173.35412109 186.28617188 172.52074219 186.57234375 171.66210938 186.8671875 C170.85966797 187.13789063 170.05722656 187.40859375 169.23046875 187.6875 C168.12288208 188.06455078 168.12288208 188.06455078 166.99291992 188.44921875 C165 189 165 189 162 189 C161.814375 190.155 161.62875 191.31 161.4375 192.5 C160.06477464 198.7924929 157.30334869 204.49155353 154.65625 210.328125 C154.37587891 210.9682251 154.09550781 211.6083252 153.80664062 212.26782227 C153 214 153 214 151.5 216.41796875 C150.63841076 220.86726945 153.33526819 224.26348766 155.5 228.0625 C156.39989647 229.6494279 157.28602724 231.24426417 158.15625 232.84765625 C158.75663086 233.8996521 158.75663086 233.8996521 159.36914062 234.97290039 C160 237 160 237 159.28311157 238.86882019 C157.80523031 241.32350206 156.13417828 243.10565932 154.10107422 245.12597656 C152.90005569 246.32676849 152.90005569 246.32676849 151.67477417 247.55181885 C150.81014557 248.40612488 149.94551697 249.26043091 149.0546875 250.140625 C147.72716965 251.46389801 147.72716965 251.46389801 146.37283325 252.81390381 C144.02549869 255.15194543 141.67393215 257.48555874 139.32019043 259.81713867 C136.91686073 262.19996526 134.51922233 264.58850348 132.12109375 266.9765625 C127.41928533 271.65631862 122.71181336 276.33031867 118 281 C114.64219762 279.93152779 111.48521404 278.86639553 108.4140625 277.1328125 C101.72197599 273.18889427 101.72197599 273.18889427 94.31640625 272.43359375 C92.3545754 273.47390406 90.7358849 274.62755106 89 276 C88.34 276 87.68 276 87 276 C87.01106152 276.60001202 87.02212303 277.20002403 87.03351974 277.81821823 C87.30014693 292.51221646 87.49788097 307.20607081 87.62174606 321.90192795 C87.68326209 329.00940325 87.76690204 336.11525063 87.90527344 343.22167969 C88.02601844 349.42589077 88.10256004 355.62892188 88.12906194 361.83427548 C88.14452385 365.11181403 88.18662403 368.38525102 88.26876068 371.66188812 C88.71762631 390.33030044 86.01295873 400.69363868 75 416 C89.52 416 104.04 416 119 416 C119 442.4 119 468.8 119 496 C60.92 496 2.84 496 -57 496 C-57 469.6 -57 443.2 -57 416 C-42.48 416 -27.96 416 -13 416 C-15.93374512 411.92253418 -15.93374512 411.92253418 -18.92675781 407.76269531 C-27.09686434 394.97453778 -26.54088146 382.5174694 -26.171875 367.796875 C-26.14943677 365.13490866 -26.13179123 362.47333301 -26.12042236 359.81134033 C-26.08350862 353.57754998 -25.9855864 347.34636426 -25.86422849 341.11370778 C-25.72887124 334.0037146 -25.66381856 326.89357947 -25.60388327 319.78261328 C-25.47932918 305.18708124 -25.26903975 290.59357712 -25 276 C-25.94238525 275.69900391 -26.88477051 275.39800781 -27.85571289 275.08789062 C-31 274 -31 274 -33.30859375 272.59375 C-37.8424032 271.5935482 -41.17597331 274.28540125 -45.0625 276.5 C-46.6494279 277.39989647 -48.24426417 278.28602724 -49.84765625 279.15625 C-50.8996521 279.75663086 -50.8996521 279.75663086 -51.97290039 280.36914062 C-54 281 -54 281 -55.86882019 280.28311157 C-58.32350206 278.80523031 -60.10565932 277.13417828 -62.12597656 275.10107422 C-63.32676849 273.90005569 -63.32676849 273.90005569 -64.55181885 272.67477417 C-65.83327789 271.37783127 -65.83327789 271.37783127 -67.140625 270.0546875 C-68.02280701 269.1696756 -68.90498901 268.2846637 -69.81390381 267.37283325 C-72.15194543 265.02549869 -74.48555874 262.67393215 -76.81713867 260.32019043 C-79.19996526 257.91686073 -81.58850348 255.51922233 -83.9765625 253.12109375 C-88.65631862 248.41928533 -93.33031867 243.71181336 -98 239 C-96.7222015 234.91511149 -95.17247511 231.64566264 -92.92724609 228.00244141 C-90.65601203 224.08495787 -88.54633616 220.41864886 -89.4140625 215.79248047 C-91.06870196 211.1990487 -93.47888052 207.03011289 -95.95996094 202.83984375 C-98.36897724 198.57825998 -100 193.9074282 -100 189 C-101.85625 188.62875 -101.85625 188.62875 -103.75 188.25 C-109.65694804 186.94990617 -115.28615604 184.97029102 -121 183 C-121 178.05 -121 173.1 -121 168 C-131.56 168 -142.12 168 -153 168 C-152.67 184.5 -152.34 201 -152 218 C-149.36 215.36 -146.72 212.72 -144 210 C-140.15718264 211.92140868 -138.19568073 213.5926816 -135.25 216.625 C-134.05117187 217.85089844 -134.05117187 217.85089844 -132.828125 219.1015625 C-132.22484375 219.72804687 -131.6215625 220.35453125 -131 221 C-132.65236651 225.29067546 -135.8905207 228.1429553 -139.1015625 231.296875 C-139.69802582 231.89050842 -140.29448914 232.48414185 -140.9090271 233.09576416 C-142.8096981 234.98526627 -144.71721474 236.86768392 -146.625 238.75 C-147.91712468 240.03209065 -149.20879676 241.31463761 -150.5 242.59765625 C-153.66144479 245.73708432 -156.8290461 248.87017801 -160 252 C-164.29067546 250.34763349 -167.1429553 247.1094793 -170.296875 243.8984375 C-171.18732513 243.00374252 -171.18732513 243.00374252 -172.09576416 242.0909729 C-173.98526627 240.1903019 -175.86768392 238.28278526 -177.75 236.375 C-179.03209065 235.08287532 -180.31463761 233.79120324 -181.59765625 232.5 C-184.73708432 229.33855521 -187.87017801 226.1709539 -191 223 C-189.30413874 219.36696916 -187.26199512 217.05450954 -184.375 214.25 C-183.14910156 213.05117188 -183.14910156 213.05117188 -181.8984375 211.828125 C-181.27195312 211.22484375 -180.64546875 210.6215625 -180 210 C-175.37866085 211.77743813 -173.93994379 214.06005621 -170 218 C-169.67 196.22 -169.34 174.44 -169 152 C-153.16 152 -137.32 152 -121 152 C-121 141.77 -121 131.54 -121 121 C-118.091875 120.01 -115.18375 119.02 -112.1875 118 C-111.27508545 117.68675781 -110.3626709 117.37351562 -109.42260742 117.05078125 C-108.69920166 116.80714844 -107.9757959 116.56351562 -107.23046875 116.3125 C-106.49207764 116.06113281 -105.75368652 115.80976562 -104.99291992 115.55078125 C-103 115 -103 115 -100 115 C-99.7215625 113.2675 -99.7215625 113.2675 -99.4375 111.5 C-98.06477464 105.2075071 -95.30334869 99.50844647 -92.65625 93.671875 C-92.37587891 93.0317749 -92.09550781 92.3916748 -91.80664062 91.73217773 C-91 90 -91 90 -89.5 87.58203125 C-88.63841076 83.13273055 -91.33526819 79.73651234 -93.5 75.9375 C-94.39989647 74.3505721 -95.28602724 72.75573583 -96.15625 71.15234375 C-96.55650391 70.45101318 -96.95675781 69.74968262 -97.36914062 69.02709961 C-98 67 -98 67 -97.28311157 65.13117981 C-95.80523031 62.67649794 -94.13417828 60.89434068 -92.10107422 58.87402344 C-91.3003952 58.07349548 -90.49971619 57.27296753 -89.67477417 56.44818115 C-88.37783127 55.16672211 -88.37783127 55.16672211 -87.0546875 53.859375 C-86.1696756 52.97719299 -85.2846637 52.09501099 -84.37283325 51.18609619 C-82.02549869 48.84805457 -79.67393215 46.51444126 -77.32019043 44.18286133 C-74.91686073 41.80003474 -72.51922233 39.41149652 -70.12109375 37.0234375 C-65.41928533 32.34368138 -60.71181336 27.66968133 -56 23 C-51.91511149 24.2777985 -48.64566264 25.82752489 -45.00244141 28.07275391 C-41.08495787 30.34398797 -37.41864886 32.45366384 -32.79248047 31.5859375 C-28.1990487 29.93129804 -24.03011289 27.52111948 -19.83984375 25.04003906 C-15.57825998 22.63102276 -10.9074282 21 -6 21 C-5.62875 19.14375 -5.62875 19.14375 -5.25 17.25 C-3.85786621 11.40303809 -1.90065778 5.70197334 0 0 Z " fill="#FDE8A5" transform="translate(225,8)"/>
<path d="M0 0 C20.46 0 40.92 0 62 0 C68 18 68 18 68 21 C69.155 21.185625 70.31 21.37125 71.5 21.5625 C77.7924929 22.93522536 83.49155353 25.69665131 89.328125 28.34375 C89.9682251 28.62412109 90.6083252 28.90449219 91.26782227 29.19335938 C93 30 93 30 95.41796875 31.5 C99.86726945 32.36158924 103.26348766 29.66473181 107.0625 27.5 C108.6494279 26.60010353 110.24426417 25.71397276 111.84765625 24.84375 C112.54898682 24.44349609 113.25031738 24.04324219 113.97290039 23.63085938 C116 23 116 23 117.86882019 23.71688843 C120.32350206 25.19476969 122.10565932 26.86582172 124.12597656 28.89892578 C124.92650452 29.6996048 125.72703247 30.50028381 126.55181885 31.32522583 C127.40612488 32.18985443 128.26043091 33.05448303 129.140625 33.9453125 C130.02280701 34.8303244 130.90498901 35.7153363 131.81390381 36.62716675 C134.15194543 38.97450131 136.48555874 41.32606785 138.81713867 43.67980957 C141.19996526 46.08313927 143.58850348 48.48077767 145.9765625 50.87890625 C150.65631862 55.58071467 155.33031867 60.28818664 160 65 C158.7222015 69.08488851 157.17247511 72.35433736 154.92724609 75.99755859 C152.65601203 79.91504213 150.54633616 83.58135114 151.4140625 88.20751953 C153.06870196 92.8009513 155.47888052 96.96988711 157.95996094 101.16015625 C160.36897724 105.42174002 162 110.0925718 162 115 C163.2375 115.2475 164.475 115.495 165.75 115.75 C171.59696191 117.14213379 177.29802666 119.09934222 183 121 C183 131.23 183 141.46 183 152 C198.84 152 214.68 152 231 152 C231.33 173.78 231.66 195.56 232 218 C235.96 214.04 235.96 214.04 240 210 C243.84281736 211.92140868 245.80431927 213.5926816 248.75 216.625 C249.54921875 217.44226563 250.3484375 218.25953125 251.171875 219.1015625 C251.77515625 219.72804687 252.3784375 220.35453125 253 221 C251.34763349 225.29067546 248.1094793 228.1429553 244.8984375 231.296875 C244.30197418 231.89050842 243.70551086 232.48414185 243.0909729 233.09576416 C241.1903019 234.98526627 239.28278526 236.86768392 237.375 238.75 C236.08287532 240.03209065 234.79120324 241.31463761 233.5 242.59765625 C230.33855521 245.73708432 227.1709539 248.87017801 224 252 C219.70932454 250.34763349 216.8570447 247.1094793 213.703125 243.8984375 C212.81267487 243.00374252 212.81267487 243.00374252 211.90423584 242.0909729 C210.01473373 240.1903019 208.13231608 238.28278526 206.25 236.375 C204.96790935 235.08287532 203.68536239 233.79120324 202.40234375 232.5 C199.26291568 229.33855521 196.12982199 226.1709539 193 223 C194.69586126 219.36696916 196.73800488 217.05450954 199.625 214.25 C200.85089844 213.05117188 200.85089844 213.05117188 202.1015625 211.828125 C202.72804688 211.22484375 203.35453125 210.6215625 204 210 C208.62133915 211.77743813 210.06005621 214.06005621 214 218 C214.33 201.5 214.66 185 215 168 C204.44 168 193.88 168 183 168 C183 172.95 183 177.9 183 183 C180.06428063 184.00550633 177.1266423 185.00459254 174.1875 186 C173.35412109 186.28617188 172.52074219 186.57234375 171.66210938 186.8671875 C170.85966797 187.13789063 170.05722656 187.40859375 169.23046875 187.6875 C168.12288208 188.06455078 168.12288208 188.06455078 166.99291992 188.44921875 C165 189 165 189 162 189 C161.814375 190.155 161.62875 191.31 161.4375 192.5 C160.06477464 198.7924929 157.30334869 204.49155353 154.65625 210.328125 C154.37587891 210.9682251 154.09550781 211.6083252 153.80664062 212.26782227 C153 214 153 214 151.5 216.41796875 C150.63841076 220.86726945 153.33526819 224.26348766 155.5 228.0625 C156.39989647 229.6494279 157.28602724 231.24426417 158.15625 232.84765625 C158.75663086 233.8996521 158.75663086 233.8996521 159.36914062 234.97290039 C160 237 160 237 159.28311157 238.86882019 C157.80523031 241.32350206 156.13417828 243.10565932 154.10107422 245.12597656 C152.90005569 246.32676849 152.90005569 246.32676849 151.67477417 247.55181885 C150.81014557 248.40612488 149.94551697 249.26043091 149.0546875 250.140625 C147.72716965 251.46389801 147.72716965 251.46389801 146.37283325 252.81390381 C144.02549869 255.15194543 141.67393215 257.48555874 139.32019043 259.81713867 C136.91686073 262.19996526 134.51922233 264.58850348 132.12109375 266.9765625 C127.41928533 271.65631862 122.71181336 276.33031867 118 281 C114.64219762 279.93152779 111.48521404 278.86639553 108.4140625 277.1328125 C101.72197599 273.18889427 101.72197599 273.18889427 94.31640625 272.43359375 C92.3545754 273.47390406 90.7358849 274.62755106 89 276 C88.34 276 87.68 276 87 276 C87.01106152 276.60001202 87.02212303 277.20002403 87.03351974 277.81821823 C87.30014693 292.51221646 87.49788097 307.20607081 87.62174606 321.90192795 C87.68326209 329.00940325 87.76690204 336.11525063 87.90527344 343.22167969 C88.02601844 349.42589077 88.10256004 355.62892188 88.12906194 361.83427548 C88.14452385 365.11181403 88.18662403 368.38525102 88.26876068 371.66188812 C88.71762631 390.33030044 86.01295873 400.69363868 75 416 C89.52 416 104.04 416 119 416 C119 442.4 119 468.8 119 496 C60.92 496 2.84 496 -57 496 C-57 469.6 -57 443.2 -57 416 C-42.48 416 -27.96 416 -13 416 C-15.93374512 411.92253418 -15.93374512 411.92253418 -18.92675781 407.76269531 C-27.09686434 394.97453778 -26.54088146 382.5174694 -26.171875 367.796875 C-26.14943677 365.13490866 -26.13179123 362.47333301 -26.12042236 359.81134033 C-26.08350862 353.57754998 -25.9855864 347.34636426 -25.86422849 341.11370778 C-25.72887124 334.0037146 -25.66381856 326.89357947 -25.60388327 319.78261328 C-25.47932918 305.18708124 -25.26903975 290.59357712 -25 276 C-25.94238525 275.69900391 -26.88477051 275.39800781 -27.85571289 275.08789062 C-31 274 -31 274 -33.30859375 272.59375 C-37.8424032 271.5935482 -41.17597331 274.28540125 -45.0625 276.5 C-46.6494279 277.39989647 -48.24426417 278.28602724 -49.84765625 279.15625 C-50.8996521 279.75663086 -50.8996521 279.75663086 -51.97290039 280.36914062 C-54 281 -54 281 -55.86882019 280.28311157 C-58.32350206 278.80523031 -60.10565932 277.13417828 -62.12597656 275.10107422 C-63.32676849 273.90005569 -63.32676849 273.90005569 -64.55181885 272.67477417 C-65.83327789 271.37783127 -65.83327789 271.37783127 -67.140625 270.0546875 C-68.02280701 269.1696756 -68.90498901 268.2846637 -69.81390381 267.37283325 C-72.15194543 265.02549869 -74.48555874 262.67393215 -76.81713867 260.32019043 C-79.19996526 257.91686073 -81.58850348 255.51922233 -83.9765625 253.12109375 C-88.65631862 248.41928533 -93.33031867 243.71181336 -98 239 C-96.7222015 234.91511149 -95.17247511 231.64566264 -92.92724609 228.00244141 C-90.65601203 224.08495787 -88.54633616 220.41864886 -89.4140625 215.79248047 C-91.06870196 211.1990487 -93.47888052 207.03011289 -95.95996094 202.83984375 C-98.36897724 198.57825998 -100 193.9074282 -100 189 C-101.85625 188.62875 -101.85625 188.62875 -103.75 188.25 C-109.65694804 186.94990617 -115.28615604 184.97029102 -121 183 C-121 178.05 -121 173.1 -121 168 C-131.56 168 -142.12 168 -153 168 C-152.67 184.5 -152.34 201 -152 218 C-149.36 215.36 -146.72 212.72 -144 210 C-140.15718264 211.92140868 -138.19568073 213.5926816 -135.25 216.625 C-134.05117187 217.85089844 -134.05117187 217.85089844 -132.828125 219.1015625 C-132.22484375 219.72804687 -131.6215625 220.35453125 -131 221 C-132.65236651 225.29067546 -135.8905207 228.1429553 -139.1015625 231.296875 C-139.69802582 231.89050842 -140.29448914 232.48414185 -140.9090271 233.09576416 C-142.8096981 234.98526627 -144.71721474 236.86768392 -146.625 238.75 C-147.91712468 240.03209065 -149.20879676 241.31463761 -150.5 242.59765625 C-153.66144479 245.73708432 -156.8290461 248.87017801 -160 252 C-164.29067546 250.34763349 -167.1429553 247.1094793 -170.296875 243.8984375 C-171.18732513 243.00374252 -171.18732513 243.00374252 -172.09576416 242.0909729 C-173.98526627 240.1903019 -175.86768392 238.28278526 -177.75 236.375 C-179.03209065 235.08287532 -180.31463761 233.79120324 -181.59765625 232.5 C-184.73708432 229.33855521 -187.87017801 226.1709539 -191 223 C-189.30413874 219.36696916 -187.26199512 217.05450954 -184.375 214.25 C-183.14910156 213.05117188 -183.14910156 213.05117188 -181.8984375 211.828125 C-181.27195312 211.22484375 -180.64546875 210.6215625 -180 210 C-175.37866085 211.77743813 -173.93994379 214.06005621 -170 218 C-169.67 196.22 -169.34 174.44 -169 152 C-153.16 152 -137.32 152 -121 152 C-121 141.77 -121 131.54 -121 121 C-118.091875 120.01 -115.18375 119.02 -112.1875 118 C-111.27508545 117.68675781 -110.3626709 117.37351562 -109.42260742 117.05078125 C-108.69920166 116.80714844 -107.9757959 116.56351562 -107.23046875 116.3125 C-106.49207764 116.06113281 -105.75368652 115.80976562 -104.99291992 115.55078125 C-103 115 -103 115 -100 115 C-99.7215625 113.2675 -99.7215625 113.2675 -99.4375 111.5 C-98.06477464 105.2075071 -95.30334869 99.50844647 -92.65625 93.671875 C-92.37587891 93.0317749 -92.09550781 92.3916748 -91.80664062 91.73217773 C-91 90 -91 90 -89.5 87.58203125 C-88.63841076 83.13273055 -91.33526819 79.73651234 -93.5 75.9375 C-94.39989647 74.3505721 -95.28602724 72.75573583 -96.15625 71.15234375 C-96.55650391 70.45101318 -96.95675781 69.74968262 -97.36914062 69.02709961 C-98 67 -98 67 -97.28311157 65.13117981 C-95.80523031 62.67649794 -94.13417828 60.89434068 -92.10107422 58.87402344 C-91.3003952 58.07349548 -90.49971619 57.27296753 -89.67477417 56.44818115 C-88.37783127 55.16672211 -88.37783127 55.16672211 -87.0546875 53.859375 C-86.1696756 52.97719299 -85.2846637 52.09501099 -84.37283325 51.18609619 C-82.02549869 48.84805457 -79.67393215 46.51444126 -77.32019043 44.18286133 C-74.91686073 41.80003474 -72.51922233 39.41149652 -70.12109375 37.0234375 C-65.41928533 32.34368138 -60.71181336 27.66968133 -56 23 C-51.91511149 24.2777985 -48.64566264 25.82752489 -45.00244141 28.07275391 C-41.08495787 30.34398797 -37.41864886 32.45366384 -32.79248047 31.5859375 C-28.1990487 29.93129804 -24.03011289 27.52111948 -19.83984375 25.04003906 C-15.57825998 22.63102276 -10.9074282 21 -6 21 C-5.62875 19.14375 -5.62875 19.14375 -5.25 17.25 C-3.85786621 11.40303809 -1.90065778 5.70197334 0 0 Z M12 16 C10.02 21.94 8.04 27.88 6 34 C-2.63715114 37.45486046 -2.63715114 37.45486046 -6.31640625 38 C-11.36058381 38.93923877 -15.66632037 40.86951471 -20.25 43.125 C-20.95229736 43.46289551 -21.65459473 43.80079102 -22.37817383 44.14892578 C-25.27862397 45.5669549 -27.94717506 46.96346539 -30.609375 48.8046875 C-33.87637627 50.43818813 -35.52418586 50.00382927 -39 49 C-42.14588314 47.48309197 -45.15338326 45.79650282 -48.1953125 44.08203125 C-50.82487424 42.72705689 -50.82487424 42.72705689 -52.83642578 43.60571289 C-55.72382665 45.46646062 -58.03206562 47.7856206 -60.421875 50.2265625 C-61.17914886 50.98808121 -61.17914886 50.98808121 -61.95172119 51.76498413 C-63.55592096 53.38033842 -65.15300856 55.00252209 -66.75 56.625 C-67.83938107 57.72441698 -68.9292199 58.82338059 -70.01953125 59.921875 C-72.68501885 62.6093602 -75.34415143 65.30299021 -78 68 C-76.43139317 72.8565437 -74.44362968 77.01176078 -71.92578125 81.4375 C-70.71227433 84.79640522 -71.03485828 86.57029997 -72 90 C-73.17182198 92.31567686 -74.37635126 94.51859837 -75.6875 96.75 C-81.02752107 106.24618662 -84.36253425 116.450137 -87 127 C-92.94 128.98 -98.88 130.96 -105 133 C-105 145.54 -105 158.08 -105 171 C-99.06 172.98 -93.12 174.96 -87 177 C-83.46246374 185.18488783 -83.46246374 185.18488783 -82.9296875 188.61328125 C-82.05131122 193.2397408 -80.38200753 197.29052933 -78.4375 201.5625 C-78.01464722 202.52518799 -78.01464722 202.52518799 -77.58325195 203.50732422 C-76.15364588 206.70340476 -74.60685425 209.63774478 -72.72265625 212.58984375 C-70.73162762 216.53126776 -70.66554097 217.85933289 -72 222 C-73.51690803 225.14588314 -75.20349718 228.15338326 -76.91796875 231.1953125 C-78.27294311 233.82487424 -78.27294311 233.82487424 -77.39428711 235.83642578 C-75.53353938 238.72382665 -73.2143794 241.03206562 -70.7734375 243.421875 C-70.26575836 243.92672424 -69.75807922 244.43157349 -69.23501587 244.95172119 C-67.61966158 246.55592096 -65.99747791 248.15300856 -64.375 249.75 C-63.27558302 250.83938107 -62.17661941 251.9292199 -61.078125 253.01953125 C-58.3906398 255.68501885 -55.69700979 258.34415143 -53 261 C-48.1434563 259.43139317 -43.98823922 257.44362968 -39.5625 254.92578125 C-36.20359478 253.71227433 -34.42970003 254.03485828 -31 255 C-28.68432314 256.17182198 -26.48140163 257.37635126 -24.25 258.6875 C-15.64080429 263.52873663 -5.68412414 267.79611285 4.13330078 269.33422852 C6 270 6 270 6.98901367 271.65820312 C7.21306885 272.35880859 7.43712402 273.05941406 7.66796875 273.78125 C7.92126953 274.54050781 8.17457031 275.29976563 8.43554688 276.08203125 C8.80776367 277.27892578 8.80776367 277.27892578 9.1875 278.5 C10.4590634 283.64252855 10.4590634 283.64252855 13 288 C15.6662603 288.08855161 18.30647114 288.11524673 20.97265625 288.09765625 C22.16912025 288.09553383 22.16912025 288.09553383 23.38975525 288.09336853 C25.94737435 288.08775316 28.50490718 288.07519812 31.0625 288.0625 C32.79231645 288.05748698 34.52213426 288.05292373 36.25195312 288.04882812 C40.50133553 288.03777875 44.75065312 288.02050386 49 288 C49.65635807 286.42538264 50.30611493 284.84801271 50.953125 283.26953125 C51.31567383 282.39143799 51.67822266 281.51334473 52.05175781 280.60864258 C52.90410041 278.26382263 53.38169318 276.14380191 53.75 273.6875 C54.47265625 271.734375 54.47265625 271.734375 56 270 C59.77080435 268.38988968 63.55311864 267.33371951 67.5078125 266.28125 C72.04818246 265.05572567 76.27266354 263.35069295 80.5625 261.4375 C81.20405029 261.15640381 81.84560059 260.87530762 82.5065918 260.58569336 C85.70154333 259.15298527 88.63742854 257.60705609 91.58984375 255.72265625 C95.53126776 253.73162762 96.85933289 253.66554097 101 255 C104.14588314 256.51690803 107.15338326 258.20349718 110.1953125 259.91796875 C112.82487424 261.27294311 112.82487424 261.27294311 114.83642578 260.39428711 C117.72382665 258.53353938 120.03206562 256.2143794 122.421875 253.7734375 C122.92672424 253.26575836 123.43157349 252.75807922 123.95172119 252.23501587 C125.55592096 250.61966158 127.15300856 248.99747791 128.75 247.375 C129.83938107 246.27558302 130.9292199 245.17661941 132.01953125 244.078125 C134.68501885 241.3906398 137.34415143 238.69700979 140 236 C138.43139317 231.1434563 136.44362968 226.98823922 133.92578125 222.5625 C132.70967303 219.19639455 133.04207233 217.44255258 134 214 C135.17103625 211.50421152 136.37902753 209.10713321 137.6875 206.6875 C142.13725686 198.15603397 146.821774 188.46439309 148.33422852 178.88256836 C149 177 149 177 150.65820312 176.01098633 C151.35880859 175.78693115 152.05941406 175.56287598 152.78125 175.33203125 C153.54050781 175.07873047 154.29976563 174.82542969 155.08203125 174.56445312 C156.27892578 174.19223633 156.27892578 174.19223633 157.5 173.8125 C162.64252855 172.5409366 162.64252855 172.5409366 167 170 C167.08855161 167.3337397 167.11524673 164.69352886 167.09765625 162.02734375 C167.0962413 161.22970108 167.09482635 160.43205841 167.09336853 159.61024475 C167.08775316 157.05262565 167.07519812 154.49509282 167.0625 151.9375 C167.05748698 150.20768355 167.05292373 148.47786574 167.04882812 146.74804688 C167.03777875 142.49866447 167.02050386 138.24934688 167 134 C165.50047375 133.39465846 164.00034778 132.7908025 162.5 132.1875 C161.59185547 131.81544434 160.68371094 131.44338867 159.74804688 131.06005859 C157.0915339 129.98644108 157.0915339 129.98644108 154.64257812 129.33447266 C152.53125 128.7265625 152.53125 128.7265625 149 127 C147.70346201 124.22261225 147.07118812 122.30110952 146.5 119.375 C144.90705901 112.79539925 142.82446913 106.84833522 139.875 100.75 C139.36936523 99.6969165 139.36936523 99.6969165 138.85351562 98.62255859 C137.43296829 95.72309489 136.03668521 93.05304269 134.1953125 90.390625 C132.56181187 87.12362373 132.99617073 85.47581414 134 82 C135.51690803 78.85411686 137.20349718 75.84661674 138.91796875 72.8046875 C140.27294311 70.17512576 140.27294311 70.17512576 139.39428711 68.16357422 C137.53353938 65.27617335 135.2143794 62.96793438 132.7734375 60.578125 C132.01191879 59.82085114 132.01191879 59.82085114 131.23501587 59.04827881 C129.61966158 57.44407904 127.99747791 55.84699144 126.375 54.25 C125.27558302 53.16061893 124.17661941 52.0707801 123.078125 50.98046875 C120.3906398 48.31498115 117.69700979 45.65584857 115 43 C110.1434563 44.56860683 105.98823922 46.55637032 101.5625 49.07421875 C96.97187777 50.73272099 93.80841827 49.37931384 89.51171875 47.36328125 C88.23446978 46.68438767 86.95984103 46.00054776 85.6875 45.3125 C76.24094703 40.38546123 66.3458392 36.5864598 56 34 C54.02 28.06 52.04 22.12 50 16 C37.46 16 24.92 16 12 16 Z " fill="#000000" transform="translate(225,8)"/>
<path d="M0 0 C42.24 0 84.48 0 128 0 C128 47.52 128 95.04 128 144 C109.52 144 91.04 144 72 144 C72 159.84 72 175.68 72 192 C50.22 192.33 28.44 192.66 6 193 C8.64 195.64 11.28 198.28 14 201 C12.07859132 204.84281736 10.4073184 206.80431927 7.375 209.75 C6.14910156 210.94882812 6.14910156 210.94882812 4.8984375 212.171875 C4.27195312 212.77515625 3.64546875 213.3784375 3 214 C-1.29067546 212.34763349 -4.1429553 209.1094793 -7.296875 205.8984375 C-8.18732513 205.00374252 -8.18732513 205.00374252 -9.09576416 204.0909729 C-10.98526627 202.1903019 -12.86768392 200.28278526 -14.75 198.375 C-16.03209065 197.08287532 -17.31463761 195.79120324 -18.59765625 194.5 C-21.73708432 191.33855521 -24.87017801 188.1709539 -28 185 C-26.34763349 180.70932454 -23.1094793 177.8570447 -19.8984375 174.703125 C-19.30197418 174.10949158 -18.70551086 173.51585815 -18.0909729 172.90423584 C-16.1903019 171.01473373 -14.28278526 169.13231608 -12.375 167.25 C-11.08287532 165.96790935 -9.79120324 164.68536239 -8.5 163.40234375 C-5.33855521 160.26291568 -2.1709539 157.12982199 1 154 C4.63303084 155.69586126 6.94549046 157.73800488 9.75 160.625 C10.94882812 161.85089844 10.94882812 161.85089844 12.171875 163.1015625 C12.77515625 163.72804688 13.3784375 164.35453125 14 165 C12.22256187 169.62133915 9.93994379 171.06005621 6 175 C30.75 175.495 30.75 175.495 56 176 C56 165.44 56 154.88 56 144 C37.52 144 19.04 144 0 144 C0 96.48 0 48.96 0 0 Z " fill="#F5F7FA" transform="translate(376,280)"/>
<path d="M0 0 C42.24 0 84.48 0 128 0 C128 47.52 128 95.04 128 144 C109.52 144 91.04 144 72 144 C72 154.56 72 165.12 72 176 C88.5 175.67 105 175.34 122 175 C119.36 172.36 116.72 169.72 114 167 C115.92140868 163.15718264 117.5926816 161.19568073 120.625 158.25 C121.44226563 157.45078125 122.25953125 156.6515625 123.1015625 155.828125 C123.72804688 155.22484375 124.35453125 154.6215625 125 154 C129.29067546 155.65236651 132.1429553 158.8905207 135.296875 162.1015625 C135.89050842 162.69802582 136.48414185 163.29448914 137.09576416 163.9090271 C138.98526627 165.8096981 140.86768392 167.71721474 142.75 169.625 C144.03209065 170.91712468 145.31463761 172.20879676 146.59765625 173.5 C149.73708432 176.66144479 152.87017801 179.8290461 156 183 C154.34763349 187.29067546 151.1094793 190.1429553 147.8984375 193.296875 C147.30197418 193.89050842 146.70551086 194.48414185 146.0909729 195.09576416 C144.1903019 196.98526627 142.28278526 198.86768392 140.375 200.75 C139.08287532 202.03209065 137.79120324 203.31463761 136.5 204.59765625 C133.33855521 207.73708432 130.1709539 210.87017801 127 214 C123.36696916 212.30413874 121.05450954 210.26199512 118.25 207.375 C117.45078125 206.55773437 116.6515625 205.74046875 115.828125 204.8984375 C115.22484375 204.27195312 114.6215625 203.64546875 114 203 C115.77743813 198.37866085 118.06005621 196.93994379 122 193 C89.33 192.505 89.33 192.505 56 192 C56 176.16 56 160.32 56 144 C37.52 144 19.04 144 0 144 C0 96.48 0 48.96 0 0 Z " fill="#F5F7FA" transform="translate(8,280)"/>
<path d="M0 0 C12.54 0 25.08 0 38 0 C39.98 5.94 41.96 11.88 44 18 C49.84781419 20.66936444 49.84781419 20.66936444 55.61328125 22.0703125 C60.2397408 22.94868878 64.29052933 24.61799247 68.5625 26.5625 C69.20429199 26.84440186 69.84608398 27.12630371 70.50732422 27.41674805 C73.70340476 28.84635412 76.63774478 30.39314575 79.58984375 32.27734375 C83.53126776 34.26837238 84.85933289 34.33445903 89 33 C92.14588314 31.48309197 95.15338326 29.79650282 98.1953125 28.08203125 C101 27 101 27 102.83642578 27.60571289 C105.72382665 29.46646062 108.03206562 31.7856206 110.421875 34.2265625 C110.92672424 34.73424164 111.43157349 35.24192078 111.95172119 35.76498413 C113.55592096 37.38033842 115.15300856 39.00252209 116.75 40.625 C117.83938107 41.72441698 118.9292199 42.82338059 120.01953125 43.921875 C122.68501885 46.6093602 125.34415143 49.30299021 128 52 C126.43139317 56.8565437 124.44362968 61.01176078 121.92578125 65.4375 C120.71227433 68.79640522 121.03485828 70.57029997 122 74 C123.17182198 76.31567686 124.37635126 78.51859837 125.6875 80.75 C130.52873663 89.35919571 134.79611285 99.31587586 136.33422852 109.13330078 C136.82441432 111.13389056 136.82441432 111.13389056 138.65820312 111.98901367 C139.35880859 112.21306885 140.05941406 112.43712402 140.78125 112.66796875 C141.54050781 112.92126953 142.29976563 113.17457031 143.08203125 113.43554688 C144.27892578 113.80776367 144.27892578 113.80776367 145.5 114.1875 C153.93248503 116.93248503 153.93248503 116.93248503 155 118 C155.08855161 120.6662603 155.11524673 123.30647114 155.09765625 125.97265625 C155.09553383 127.16912025 155.09553383 127.16912025 155.09336853 128.38975525 C155.08775316 130.94737435 155.07519812 133.50490718 155.0625 136.0625 C155.05748698 137.79231645 155.05292373 139.52213426 155.04882812 141.25195312 C155.03777875 145.50133553 155.02050386 149.75065312 155 154 C153.42538264 154.65635807 151.84801271 155.30611493 150.26953125 155.953125 C149.39143799 156.31567383 148.51334473 156.67822266 147.60864258 157.05175781 C145.26382263 157.90410041 143.14380191 158.38169318 140.6875 158.75 C138.63362037 159.37692519 138.63362037 159.37692519 137 161 C135.38988968 164.77080435 134.33371951 168.55311864 133.28125 172.5078125 C132.05572567 177.04818246 130.35069295 181.27266354 128.4375 185.5625 C128.15640381 186.20405029 127.87530762 186.84560059 127.58569336 187.5065918 C126.15298527 190.70154333 124.60705609 193.63742854 122.72265625 196.58984375 C120.73162762 200.53126776 120.66554097 201.85933289 122 206 C123.51690803 209.14588314 125.20349718 212.15338326 126.91796875 215.1953125 C128 218 128 218 127.39428711 219.83642578 C125.53353938 222.72382665 123.2143794 225.03206562 120.7734375 227.421875 C120.26575836 227.92672424 119.75807922 228.43157349 119.23501587 228.95172119 C117.61966158 230.55592096 115.99747791 232.15300856 114.375 233.75 C113.27558302 234.83938107 112.17661941 235.9292199 111.078125 237.01953125 C108.3906398 239.68501885 105.69700979 242.34415143 103 245 C98.1434563 243.43139317 93.98823922 241.44362968 89.5625 238.92578125 C86.19639455 237.70967303 84.44255258 238.04207233 81 239 C78.50421152 240.17103625 76.10713321 241.37902753 73.6875 242.6875 C65.15603397 247.13725686 55.46439309 251.821774 45.88256836 253.33422852 C43.86709861 253.82146425 43.86709861 253.82146425 43.01098633 255.65820312 C42.78693115 256.35880859 42.56287598 257.05941406 42.33203125 257.78125 C42.07873047 258.54050781 41.82542969 259.29976563 41.56445312 260.08203125 C41.19223633 261.27892578 41.19223633 261.27892578 40.8125 262.5 C38.06751497 270.93248503 38.06751497 270.93248503 37 272 C34.3337397 272.08855161 31.69352886 272.11524673 29.02734375 272.09765625 C28.22970108 272.0962413 27.43205841 272.09482635 26.61024475 272.09336853 C24.05262565 272.08775316 21.49509282 272.07519812 18.9375 272.0625 C17.20768355 272.05748698 15.47786574 272.05292373 13.74804688 272.04882812 C9.49866447 272.03777875 5.24934688 272.02050386 1 272 C0.39465846 270.50047375 -0.2091975 269.00034778 -0.8125 267.5 C-1.3705835 266.1377832 -1.3705835 266.1377832 -1.93994141 264.74804688 C-3 262 -3 262 -3.66552734 259.64257812 C-4.29385718 257.23066952 -4.29385718 257.23066952 -6 254 C-8.77738775 252.70346201 -10.69889048 252.07118812 -13.625 251.5 C-20.20460075 249.90705901 -26.15166478 247.82446913 -32.25 244.875 C-32.95205566 244.53791016 -33.65411133 244.20082031 -34.37744141 243.85351562 C-37.27690511 242.43296829 -39.94695731 241.03668521 -42.609375 239.1953125 C-45.87637627 237.56181187 -47.52418586 237.99617073 -51 239 C-54.14588314 240.51690803 -57.15338326 242.20349718 -60.1953125 243.91796875 C-63 245 -63 245 -64.83642578 244.39428711 C-67.72382665 242.53353938 -70.03206562 240.2143794 -72.421875 237.7734375 C-73.17914886 237.01191879 -73.17914886 237.01191879 -73.95172119 236.23501587 C-75.55592096 234.61966158 -77.15300856 232.99747791 -78.75 231.375 C-79.83938107 230.27558302 -80.9292199 229.17661941 -82.01953125 228.078125 C-84.68501885 225.3906398 -87.34415143 222.69700979 -90 220 C-88.43139317 215.1434563 -86.44362968 210.98823922 -83.92578125 206.5625 C-82.70967303 203.19639455 -83.04207233 201.44255258 -84 198 C-85.17103625 195.50421152 -86.37902753 193.10713321 -87.6875 190.6875 C-92.61453877 181.24094703 -96.4135402 171.3458392 -99 161 C-104.94 159.02 -110.88 157.04 -117 155 C-117 142.46 -117 129.92 -117 117 C-111.06 115.02 -105.12 113.04 -99 111 C-96.39321057 104.79071006 -96.39321057 104.79071006 -95 98.68359375 C-94.06076123 93.63941619 -92.13048529 89.33367963 -89.875 84.75 C-89.53710449 84.04770264 -89.19920898 83.34540527 -88.85107422 82.62182617 C-87.4330451 79.72137603 -86.03653461 77.05282494 -84.1953125 74.390625 C-82.56181187 71.12362373 -82.99617073 69.47581414 -84 66 C-85.51690803 62.85411686 -87.20349718 59.84661674 -88.91796875 56.8046875 C-90 54 -90 54 -89.39428711 52.16357422 C-87.53353938 49.27617335 -85.2143794 46.96793438 -82.7734375 44.578125 C-82.26575836 44.07327576 -81.75807922 43.56842651 -81.23501587 43.04827881 C-79.61966158 41.44407904 -77.99747791 39.84699144 -76.375 38.25 C-75.27558302 37.16061893 -74.17661941 36.0707801 -73.078125 34.98046875 C-70.3906398 32.31498115 -67.69700979 29.65584857 -65 27 C-60.1434563 28.56860683 -55.98823922 30.55637032 -51.5625 33.07421875 C-48.20359478 34.28772567 -46.42970003 33.96514172 -43 33 C-40.68432314 31.82817802 -38.48140163 30.62364874 -36.25 29.3125 C-26.75381338 23.97247893 -16.549863 20.63746575 -6 18 C-4.02 12.06 -2.04 6.12 0 0 Z M-28 43 C-28.9384375 43.46148437 -29.876875 43.92296875 -30.84375 44.3984375 C-53.02070526 55.67379958 -70.74102911 76.90203298 -79.1484375 100.1796875 C-80.18641134 103.43408667 -81.10532497 106.70361955 -82 110 C-82.30035156 110.93457031 -82.60070312 111.86914062 -82.91015625 112.83203125 C-90.23059185 138.2662889 -83.31598721 164.8967925 -71.6875 187.75 C-58.80186482 210.79221662 -36.18756034 228.50358585 -11.01953125 236.15625 C-10.02308594 236.4346875 -9.02664062 236.713125 -8 237 C-6.99324219 237.2990625 -5.98648438 237.598125 -4.94921875 237.90625 C11.26891346 242.10159917 28.86914262 241.07273025 45 237 C46.05574219 236.75636719 47.11148438 236.51273438 48.19921875 236.26171875 C62.82637734 232.38928404 77.03489268 224.36059911 88 214 C88.49580566 213.53835449 88.99161133 213.07670898 89.50244141 212.60107422 C110.35933882 193.05941856 121.89133925 167.85139075 123.2734375 139.265625 C123.78196138 121.37127414 120.48675869 104.84194956 112 89 C111.30777344 87.59234375 111.30777344 87.59234375 110.6015625 86.15625 C97.99545053 61.36190823 74.24889875 44.1343014 48.25 35.625 C22.67987067 28.52567662 -4.49360775 30.40728987 -28 43 Z " fill="#F8D46E" transform="translate(237,24)"/>
<path d="M0 0 C42.24 0 84.48 0 128 0 C128 47.52 128 95.04 128 144 C109.52 144 91.04 144 72 144 C72 159.84 72 175.68 72 192 C50.22 192.33 28.44 192.66 6 193 C8.64 195.64 11.28 198.28 14 201 C12.07859132 204.84281736 10.4073184 206.80431927 7.375 209.75 C6.14910156 210.94882812 6.14910156 210.94882812 4.8984375 212.171875 C4.27195312 212.77515625 3.64546875 213.3784375 3 214 C-1.29067546 212.34763349 -4.1429553 209.1094793 -7.296875 205.8984375 C-8.18732513 205.00374252 -8.18732513 205.00374252 -9.09576416 204.0909729 C-10.98526627 202.1903019 -12.86768392 200.28278526 -14.75 198.375 C-16.03209065 197.08287532 -17.31463761 195.79120324 -18.59765625 194.5 C-21.73708432 191.33855521 -24.87017801 188.1709539 -28 185 C-26.34763349 180.70932454 -23.1094793 177.8570447 -19.8984375 174.703125 C-19.30197418 174.10949158 -18.70551086 173.51585815 -18.0909729 172.90423584 C-16.1903019 171.01473373 -14.28278526 169.13231608 -12.375 167.25 C-11.08287532 165.96790935 -9.79120324 164.68536239 -8.5 163.40234375 C-5.33855521 160.26291568 -2.1709539 157.12982199 1 154 C4.63303084 155.69586126 6.94549046 157.73800488 9.75 160.625 C10.94882812 161.85089844 10.94882812 161.85089844 12.171875 163.1015625 C12.77515625 163.72804688 13.3784375 164.35453125 14 165 C12.22256187 169.62133915 9.93994379 171.06005621 6 175 C30.75 175.495 30.75 175.495 56 176 C56 165.44 56 154.88 56 144 C37.52 144 19.04 144 0 144 C0 96.48 0 48.96 0 0 Z M16 16 C16 52.96 16 89.92 16 128 C47.68 128 79.36 128 112 128 C112 91.04 112 54.08 112 16 C80.32 16 48.64 16 16 16 Z " fill="#000000" transform="translate(376,280)"/>
<path d="M0 0 C42.24 0 84.48 0 128 0 C128 47.52 128 95.04 128 144 C109.52 144 91.04 144 72 144 C72 154.56 72 165.12 72 176 C88.5 175.67 105 175.34 122 175 C119.36 172.36 116.72 169.72 114 167 C115.92140868 163.15718264 117.5926816 161.19568073 120.625 158.25 C121.44226563 157.45078125 122.25953125 156.6515625 123.1015625 155.828125 C123.72804688 155.22484375 124.35453125 154.6215625 125 154 C129.29067546 155.65236651 132.1429553 158.8905207 135.296875 162.1015625 C135.89050842 162.69802582 136.48414185 163.29448914 137.09576416 163.9090271 C138.98526627 165.8096981 140.86768392 167.71721474 142.75 169.625 C144.03209065 170.91712468 145.31463761 172.20879676 146.59765625 173.5 C149.73708432 176.66144479 152.87017801 179.8290461 156 183 C154.34763349 187.29067546 151.1094793 190.1429553 147.8984375 193.296875 C147.30197418 193.89050842 146.70551086 194.48414185 146.0909729 195.09576416 C144.1903019 196.98526627 142.28278526 198.86768392 140.375 200.75 C139.08287532 202.03209065 137.79120324 203.31463761 136.5 204.59765625 C133.33855521 207.73708432 130.1709539 210.87017801 127 214 C123.36696916 212.30413874 121.05450954 210.26199512 118.25 207.375 C117.45078125 206.55773437 116.6515625 205.74046875 115.828125 204.8984375 C115.22484375 204.27195312 114.6215625 203.64546875 114 203 C115.77743813 198.37866085 118.06005621 196.93994379 122 193 C89.33 192.505 89.33 192.505 56 192 C56 176.16 56 160.32 56 144 C37.52 144 19.04 144 0 144 C0 96.48 0 48.96 0 0 Z M16 16 C16 52.96 16 89.92 16 128 C47.68 128 79.36 128 112 128 C112 91.04 112 54.08 112 16 C80.32 16 48.64 16 16 16 Z " fill="#000000" transform="translate(8,280)"/>
<path d="M0 0 C2.74911267 2.17951235 5.3350625 4.44908707 7.90234375 6.83984375 C8.39041504 7.2869873 8.87848633 7.73413086 9.38134766 8.19482422 C24.12125358 21.80412563 34.4969936 38.44564761 39.90234375 57.83984375 C40.20140625 58.86980469 40.50046875 59.89976562 40.80859375 60.9609375 C47.56320679 87.51031931 41.50400071 116.44787014 27.78515625 139.73632812 C12.11458658 164.72818492 -12.51691522 180.80861212 -40.98046875 187.51953125 C-67.55458911 192.58457247 -94.44647634 187.54502711 -117.11328125 172.89453125 C-141.76500657 155.9222701 -158.27017482 132.21564141 -164.171875 102.69921875 C-168.89300277 75.79606772 -162.74372197 48.57130949 -147.453125 26.09375 C-144.06410765 21.30209102 -140.18503635 17.04155616 -136.09765625 12.83984375 C-135.4015625 12.081875 -134.70546875 11.32390625 -133.98828125 10.54296875 C-121.28481772 -2.90230287 -104.84336592 -11.44542896 -87.09765625 -16.16015625 C-86.14246094 -16.45921875 -85.18726563 -16.75828125 -84.203125 -17.06640625 C-56.09880378 -25.02254437 -23.45824492 -16.35864999 0 0 Z M-121.09765625 19.83984375 C-121.77183594 20.4121875 -122.44601563 20.98453125 -123.140625 21.57421875 C-138.28109564 35.57135865 -148.32488647 57.70733037 -149.5078125 78.1953125 C-150.2728762 104.07177896 -142.14306572 127.72215848 -124.38476562 146.64453125 C-108.68493795 162.66828935 -87.25520276 172.60098711 -64.78979492 173.37841797 C-39.3107371 173.59481 -16.29002457 164.53977871 2.08203125 146.75 C19.58591386 129.0977794 27.21657866 105.71271959 27.28515625 81.30981445 C26.93007423 59.78851516 17.66776697 40.95268186 3.90234375 24.83984375 C3.33 24.16566406 2.75765625 23.49148437 2.16796875 22.796875 C-12.10546399 7.35754305 -34.94831739 -2.44482806 -55.828125 -3.43359375 C-81.07277472 -4.10244923 -101.93941798 3.47269253 -121.09765625 19.83984375 Z " fill="#030301" transform="translate(317.09765625,75.16015625)"/>
<path d="M0 0 C36.18792043 -2.23237171 36.18792043 -2.23237171 42.99169922 1.75195312 C47.15409717 6.05262735 49.25244435 11.03674738 51.12329102 16.65258789 C53.48362008 22.97243304 57.58325462 27.12340307 63.5390625 30.12109375 C69.87555294 32.38412605 75.96754717 31.44651087 82.11328125 29.046875 C87.06754537 26.29792514 89.47989543 23.69308871 91.36328125 18.359375 C97.57543887 3.74460134 97.57543887 3.74460134 104 0 C116.43090338 -3.83804576 131.79812656 -0.96014742 144 0 C144 15.84 144 31.68 144 48 C96.48 48 48.96 48 0 48 C0 32.16 0 16.32 0 0 Z " fill="#F4F6F9" transform="translate(184,440)"/>
<path d="M0 0 C0.99 0 1.98 0 3 0 C3 33.66 3 67.32 3 102 C-7.56 102 -18.12 102 -29 102 C-29 75.6 -29 49.2 -29 22 C-21.74 22 -14.48 22 -7 22 C-6.34 19.03 -5.68 16.06 -5 13 C-4.34997336 10.82179752 -3.66713613 8.65284273 -2.9375 6.5 C-2.59589844 5.4790625 -2.25429688 4.458125 -1.90234375 3.40625 C-1 1 -1 1 0 0 Z " fill="#5BD5B2" transform="translate(293,290)"/>
<path d="M0 0 C4.50234275 2.25117138 4.50234275 2.25117138 5.703125 5.80859375 C5.9609375 6.55560547 6.21875 7.30261719 6.484375 8.07226562 C6.73703125 8.85279297 6.9896875 9.63332031 7.25 10.4375 C7.518125 11.21416016 7.78625 11.99082031 8.0625 12.79101562 C9.15814105 16.03601374 10 18.54618582 10 22 C17.26 22 24.52 22 32 22 C32 48.4 32 74.8 32 102 C21.44 102 10.88 102 0 102 C0 68.34 0 34.68 0 0 Z " fill="#FE816D" transform="translate(216,290)"/>
<path d="M0 0 C2.29199177 0.14063135 4.58359186 0.28765943 6.875 0.4375 C8.15117187 0.51871094 9.42734375 0.59992188 10.7421875 0.68359375 C14 1 14 1 16 2 C14.67180582 14.63449474 13.05588145 27.20675611 11.25 39.78125 C10.98844426 41.61484499 10.72705453 43.44846367 10.46582031 45.28210449 C9.92303761 49.08742013 9.37827369 52.89244513 8.83203125 56.69726562 C8.13563045 61.54915792 7.44431089 66.40175853 6.75445557 71.25458527 C6.21771225 75.02629584 5.67828383 78.7976187 5.13806152 82.5688324 C4.88210114 84.3579081 4.62695605 86.14710066 4.37268066 87.93641663 C3.12924538 96.67631604 1.86671602 105.36643843 0 114 C-7.92 113.01 -7.92 113.01 -16 112 C-12.28835496 84.69691411 -8.51626372 57.40311567 -4.625 30.125 C-4.45033203 28.8973291 -4.27566406 27.6696582 -4.09570312 26.40478516 C-3.59927229 22.91806107 -3.10080433 19.43163508 -2.6015625 15.9453125 C-2.45393463 14.90794952 -2.30630676 13.87058655 -2.15420532 12.80178833 C-2.01646698 11.84384369 -1.87872864 10.88589905 -1.73681641 9.89892578 C-1.61803131 9.0690213 -1.49924622 8.23911682 -1.37686157 7.38406372 C-0.98522366 4.9065234 -0.50821016 2.45604731 0 0 Z " fill="#050403" transform="translate(256,103)"/>
<path d="M0 0 C21.78 0 43.56 0 66 0 C64.47460302 3.81349246 63.05865546 6.72501355 60.91015625 10.140625 C60.2955957 11.12144043 59.68103516 12.10225586 59.04785156 13.11279297 C58.39268555 14.14807129 57.73751953 15.18334961 57.0625 16.25 C56.3931543 17.31234863 55.72380859 18.37469727 55.03417969 19.46923828 C53.02733321 22.64906018 51.01379461 25.82457555 49 29 C48.42813965 29.90782227 47.8562793 30.81564453 47.26708984 31.75097656 C45.76816398 34.13003507 44.26099886 36.50359663 42.75 38.875 C42.30922119 39.5752832 41.86844238 40.27556641 41.41430664 40.99707031 C39.45781872 44.04041053 38.05100046 45.96599969 35 48 C31.48724816 47.875739 29.65861532 47.66286613 27.14648438 45.13452148 C26.63408203 44.32571533 26.12167969 43.51690918 25.59375 42.68359375 C25.00722656 41.77722168 24.42070312 40.87084961 23.81640625 39.93701172 C23.21699219 38.96779785 22.61757812 37.99858398 22 37 C21.39027344 36.04496582 20.78054687 35.08993164 20.15234375 34.10595703 C18.2460618 31.10475687 16.36961927 28.08665735 14.5 25.0625 C13.24003678 23.0322706 11.97962226 21.00232122 10.71875 18.97265625 C10.10902344 17.98797363 9.49929687 17.00329102 8.87109375 15.98876953 C6.38613461 12.01944936 3.83283101 8.09532455 1.26757812 4.17749023 C0 2 0 2 0 0 Z " fill="#DCB089" transform="translate(223,408)"/>
<path d="M0 0 C2.61090648 1.07830209 4.22000581 2.62553378 6.22702026 4.60319519 C6.94502808 5.2902655 7.66303589 5.97733582 8.40280151 6.68522644 C9.91452026 8.79069519 9.91452026 8.79069519 9.82955933 10.5834198 C8.50799817 13.77131586 6.22208952 15.85185957 3.78561401 18.21257019 C3.27651993 18.71741943 2.76742584 19.22226868 2.24290466 19.74241638 C0.61952906 21.34903498 -1.01397674 22.94489341 -2.64797974 24.54069519 C-3.75218024 25.62984503 -4.85570419 26.71968124 -5.95852661 27.81022644 C-8.65973264 30.47840279 -11.37007036 33.1369781 -14.08547974 35.79069519 C-12.51111064 39.66122969 -10.04205739 41.99191921 -7.04251099 44.85319519 C-6.04144475 45.82412146 -5.0408062 46.79548885 -4.04055786 47.76725769 C-2.46522482 49.28663695 -0.8863208 50.8017718 0.70040894 52.30924988 C2.23470231 53.77120448 3.75307505 55.24824532 5.26998901 56.72819519 C6.18417603 57.60346863 7.09836304 58.47874207 8.04025269 59.38053894 C9.91452026 61.79069519 9.91452026 61.79069519 9.81149292 63.97111511 C8.59324217 66.44243326 7.03411906 68.1424196 5.10202026 70.10319519 C4.41494995 70.821203 3.72787964 71.53921082 3.01998901 72.27897644 C0.91452026 73.79069519 0.91452026 73.79069519 -0.98788452 73.59307861 C-3.53139629 72.62012079 -4.83881234 71.3987394 -6.75247192 69.46427917 C-7.45289612 68.76362839 -8.15332031 68.0629776 -8.87496948 67.34109497 C-9.99237518 66.20046349 -9.99237518 66.20046349 -11.13235474 65.03678894 C-11.90355652 64.26134232 -12.6747583 63.48589569 -13.46932983 62.68695068 C-15.93183684 60.20764578 -18.38371107 57.71811527 -20.83547974 55.22819519 C-22.50275883 53.54587079 -24.17071943 51.86422152 -25.83938599 50.18327332 C-29.92935876 46.06021645 -34.01064895 41.92871461 -38.08547974 37.79069519 C-36.71467873 34.72801486 -35.14738551 32.58870162 -32.80081177 30.19963074 C-32.13316803 29.5159996 -31.46552429 28.83236847 -30.77764893 28.12802124 C-30.05681122 27.40182083 -29.33597351 26.67562042 -28.59329224 25.92741394 C-27.8509433 25.17603653 -27.10859436 24.42465912 -26.34375 23.6505127 C-24.77456217 22.06683292 -23.2025607 20.4859368 -21.62796021 18.90763855 C-19.21420445 16.48193834 -16.8197253 14.03821656 -14.42532349 11.59342957 C-12.89913138 10.05777895 -11.37182498 8.52323479 -9.84329224 6.98991394 C-8.76810837 5.88543159 -8.76810837 5.88543159 -7.67120361 4.75863647 C-6.99725555 4.09076614 -6.3233075 3.42289581 -5.62893677 2.73478699 C-5.03984528 2.14062485 -4.45075378 1.54646271 -3.84381104 0.93429565 C-2.08547974 -0.20930481 -2.08547974 -0.20930481 0 0 Z " fill="#060604" transform="translate(227.08547973632813,123.20930480957031)"/>
<path d="M0 0 C3.14945072 1.20615218 5.21980723 2.97517892 7.57519531 5.34814453 C8.25559875 6.02869904 8.9360022 6.70925354 9.63702393 7.41043091 C10.36008728 8.14381683 11.08315063 8.87720276 11.828125 9.6328125 C12.57713074 10.38464813 13.32613647 11.13648376 14.09783936 11.91110229 C16.4866302 14.31107901 18.86836897 16.71792009 21.25 19.125 C22.86933169 20.75436352 24.48911802 22.38327534 26.109375 24.01171875 C30.07820505 28.00258806 34.04126899 31.99911415 38 36 C36.629199 39.06268033 35.06190578 41.20199357 32.71533203 43.59106445 C31.71386642 44.61651115 31.71386642 44.61651115 30.69216919 45.66267395 C29.97133148 46.38887436 29.25049377 47.11507477 28.5078125 47.86328125 C27.39428909 48.99034737 27.39428909 48.99034737 26.25827026 50.1401825 C24.68908243 51.72386227 23.11708096 53.30475839 21.54248047 54.88305664 C19.12872472 57.30875685 16.73424557 59.75247863 14.33984375 62.19726562 C12.81365164 63.73291624 11.28634524 65.2674604 9.7578125 66.80078125 C9.04102325 67.53710281 8.32423401 68.27342438 7.58572388 69.03205872 C6.91177582 69.69992905 6.23782776 70.36779938 5.54345703 71.0559082 C4.65981979 71.94715141 4.65981979 71.94715141 3.7583313 72.85639954 C2 74 2 74 -0.08547974 73.79069519 C-2.69638622 72.7123931 -4.30548554 71.16516141 -6.3125 69.1875 C-7.03050781 68.50042969 -7.74851562 67.81335938 -8.48828125 67.10546875 C-10 65 -10 65 -9.91503906 63.20727539 C-8.5934779 60.01937933 -6.30756926 57.93883562 -3.87109375 55.578125 C-3.36199966 55.07327576 -2.85290558 54.56842651 -2.3283844 54.04827881 C-0.7050088 52.44166021 0.928497 50.84580178 2.5625 49.25 C3.6667005 48.16085016 4.77022445 47.07101395 5.87304688 45.98046875 C8.5742529 43.3122924 11.28459063 40.65371709 14 38 C12.42563091 34.12946551 9.95657765 31.79877598 6.95703125 28.9375 C5.95596502 27.96657373 4.95532646 26.99520634 3.95507812 26.0234375 C2.37974509 24.50405824 0.80084107 22.98892339 -0.78588867 21.48144531 C-2.32018204 20.01949071 -3.83855478 18.54244987 -5.35546875 17.0625 C-6.26965576 16.18722656 -7.18384277 15.31195313 -8.12573242 14.41015625 C-10 12 -10 12 -9.88769531 9.80151367 C-8.76606792 7.5252517 -7.39298776 6.066876 -5.5625 4.3125 C-4.94503906 3.71050781 -4.32757813 3.10851562 -3.69140625 2.48828125 C-2 1 -2 1 0 0 Z " fill="#060604" transform="translate(285,123)"/>
<path d="M0 0 C21.12 0 42.24 0 64 0 C64 5.28 64 10.56 64 16 C42.88 16 21.76 16 0 16 C0 10.72 0 5.44 0 0 Z " fill="#000000" transform="translate(408,376)"/>
<path d="M0 0 C21.12 0 42.24 0 64 0 C64 5.28 64 10.56 64 16 C42.88 16 21.76 16 0 16 C0 10.72 0 5.44 0 0 Z " fill="#000000" transform="translate(40,376)"/>
<path d="M0 0 C21.12 0 42.24 0 64 0 C64 5.28 64 10.56 64 16 C42.88 16 21.76 16 0 16 C0 10.72 0 5.44 0 0 Z " fill="#000000" transform="translate(408,344)"/>
<path d="M0 0 C21.12 0 42.24 0 64 0 C64 5.28 64 10.56 64 16 C42.88 16 21.76 16 0 16 C0 10.72 0 5.44 0 0 Z " fill="#000000" transform="translate(40,344)"/>
<path d="M0 0 C21.12 0 42.24 0 64 0 C64 5.28 64 10.56 64 16 C42.88 16 21.76 16 0 16 C0 10.72 0 5.44 0 0 Z " fill="#000000" transform="translate(408,312)"/>
<path d="M0 0 C21.12 0 42.24 0 64 0 C64 5.28 64 10.56 64 16 C42.88 16 21.76 16 0 16 C0 10.72 0 5.44 0 0 Z " fill="#000000" transform="translate(40,312)"/>
<path d="M0 0 C5.28 0 10.56 0 16 0 C16 5.28 16 10.56 16 16 C10.72 16 5.44 16 0 16 C0 10.72 0 5.44 0 0 Z " fill="#000000" transform="translate(296,456)"/>
<path d="M0 0 C5.28 0 10.56 0 16 0 C16 5.28 16 10.56 16 16 C10.72 16 5.44 16 0 16 C0 10.72 0 5.44 0 0 Z " fill="#000000" transform="translate(200,456)"/>
</svg>
