<?xml version="1.0" encoding="UTF-8"?>
<svg version="1.1" xmlns="http://www.w3.org/2000/svg" width="911" height="1026">
<path d="M0 0 C5.34457526 3.1414803 10.71719145 6.23401149 16.08984375 9.32714844 C18.27474076 10.58626098 20.45963659 11.84537557 22.64453125 13.10449219 C23.72959961 13.72952637 24.81466797 14.35456055 25.93261719 14.99853516 C31.36144317 18.12644992 36.78803656 21.25823292 42.21484375 24.38964844 C44.38149958 25.63966723 46.54816625 26.88966722 48.71484375 28.13964844 C70.38151042 40.63964844 92.04817708 53.13964844 113.71484375 65.63964844 C114.78750488 66.258479 115.86016602 66.87730957 116.96533203 67.51489258 C119.13041446 68.76400362 121.29545357 70.01318973 123.46044922 71.26245117 C128.90100081 74.40167153 134.34231591 77.53955407 139.78515625 80.67480469 C150.23690574 86.69712172 160.67783923 92.73634181 171.08984375 98.82714844 C179.76746616 103.90239967 188.48089943 108.9122361 197.21484375 113.88964844 C206.93599992 119.42966573 216.62379033 125.02339652 226.28173828 130.6730957 C236.80569 136.82731585 247.36864512 142.9133484 257.93261719 148.99853516 C263.36144317 152.12644992 268.78803656 155.25823292 274.21484375 158.38964844 C276.38149958 159.63966723 278.54816625 160.88966722 280.71484375 162.13964844 C285.04817708 164.63964844 289.38151042 167.13964844 293.71484375 169.63964844 C294.78822998 170.25888184 295.86161621 170.87811523 296.9675293 171.51611328 C299.12534178 172.76106125 301.28305728 174.00617734 303.44067383 175.25146484 C308.99200967 178.45517494 314.54520916 181.65558474 320.1015625 184.85058594 C325.54891381 187.98310414 330.98804147 191.12955801 336.42431641 194.28125 C338.86015317 195.68521261 341.30569924 197.06910025 343.7578125 198.44433594 C364.90123017 210.44493519 379.67382511 229.5933399 386.565456 252.88731625 C388.93625191 261.61493793 388.90718483 270.20503745 388.84303284 279.18925476 C388.84808986 281.07898959 388.85532755 282.9687196 388.86453098 284.85843879 C388.88331521 290.0036849 388.87129822 295.14845033 388.85380805 300.29368365 C388.84036295 305.86087304 388.8558965 311.42799537 388.86763 316.99517822 C388.88595678 327.88164821 388.87752793 338.76793806 388.85954178 349.65440234 C388.8454873 358.5044809 388.8416291 367.35451073 388.84498405 376.20459938 C388.84570022 378.09759134 388.84570022 378.09759134 388.84643085 380.02882555 C388.84745723 382.59290825 388.84851259 385.15699093 388.84959661 387.72107361 C388.85841158 411.04894345 388.83980433 434.37671038 388.80906638 457.70455137 C388.78119882 478.97502465 388.77624858 500.24538358 388.79125977 521.51586914 C388.79508259 526.96538378 388.79887749 532.41489843 388.80243015 537.86441326 C388.80286797 538.53543254 388.80330578 539.20645182 388.80375686 539.89780502 C388.81500871 557.70378838 388.80756621 575.50976321 388.79454941 593.3157447 C388.7927051 595.86921139 388.79087037 598.42267809 388.78904533 600.97614479 C388.78813324 602.23235842 388.78722115 603.48857205 388.78628143 604.78285277 C388.78068378 613.62007881 388.78397592 622.45727588 388.79059029 631.29450035 C388.79833346 642.06703207 388.79153501 652.83944106 388.76641525 663.6119481 C388.75394438 669.10435957 388.74774456 674.59658018 388.75895691 680.08899879 C388.76903913 685.12296209 388.76045504 690.15654572 388.73737573 695.19046304 C388.73224064 697.00512504 388.73373424 698.8198214 388.74277038 700.63446816 C388.80682958 714.67379487 386.72901666 726.72070883 380.52734375 739.51464844 C380.18558105 740.2262915 379.84381836 740.93793457 379.49169922 741.67114258 C369.43916993 761.89234955 353.20574531 772.99696533 334.15234375 783.88964844 C332.43595695 784.87536455 330.71957247 785.86108474 329.00332642 786.8470459 C327.238168 787.86070668 325.47240043 788.87329976 323.70654297 789.88574219 C318.20289295 793.04257581 312.70950173 796.21719963 307.21484375 799.38964844 C305.0482232 800.63972837 302.88155643 801.88972819 300.71484375 803.13964844 C299.10609375 804.06777344 299.10609375 804.06777344 297.46484375 805.01464844 C235.71484375 840.63964844 235.71484375 840.63964844 232.46435547 842.51489258 C230.29927304 843.76400362 228.13423393 845.01318973 225.96923828 846.26245117 C220.52868669 849.40167153 215.08737159 852.53955407 209.64453125 855.67480469 C199.19278176 861.69712172 188.75184827 867.73634181 178.33984375 873.82714844 C169.06984598 879.24886021 159.75652623 884.59169759 150.4263916 889.90887451 C141.30201535 895.11009973 132.21351601 900.36992721 123.14794922 905.6730957 C112.6239975 911.82731585 102.06104238 917.9133484 91.49707031 923.99853516 C86.06824433 927.12644992 80.64165094 930.25823292 75.21484375 933.38964844 C73.04818792 934.63966723 70.88152125 935.88966722 68.71484375 937.13964844 C67.10609375 938.06777344 67.10609375 938.06777344 65.46484375 939.01464844 C53.54817708 945.88964844 41.63151042 952.76464844 29.71484375 959.63964844 C28.64169922 960.25880127 27.56855469 960.8779541 26.46289062 961.51586914 C24.30284282 962.76198812 22.14268708 964.00792005 19.98242188 965.25366211 C14.46357296 968.43649252 8.94681373 971.62285755 3.43359375 974.81542969 C-1.99031629 977.95562939 -7.421387 981.0831161 -12.85693359 984.203125 C-15.564559 985.76259442 -18.26325878 987.33649993 -20.9609375 988.91308594 C-43.06236888 1001.70386598 -66.23540406 1004.64834658 -91.19921875 999.13574219 C-104.39109829 995.33898228 -116.0190924 987.7673959 -127.78515625 980.88964844 C-129.79535316 979.72260317 -131.80576409 978.55592644 -133.81640625 977.38964844 C-137.78079386 975.08519061 -141.73968068 972.77160028 -145.6953125 970.45214844 C-152.00086044 966.75751533 -158.32810061 963.10112162 -164.66015625 959.45214844 C-165.74031006 958.82961182 -166.82046387 958.2070752 -167.93334961 957.56567383 C-170.12311959 956.30388017 -172.3129798 955.0422431 -174.50292969 953.78076172 C-179.93175567 950.65284695 -185.35834906 947.52106396 -190.78515625 944.38964844 C-192.95181208 943.13962965 -195.11847875 941.88962965 -197.28515625 940.63964844 C-294.78515625 884.38964844 -294.78515625 884.38964844 -392.28515625 828.13964844 C-393.35781738 827.52081787 -394.43047852 826.9019873 -395.53564453 826.2644043 C-397.70072696 825.01529326 -399.86576607 823.76610714 -402.03076172 822.5168457 C-407.47131331 819.37762534 -412.91262841 816.23974281 -418.35546875 813.10449219 C-429.83055729 806.49265546 -441.30093776 799.87347401 -452.72021484 793.16552734 C-457.99649043 790.07193705 -463.29755198 787.03538996 -468.64453125 784.06542969 C-490.85718419 771.66108309 -490.85718419 771.66108309 -499.78515625 761.88964844 C-500.43613281 761.24253906 -501.08710938 760.59542969 -501.7578125 759.92871094 C-517.95582998 743.05429273 -523.25240154 720.75787189 -523.17956543 698.21150208 C-523.18446051 696.32822373 -523.19065317 694.44494839 -523.19802332 692.56167811 C-523.21436775 687.41104596 -523.21211611 682.26056743 -523.20664835 677.10991848 C-523.20397134 671.54531613 -523.21852259 665.98075411 -523.23074341 660.41616821 C-523.25177175 649.52337731 -523.25633973 638.63063966 -523.25455552 627.73783085 C-523.25324651 618.88051376 -523.25705916 610.02321325 -523.26448059 601.16589928 C-523.26657985 598.61190675 -523.26867745 596.05791422 -523.27077341 593.50392169 C-523.27181694 592.23261115 -523.27286047 590.9613006 -523.27393562 589.6514655 C-523.28746364 572.44386779 -523.29506453 555.23627805 -523.29061127 538.02867603 C-523.29043931 537.3563298 -523.29026736 536.68398357 -523.29009019 535.9912632 C-523.28920136 532.58390545 -523.28825655 529.17654772 -523.28729218 525.76918999 C-523.28710115 525.092535 -523.28691012 524.41588 -523.28671329 523.71872031 C-523.2863262 522.35036029 -523.28593587 520.98200027 -523.28554232 519.61364026 C-523.2795747 498.33051716 -523.29500343 477.04750286 -523.32714844 455.7644043 C-523.36327367 431.82597847 -523.38250773 407.8876312 -523.37760973 383.94916934 C-523.37536801 371.28434074 -523.3805647 358.61961998 -523.40550232 345.954813 C-523.42655471 335.1716283 -523.43006836 324.38861055 -523.41120273 313.6054189 C-523.40206902 308.10856934 -523.40082937 302.61203076 -523.42155838 297.11520576 C-523.4403603 292.07343131 -523.43566208 287.03222053 -523.41301256 281.99046692 C-523.40884998 280.17626778 -523.41294702 278.36202464 -523.4266085 276.54787216 C-523.53275284 261.40964119 -521.07678607 247.39095483 -513.53515625 234.01464844 C-513.15311035 233.3161377 -512.77106445 232.61762695 -512.37744141 231.89794922 C-508.83831424 225.62016005 -504.66882153 220.20074811 -499.78515625 214.88964844 C-499.24761719 214.26058594 -498.71007812 213.63152344 -498.15625 212.98339844 C-487.74256023 201.49963027 -471.21972782 194.43423347 -457.96784973 186.85601807 C-451.89709379 183.38427572 -445.84104277 179.88723936 -439.78515625 176.38964844 C-437.61855467 175.13953562 -435.45188789 173.88953581 -433.28515625 172.63964844 C-431.67640625 171.71152344 -431.67640625 171.71152344 -430.03515625 170.76464844 C-264.28515625 75.13964844 -264.28515625 75.13964844 -261.03466797 73.2644043 C-258.86958554 72.01529326 -256.70454643 70.76610714 -254.53955078 69.5168457 C-249.09899919 66.37762534 -243.65768409 63.23974281 -238.21484375 60.10449219 C-227.76309426 54.08217515 -217.32216077 48.04295507 -206.91015625 41.95214844 C-197.64015848 36.53043666 -188.32683873 31.18759928 -178.9967041 25.87042236 C-169.88116918 20.67423703 -160.80135342 15.41971278 -151.74462891 10.12158203 C-143.12095756 5.0785246 -134.47945623 0.06672489 -125.81445312 -4.9050293 C-119.16798786 -8.7167154 -119.16798786 -8.7167154 -112.59765625 -12.65722656 C-73.23740455 -36.61259726 -35.63378986 -21.03353141 0 0 Z " fill="#659AD2" transform="translate(522.78515625,24.1103515625)"/>
<path d="M0 0 C8.49520844 8.13644083 12.00310317 23.02822345 12.45691541 34.50442651 C12.54004883 38.65003199 12.53018942 42.7926678 12.50793457 46.93884277 C12.51255133 48.8259865 12.51890942 50.71312661 12.52684355 52.6002593 C12.5434535 57.75221827 12.53532857 62.90387868 12.52289867 68.05583835 C12.51381624 73.62512091 12.52783371 79.19435358 12.53881836 84.7636261 C12.55657413 95.66050718 12.55277669 106.55727785 12.5411678 117.45416319 C12.53212217 126.31289106 12.53091436 135.17158805 12.53526306 144.03031921 C12.53587599 145.29272032 12.53648893 146.55512143 12.53712043 147.85577711 C12.53839938 150.42058441 12.53969623 152.9853917 12.5410108 155.55019897 C12.5520833 178.89721287 12.54061452 202.24415607 12.51964041 225.59115627 C12.50065951 246.88127829 12.50235809 268.17130459 12.52148438 289.46142578 C12.54292637 313.40899447 12.55130943 337.35650339 12.53903532 361.30408525 C12.53776117 363.85928376 12.53650368 366.41448227 12.53526306 368.96968079 C12.53464596 370.22677938 12.53402886 371.48387798 12.53339306 372.77907047 C12.52994413 381.62377879 12.53575865 390.46845308 12.54518127 399.31315613 C12.55641729 410.09673401 12.55332744 420.88019547 12.5320583 431.66376007 C12.52156956 437.1622304 12.51738901 442.66050685 12.53065491 448.1589756 C12.5426296 453.1986033 12.53593281 458.23785855 12.5147447 463.27745277 C12.5103001 465.09422592 12.51249632 466.91103096 12.52224785 468.72778338 C12.59182856 482.7755876 10.51805778 494.82304596 4.3125 507.625 C3.9707373 508.33664307 3.62897461 509.04828613 3.27685547 509.78149414 C-6.77567382 530.00270111 -23.00909844 541.1073169 -42.0625 552 C-43.7788868 552.98571612 -45.49527128 553.9714363 -47.21151733 554.95739746 C-48.97667575 555.97105824 -50.74244332 556.98365132 -52.50830078 557.99609375 C-58.0119508 561.15292738 -63.50534202 564.32755119 -69 567.5 C-71.16662055 568.75007993 -73.33328732 570.00007976 -75.5 571.25 C-77.10875 572.178125 -77.10875 572.178125 -78.75 573.125 C-140.49999999 608.75 -140.49999999 608.75 -143.75048828 610.62524414 C-145.91557071 611.87435518 -148.08060982 613.12354129 -150.24560547 614.37280273 C-155.68615706 617.51202309 -161.12747216 620.64990563 -166.5703125 623.78515625 C-177.02206199 629.80747329 -187.46299548 635.84669337 -197.875 641.9375 C-207.14499777 647.35921178 -216.45831752 652.70204915 -225.78845215 658.01922607 C-234.9128284 663.22045129 -244.00132774 668.48027878 -253.06689453 673.78344727 C-263.59084625 679.93766742 -274.15380137 686.02369996 -284.71777344 692.10888672 C-290.14659942 695.23680148 -295.57319281 698.36858448 -301 701.5 C-303.16665583 702.75001879 -305.3333225 704.00001878 -307.5 705.25 C-309.10875 706.178125 -309.10875 706.178125 -310.75 707.125 C-322.66666667 714 -334.58333333 720.875 -346.5 727.75 C-347.57314453 728.36915283 -348.64628906 728.98830566 -349.75195312 729.6262207 C-351.91200093 730.87233969 -354.07215667 732.11827161 -356.23242188 733.36401367 C-361.75127079 736.54684409 -367.26803002 739.73320911 -372.78125 742.92578125 C-378.20516004 746.06598096 -383.63623075 749.19346767 -389.07177734 752.31347656 C-391.77940275 753.87294599 -394.47810253 755.4468515 -397.17578125 757.0234375 C-419.27721263 769.81421755 -442.45024781 772.75869814 -467.4140625 767.24609375 C-480.60594204 763.44933384 -492.23393615 755.87774747 -504 749 C-506.01019691 747.83295473 -508.02060784 746.666278 -510.03125 745.5 C-513.99563761 743.19554217 -517.95452443 740.88195184 -521.91015625 738.5625 C-528.21570419 734.8678669 -534.54294436 731.21147319 -540.875 727.5625 C-541.95515381 726.93996338 -543.03530762 726.31742676 -544.14819336 725.67602539 C-546.33796334 724.41423174 -548.52782355 723.15259466 -550.71777344 721.89111328 C-556.14659942 718.76319852 -561.57319281 715.63141552 -567 712.5 C-569.16665583 711.24998121 -571.3333225 709.99998122 -573.5 708.75 C-638.5 671.25 -703.5 633.75 -768.5 596.25 C-769.57266113 595.63116943 -770.64532227 595.01233887 -771.75048828 594.37475586 C-773.91557071 593.12564482 -776.08060982 591.87645871 -778.24560547 590.62719727 C-783.68615706 587.48797691 -789.12747216 584.35009437 -794.5703125 581.21484375 C-806.04540104 574.60300702 -817.51578151 567.98382557 -828.93505859 561.27587891 C-834.21133418 558.18228861 -839.51239573 555.14574152 -844.859375 552.17578125 C-867.12243398 539.74328611 -867.12243398 539.74328611 -876 530 C-876.68578125 529.29488281 -877.3715625 528.58976563 -878.078125 527.86328125 C-881.16138231 524.56626871 -883.53887425 521.22779537 -885.69140625 517.2578125 C-886.12783447 516.45746582 -886.5642627 515.65711914 -887.01391602 514.83251953 C-887.33932373 514.22778809 -887.66473145 513.62305664 -888 513 C-875.37286054 505.59619141 -862.71791129 498.24651812 -850 491 C-840.2787268 485.46018998 -830.59105082 479.86625039 -820.93310547 474.21655273 C-810.40915375 468.06233258 -799.84619863 461.97630004 -789.28222656 455.89111328 C-783.85340058 452.76319852 -778.42680719 449.63141552 -773 446.5 C-770.83334417 445.24998121 -768.6666775 443.99998122 -766.5 442.75 C-765.4275 442.13125 -764.355 441.5125 -763.25 440.875 C-760 439 -756.75 437.125 -753.5 435.25 C-752.42564697 434.62996094 -751.35129395 434.00992187 -750.24438477 433.37109375 C-748.09720587 432.13277792 -745.94926718 430.89577852 -743.80053711 429.66015625 C-738.6973548 426.72343025 -733.60330531 423.77331441 -728.5350647 420.7767334 C-726.12786634 419.35456063 -723.71634788 417.9398078 -721.30444336 416.52563477 C-719.59386344 415.51846641 -717.88963385 414.50053746 -716.18554688 413.48242188 C-715.15623047 412.87978516 -714.12691406 412.27714844 -713.06640625 411.65625 C-712.15834229 411.11806641 -711.25027832 410.57988281 -710.31469727 410.02539062 C-708 409 -708 409 -705 410 C-703.39899305 412.34774527 -701.93686543 414.67986752 -700.5 417.125 C-691.2083309 432.44910127 -680.18812456 446.42197514 -668.12109375 459.66015625 C-666.19213665 461.78804815 -664.30963647 463.94720859 -662.4375 466.125 C-656.44872127 472.98311758 -649.87273366 479.04800005 -643 485 C-642.38906494 485.53359131 -641.77812988 486.06718262 -641.14868164 486.61694336 C-624.3412946 501.20547341 -605.7310373 513.70463963 -586 524 C-585.37818848 524.32871094 -584.75637695 524.65742187 -584.11572266 524.99609375 C-540.98183117 547.68304205 -493.65070542 559.48956308 -444.9375 559.3125 C-443.89752869 559.31067719 -442.85755737 559.30885437 -441.78607178 559.30697632 C-426.64091543 559.26226124 -411.91829889 558.82114874 -397 556 C-395.96311035 555.81244141 -394.9262207 555.62488281 -393.85791016 555.43164062 C-386.53952696 554.09611403 -379.2616606 552.61503379 -372 551 C-370.94474121 550.76676025 -370.94474121 550.76676025 -369.86816406 550.52880859 C-321.77635686 539.58508239 -274.693548 513.85824145 -239 480 C-237.65169244 478.82656692 -236.29782036 477.65948566 -234.9375 476.5 C-227.37888712 469.91719165 -220.41832197 462.692093 -214 455 C-213.54254395 454.45633789 -213.08508789 453.91267578 -212.61376953 453.35253906 C-193.19393193 432.4875803 -193.19393193 432.4875803 -182 408 C-183.06806885 407.39079712 -183.06806885 407.39079712 -184.15771484 406.76928711 C-206.48211473 394.03263325 -228.77108097 381.23747411 -250.96191406 368.26904297 C-259.36894243 363.35919493 -267.80038346 358.49237638 -276.23852539 353.63623047 C-281.79448158 350.43611379 -287.34061564 347.22054412 -292.87109375 343.9765625 C-293.97388672 343.33009766 -295.07667969 342.68363281 -296.21289062 342.01757812 C-298.31850369 340.78175798 -300.42273534 339.54358028 -302.52539062 338.30273438 C-303.46447266 337.75166016 -304.40355469 337.20058594 -305.37109375 336.6328125 C-306.19536865 336.14699707 -307.01964355 335.66118164 -307.86889648 335.16064453 C-310.07916435 333.87581645 -310.07916435 333.87581645 -313 333 C-313.25007812 333.70125 -313.50015625 334.4025 -313.7578125 335.125 C-318.32124386 345.68690404 -326.73460932 354.43742244 -334.64550781 362.59863281 C-335.8063988 363.79969883 -336.94817012 365.0191941 -338.0859375 366.2421875 C-354.64235471 383.63690431 -376.86672223 394.86353617 -399.4375 402.25 C-400.1392334 402.48428711 -400.8409668 402.71857422 -401.56396484 402.95996094 C-414.59126775 407.02352331 -427.77158979 408.50855491 -441.35717773 408.39111328 C-443.56621726 408.37497284 -445.77343545 408.39111537 -447.98242188 408.41015625 C-487.87898159 408.46787689 -523.87615173 390.32373878 -552 363 C-552.83422485 362.20082153 -552.83422485 362.20082153 -553.68530273 361.38549805 C-557.84173873 357.33716922 -561.48268833 353.09546556 -564.9375 348.4375 C-565.45401123 347.74205078 -565.97052246 347.04660156 -566.50268555 346.33007812 C-574.35984502 335.57160654 -580.22923731 324.07264868 -585.27001953 311.77783203 C-585.89283731 310.26098954 -586.53612558 308.7525791 -587.18359375 307.24609375 C-590.80901157 298.2319226 -592.30289683 288.52820649 -594 279 C-594.17724609 278.0711499 -594.35449219 277.1422998 -594.53710938 276.18530273 C-597.24228654 257.57008837 -596.31040163 236.01656809 -591 218 C-590.67854004 216.86836426 -590.67854004 216.86836426 -590.35058594 215.71386719 C-578.72434868 175.58896392 -551.785601 142.77499538 -515.48144531 122.32714844 C-503.59604363 115.97049323 -491.22117852 111.16855271 -478.03025818 108.42466736 C-476.13396123 108.02802056 -474.24136559 107.61379193 -472.34912109 107.19824219 C-463.18469673 105.30756686 -454.44230225 104.52604349 -445.09057617 104.60888672 C-442.93409304 104.6250255 -440.77947549 104.60889045 -438.62304688 104.58984375 C-429.05467391 104.57564211 -420.31191305 105.77832938 -411 108 C-410.22906006 108.17305664 -409.45812012 108.34611328 -408.66381836 108.52441406 C-399.079335 110.7269435 -389.96883616 114.01334203 -381 118 C-380.35949707 118.28327148 -379.71899414 118.56654297 -379.05908203 118.85839844 C-362.28490344 126.41659193 -348.05306536 137.12562719 -335 150 C-334.43861328 150.53657227 -333.87722656 151.07314453 -333.29882812 151.62597656 C-328.97607177 155.81795646 -325.30802346 160.27398347 -321.75 165.125 C-321.234375 165.81464844 -320.71875 166.50429688 -320.1875 167.21484375 C-313 176.90314916 -313 176.90314916 -313 180 C-303.35730482 175.35385616 -294.03471225 170.37236453 -284.84765625 164.8828125 C-279.1224102 161.46284864 -273.34207001 158.13956074 -267.5625 154.8125 C-266.45745117 154.17570313 -265.35240234 153.53890625 -264.21386719 152.8828125 C-260.80959719 150.92126252 -257.4048424 148.96055622 -254 147 C-241.31652382 139.69530212 -228.63750821 132.38401657 -216 125 C-204.45270484 118.25298806 -192.87097973 111.56660682 -181.28222656 104.89111328 C-175.85340058 101.76319852 -170.42680719 98.63141552 -165 95.5 C-162.83334417 94.24998121 -160.6666775 92.99998122 -158.5 91.75 C-157.4275 91.13125 -156.355 90.5125 -155.25 89.875 C-67.5 39.25 -67.5 39.25 -64.24902344 37.37451172 C-62.08552524 36.12628966 -59.92211357 34.87791761 -57.75878906 33.62939453 C-52.29434983 30.47594744 -46.82836355 27.32523904 -41.359375 24.1796875 C-27.5166071 16.21352792 -13.72849859 8.1615945 0 0 Z " fill="#00599C" transform="translate(899,256)"/>
<path d="M0 0 C0.89267578 0.17080078 1.78535156 0.34160156 2.70507812 0.51757812 C7.84430362 1.52954917 12.92336329 2.7139187 18 4 C19.18078125 4.28359375 20.3615625 4.5671875 21.578125 4.859375 C61.98899475 15.0065978 100.2455317 33.20092331 133 59 C133.8559375 59.66386719 134.711875 60.32773437 135.59375 61.01171875 C141.63393367 65.75624574 147.32957663 70.82342376 153 76 C154.7287478 77.54213635 156.45791059 79.08380762 158.1875 80.625 C164.92970183 86.70351633 171.1569548 93.05267286 177 100 C177.45648926 100.54269531 177.91297852 101.08539063 178.38330078 101.64453125 C186.81632772 111.71993535 194.64927975 122.11024015 202 133 C202.43844238 133.64227539 202.87688477 134.28455078 203.32861328 134.94628906 C204.53138274 136.72244496 205.70811927 138.51262076 206.875 140.3125 C207.53242187 141.31925781 208.18984375 142.32601562 208.8671875 143.36328125 C210 146 210 146 209.38745117 147.97094727 C207.58354079 150.6090432 205.74181332 151.58380351 202.93359375 153.1015625 C201.89984619 153.66866943 200.86609863 154.23577637 199.80102539 154.82006836 C198.69106201 155.4156958 197.58109863 156.01132324 196.4375 156.625 C194.13204635 157.88792533 191.82735927 159.15225102 189.5234375 160.41796875 C188.39776367 161.03333496 187.27208984 161.64870117 186.11230469 162.28271484 C182.21903827 164.43091346 178.38168101 166.66090402 174.5625 168.9375 C167.5537015 173.09940782 160.50196043 177.18330286 153.4375 181.25 C144.94343673 186.1414534 136.46236396 191.05390628 128 196 C119.36734769 201.04375639 110.72114855 206.06354086 102.0625 211.0625 C100.99064453 211.68189453 99.91878906 212.30128906 98.81445312 212.93945312 C96.80529166 214.09824303 94.79447448 215.25416861 92.78173828 216.40673828 C90.96884882 217.44508448 89.15971496 218.49002408 87.35498047 219.54248047 C86.15639404 220.23108154 86.15639404 220.23108154 84.93359375 220.93359375 C83.89609985 221.53578735 83.89609985 221.53578735 82.83764648 222.15014648 C81 223 81 223 78 223 C76.5625 221.0859375 76.5625 221.0859375 75 218.375 C55.1465958 185.95193527 21.8579445 162.02431147 -15.0480957 152.92651367 C-26.53634708 150.17723096 -37.34117133 148.79050756 -49.17553711 148.75976562 C-51.40062302 148.75015921 -53.62474334 148.71912497 -55.84960938 148.6875 C-65.92681332 148.6135422 -75.15753881 149.81616672 -85 152 C-86.35197916 152.28359039 -87.70419351 152.56606184 -89.05664062 152.84741211 C-125.40213058 160.63119274 -158.57170365 185.32347642 -178.71899414 216.15625 C-189.19445502 232.55769162 -197.00405171 249.85587671 -201 269 C-201.17829346 269.84900879 -201.35658691 270.69801758 -201.5402832 271.57275391 C-203.1917109 280.35983402 -203.39652802 289.03231383 -203.375 297.9375 C-203.37512085 298.70668762 -203.3752417 299.47587524 -203.37536621 300.26837158 C-203.34721011 312.88066789 -202.3055559 324.77910512 -199 337 C-198.54947266 338.75957031 -198.54947266 338.75957031 -198.08984375 340.5546875 C-191.04023916 365.51822237 -177.98108418 387.38910552 -160 406 C-159.49218994 406.53044922 -158.98437988 407.06089844 -158.46118164 407.60742188 C-139.94672653 426.60090219 -115.57407446 439.53126352 -90 446 C-88.92492187 446.28746094 -87.84984375 446.57492187 -86.7421875 446.87109375 C-64.50938996 452.6939693 -37.09356474 452.55504012 -15 446 C-14.06188477 445.73155273 -13.12376953 445.46310547 -12.15722656 445.18652344 C14.11642329 437.52584994 35.37551395 424.90869932 55 406 C55.64195312 405.40960937 56.28390625 404.81921875 56.9453125 404.2109375 C65.45606389 396.17520479 72.34073575 386.19127668 78 376 C81.80560234 376.58066603 84.526577 377.66421734 87.82421875 379.6328125 C88.75669434 380.18380615 89.68916992 380.7347998 90.64990234 381.30249023 C91.65230957 381.90391846 92.6547168 382.50534668 93.6875 383.125 C95.86025981 384.41086159 98.03345157 385.69599352 100.20703125 386.98046875 C101.32932129 387.6461084 102.45161133 388.31174805 103.60791016 388.99755859 C109.00694212 392.18475164 114.44055478 395.31119989 119.875 398.4375 C122.05732849 399.6952486 124.23961995 400.95306148 126.421875 402.2109375 C128.6145405 403.47403269 130.80724889 404.73705344 133 406 C146.65788959 413.86645807 160.31387791 421.73513433 173.91088867 429.70654297 C178.72205658 432.52309001 183.54395281 435.31739243 188.39730835 438.06051636 C190.82402015 439.43211865 193.24727033 440.80978471 195.6706543 442.18725586 C197.40628493 443.16982857 199.14743763 444.14262645 200.88867188 445.11523438 C201.93474609 445.71013672 202.98082031 446.30503906 204.05859375 446.91796875 C204.98986084 447.44156982 205.92112793 447.9651709 206.88061523 448.50463867 C209 450 209 450 210 453 C208.65320883 455.55738997 207.26305281 457.90127603 205.6875 460.3125 C205.2325415 461.02237061 204.77758301 461.73224121 204.30883789 462.46362305 C195.28349151 476.4172529 185.31507867 489.38424132 174.109375 501.671875 C172.24324433 503.73153033 170.42930212 505.82388895 168.625 507.9375 C161.70749758 515.86614546 154.10742505 523.29604517 146 530 C145.49549316 530.41830078 144.99098633 530.83660156 144.47119141 531.26757812 C114.0479854 556.37436161 80.15659259 575.62928219 42.66650391 588.11132812 C40.35667276 588.88113085 38.05852379 589.6768302 35.76171875 590.484375 C20.66461207 595.56377538 4.79245918 598.069101 -10.875 600.75 C-11.54450684 600.86553223 -12.21401367 600.98106445 -12.90380859 601.10009766 C-22.04955867 602.59899079 -31.2176057 603.15749481 -40.4765625 603.203125 C-41.43698959 603.21013931 -42.39741669 603.21715363 -43.38694763 603.22438049 C-46.46634677 603.24177103 -49.54555357 603.24823191 -52.625 603.25 C-54.20352249 603.25101212 -54.20352249 603.25101212 -55.81393433 603.25204468 C-79.33048193 603.22807312 -101.17351877 600.76303557 -124 595 C-125.63010271 594.60373194 -127.26030859 594.20788797 -128.890625 593.8125 C-187.89264603 579.21331302 -242.2053577 544.85538105 -282 499 C-282.53463867 498.38801758 -283.06927734 497.77603516 -283.62011719 497.14550781 C-298.70208176 479.76498025 -311.53385736 460.49124847 -322 440 C-322.44150391 439.14148438 -322.88300781 438.28296875 -323.33789062 437.3984375 C-330.82970979 422.68722896 -336.76498981 407.64679909 -342 392 C-342.23299805 391.31196289 -342.46599609 390.62392578 -342.70605469 389.91503906 C-347.40223108 375.9337635 -350.1669522 361.56453141 -352.6875 347.0625 C-352.90204834 345.83015625 -353.11659668 344.5978125 -353.33764648 343.328125 C-355.05155445 333.22393622 -356.15018655 323.34444237 -356.203125 313.09375 C-356.21009399 312.17903427 -356.21706299 311.26431854 -356.22424316 310.32188416 C-356.24155233 307.38120879 -356.24796446 304.44072422 -356.25 301.5 C-356.25100708 300.49478302 -356.25201416 299.48956604 -356.25305176 298.45388794 C-356.24242797 282.7730207 -355.65136547 267.48940722 -353 252 C-352.7831958 250.7001416 -352.7831958 250.7001416 -352.56201172 249.37402344 C-343.83926748 198.54447725 -322.61206524 150.06474141 -290 110 C-289.58218262 109.48598633 -289.16436523 108.97197266 -288.73388672 108.44238281 C-274.47969682 91.00334763 -258.84499783 74.79426102 -241 61 C-240.33790527 60.48711426 -239.67581055 59.97422852 -238.99365234 59.44580078 C-214.95949713 40.96824413 -188.30104959 25.91638801 -160 15 C-159.30277832 14.72994141 -158.60555664 14.45988281 -157.88720703 14.18164062 C-108.44057412 -4.70625028 -52.02380828 -10.04334041 0 0 Z " fill="#FEFEFE" transform="translate(508,213)"/>
<path d="M0 0 C1.60100695 2.34774527 3.06313457 4.67986752 4.5 7.125 C13.7916691 22.44910127 24.81187544 36.42197514 36.87890625 49.66015625 C38.80786335 51.78804815 40.69036353 53.94720859 42.5625 56.125 C48.55127873 62.98311758 55.12726634 69.04800005 62 75 C62.61093506 75.53359131 63.22187012 76.06718262 63.85131836 76.61694336 C80.6587054 91.20547341 99.2689627 103.70463963 119 114 C119.62181152 114.32871094 120.24362305 114.65742187 120.88427734 114.99609375 C164.01816883 137.68304205 211.34929458 149.48956308 260.0625 149.3125 C261.10247131 149.31067719 262.14244263 149.30885437 263.21392822 149.30697632 C278.35908457 149.26226124 293.08170111 148.82114874 308 146 C309.03688965 145.81244141 310.0737793 145.62488281 311.14208984 145.43164062 C318.46047304 144.09611403 325.7383394 142.61503379 333 141 C333.70350586 140.84450684 334.40701172 140.68901367 335.13183594 140.52880859 C383.22364314 129.58508239 430.306452 103.85824145 466 70 C467.34830756 68.82656692 468.70217964 67.65948566 470.0625 66.5 C477.62111288 59.91719165 484.58167803 52.692093 491 45 C491.45745605 44.45633789 491.91491211 43.91267578 492.38623047 43.35253906 C504.14033332 29.33960105 514.23044064 14.43831603 524 -1 C527.3914178 -0.32986605 530.0112775 0.97546055 533.015625 2.66796875 C534.0068335 3.22411865 534.99804199 3.78026855 536.01928711 4.35327148 C537.08542236 4.95856689 538.15155762 5.5638623 539.25 6.1875 C540.36318604 6.815354 541.47637207 7.44320801 542.62329102 8.09008789 C552.10260671 13.45302396 561.51428458 18.9299443 570.91015625 24.4375 C577.21570419 28.1321331 583.54294436 31.78852681 589.875 35.4375 C590.95515381 36.06003662 592.03530762 36.68257324 593.14819336 37.32397461 C595.33796334 38.58576826 597.52782355 39.84740534 599.71777344 41.10888672 C605.14659942 44.23680148 610.57319281 47.36858448 616 50.5 C618.16665583 51.75001879 620.3333225 53.00001878 622.5 54.25 C626.83333333 56.75 631.16666667 59.25 635.5 61.75 C637.1089917 62.67824585 637.1089917 62.67824585 638.75048828 63.62524414 C640.91557071 64.87435518 643.08060982 66.12354129 645.24560547 67.37280273 C650.68615706 70.51202309 656.12747216 73.64990563 661.5703125 76.78515625 C666.96108791 79.8907073 672.34868308 83.00172139 677.73486328 86.11523438 C680.55467555 87.74294117 683.37694115 89.36629395 686.20031738 90.98780823 C688.99013269 92.59184396 691.77595633 94.20278948 694.5625 95.8125 C695.59842285 96.40554932 696.6343457 96.99859863 697.70166016 97.60961914 C698.64702637 98.15739014 699.59239258 98.70516113 700.56640625 99.26953125 C701.81852905 99.99039917 701.81852905 99.99039917 703.09594727 100.72583008 C705 102 705 102 706 104 C694.555269 121.7746563 681.20346698 131.55748719 662.9375 142 C661.2211132 142.98571612 659.50472872 143.9714363 657.78848267 144.95739746 C656.02332425 145.97105824 654.25755668 146.98365132 652.49169922 147.99609375 C646.9880492 151.15292738 641.49465798 154.32755119 636 157.5 C633.83337945 158.75007993 631.66671268 160.00007976 629.5 161.25 C628.4275 161.86875 627.355 162.4875 626.25 163.125 C564.50000001 198.74999999 564.50000001 198.74999999 561.24951172 200.62524414 C559.08442929 201.87435518 556.91939018 203.12354129 554.75439453 204.37280273 C549.31384294 207.51202309 543.87252784 210.64990563 538.4296875 213.78515625 C527.97793801 219.80747329 517.53700452 225.84669337 507.125 231.9375 C497.85500223 237.35921178 488.54168248 242.70204915 479.21154785 248.01922607 C470.0871716 253.22045129 460.99867226 258.48027878 451.93310547 263.78344727 C441.40915375 269.93766742 430.84619863 276.02369996 420.28222656 282.10888672 C414.85340058 285.23680148 409.42680719 288.36858448 404 291.5 C401.83334417 292.75001879 399.6666775 294.00001878 397.5 295.25 C396.4275 295.86875 395.355 296.4875 394.25 297.125 C382.33333333 304 370.41666667 310.875 358.5 317.75 C356.8902832 318.67872925 356.8902832 318.67872925 355.24804688 319.6262207 C353.08799907 320.87233969 350.92784333 322.11827161 348.76757812 323.36401367 C343.24872921 326.54684409 337.73196998 329.73320911 332.21875 332.92578125 C326.79483996 336.06598096 321.36376925 339.19346767 315.92822266 342.31347656 C313.22059725 343.87294599 310.52189747 345.4468515 307.82421875 347.0234375 C285.72278737 359.81421755 262.54975219 362.75869814 237.5859375 357.24609375 C224.39405796 353.44933384 212.76606385 345.87774747 201 339 C198.98980309 337.83295473 196.97939216 336.666278 194.96875 335.5 C191.00436239 333.19554217 187.04547557 330.88195184 183.08984375 328.5625 C176.78429581 324.8678669 170.45705564 321.21147319 164.125 317.5625 C163.04484619 316.93996338 161.96469238 316.31742676 160.85180664 315.67602539 C158.66203666 314.41423174 156.47217645 313.15259466 154.28222656 311.89111328 C148.85340058 308.76319852 143.42680719 305.63141552 138 302.5 C135.83334417 301.24998121 133.6666775 299.99998122 131.5 298.75 C66.5 261.25 1.5 223.75 -63.5 186.25 C-64.57266113 185.63116943 -65.64532227 185.01233887 -66.75048828 184.37475586 C-68.91557071 183.12564482 -71.08060982 181.87645871 -73.24560547 180.62719727 C-78.68615706 177.48797691 -84.12747216 174.35009437 -89.5703125 171.21484375 C-101.04540104 164.60300702 -112.51578151 157.98382557 -123.93505859 151.27587891 C-129.21133418 148.18228861 -134.51239573 145.14574152 -139.859375 142.17578125 C-162.12243398 129.74328611 -162.12243398 129.74328611 -171 120 C-171.68578125 119.29488281 -172.3715625 118.58976563 -173.078125 117.86328125 C-176.16138231 114.56626871 -178.53887425 111.22779537 -180.69140625 107.2578125 C-181.12783447 106.45746582 -181.5642627 105.65711914 -182.01391602 104.83251953 C-182.33932373 104.22778809 -182.66473145 103.62305664 -183 103 C-170.37286054 95.59619141 -157.71791129 88.24651812 -145 81 C-135.2787268 75.46018998 -125.59105082 69.86625039 -115.93310547 64.21655273 C-105.40915375 58.06233258 -94.84619863 51.97630004 -84.28222656 45.89111328 C-78.85340058 42.76319852 -73.42680719 39.63141552 -68 36.5 C-65.83334417 35.24998121 -63.6666775 33.99998122 -61.5 32.75 C-60.4275 32.13125 -59.355 31.5125 -58.25 30.875 C-55 29 -51.75 27.125 -48.5 25.25 C-47.42564697 24.62996094 -46.35129395 24.00992188 -45.24438477 23.37109375 C-43.09720587 22.13277792 -40.94926718 20.89577852 -38.80053711 19.66015625 C-33.6973548 16.72343025 -28.60330531 13.77331441 -23.5350647 10.7767334 C-21.12786634 9.35456063 -18.71634788 7.9398078 -16.30444336 6.52563477 C-14.59386344 5.51846641 -12.88963385 4.50053746 -11.18554688 3.48242188 C-10.15623047 2.87978516 -9.12691406 2.27714844 -8.06640625 1.65625 C-7.15834229 1.11806641 -6.25027832 0.57988281 -5.31469727 0.02539062 C-3 -1 -3 -1 0 0 Z " fill="#004482" transform="translate(194,666)"/>
<path d="M0 0 C2.15648313 0.01613878 4.31110069 0.00000373 6.4675293 -0.01904297 C16.03590226 -0.03324461 24.77866312 1.16944266 34.09057617 3.39111328 C34.86151611 3.56416992 35.63245605 3.73722656 36.42675781 3.91552734 C46.01124117 6.11805678 55.12174001 9.40445531 64.09057617 13.39111328 C64.7310791 13.67438477 65.37158203 13.95765625 66.03149414 14.24951172 C82.80567273 21.80770521 97.03751082 32.51674048 110.09057617 45.39111328 C110.93265625 46.19597168 110.93265625 46.19597168 111.79174805 47.01708984 C116.1145044 51.20906974 119.78255271 55.66509675 123.34057617 60.51611328 C123.85620117 61.20576172 124.37182617 61.89541016 124.90307617 62.60595703 C132.09057617 72.29426244 132.09057617 72.29426244 132.09057617 75.39111328 C132.75057617 75.72111328 133.41057617 76.05111328 134.09057617 76.39111328 C133.45893555 76.74189941 132.82729492 77.09268555 132.17651367 77.45410156 C118.42355482 85.10096467 104.75688566 92.87201367 91.18041992 100.82861328 C84.87487198 104.52324638 78.54763181 108.1796401 72.21557617 111.82861328 C71.13542236 112.4511499 70.05526855 113.07368652 68.94238281 113.71508789 C66.75261283 114.97688154 64.56275262 116.23851862 62.37280273 117.5 C56.94397675 120.62791476 51.51738336 123.75969776 46.09057617 126.89111328 C43.92392035 128.14113207 41.75725368 129.39113207 39.59057617 130.64111328 C38.51807617 131.25986328 37.44557617 131.87861328 36.34057617 132.51611328 C-77.40942383 198.14111328 -77.40942383 198.14111328 -80.66455078 200.01904297 C-82.81416017 201.25922089 -84.96373741 202.49945455 -87.11328125 203.73974609 C-92.18251595 206.66461558 -97.25207319 209.58892161 -102.32278442 212.51123047 C-104.7136898 213.88918266 -107.10441054 215.267455 -109.49511719 216.64575195 C-111.17926346 217.6165231 -112.86367614 218.58683202 -114.5480957 219.55712891 C-116.08240234 220.44174805 -116.08240234 220.44174805 -117.64770508 221.34423828 C-118.99409058 222.12009277 -118.99409058 222.12009277 -120.36767578 222.91162109 C-121.20645264 223.39985352 -122.04522949 223.88808594 -122.90942383 224.39111328 C-123.80169678 224.90770508 -124.69396973 225.42429687 -125.61328125 225.95654297 C-127.99013911 227.32181667 -127.99013911 227.32181667 -129.90942383 229.39111328 C-138.8357471 211.23702467 -145.41426896 194.37557544 -148.90942383 174.39111328 C-149.08594482 173.46443848 -149.26246582 172.53776367 -149.44433594 171.58300781 C-152.15650158 152.96943639 -151.21949214 131.40655052 -145.90942383 113.39111328 C-145.69511719 112.63668945 -145.48081055 111.88226563 -145.26000977 111.10498047 C-133.63377251 70.98007721 -106.69502482 38.16610866 -70.39086914 17.71826172 C-58.50546746 11.36160651 -46.13060234 6.55966599 -32.93968201 3.81578064 C-31.04338506 3.41913384 -29.15078941 3.00490522 -27.25854492 2.58935547 C-18.09412056 0.69868014 -9.35172608 -0.08284323 0 0 Z " fill="#659AD2" transform="translate(453.909423828125,360.60888671875)"/>
<path d="M0 0 C1.93527142 0.95454667 3.8329214 1.98709091 5.69921875 3.0703125 C7.36936035 4.03251709 7.36936035 4.03251709 9.07324219 5.01416016 C10.27807059 5.71764364 11.48282116 6.42126042 12.6875 7.125 C13.94265708 7.85140012 15.198197 8.57713909 16.45410156 9.30224609 C19.04038086 10.79681225 21.62436857 12.29522831 24.20654297 13.796875 C27.72703244 15.84337245 31.25484038 17.87674726 34.78515625 19.90625 C45.17098958 25.87831854 55.53330956 31.88934685 65.875 37.9375 C78.08179833 45.07443715 90.35882462 52.08628131 102.64404297 59.08691406 C107.84844368 62.05371779 113.04917096 65.02694111 118.25 68 C119.96352265 68.97919994 121.67706217 69.95837037 123.390625 70.9375 C124.59375 71.625 125.796875 72.3125 127 73 C126.54144618 78.15290144 124.71355131 81.49887936 121.6875 85.5625 C121.24744629 86.16529785 120.80739258 86.7680957 120.35400391 87.38916016 C115.77586019 93.52588898 110.66099533 99.1215216 105.33837891 104.61474609 C104.18428424 105.80926144 103.04923142 107.02212082 101.91796875 108.23828125 C85.3587085 125.63421992 63.13634598 136.86253208 40.5625 144.25 C39.8607666 144.48428711 39.1590332 144.71857422 38.43603516 144.95996094 C25.40873225 149.02352331 12.22841021 150.50855491 -1.35717773 150.39111328 C-3.56621726 150.37497284 -5.77343545 150.39111537 -7.98242188 150.41015625 C-47.87898159 150.46787689 -83.87615173 132.32373878 -112 105 C-112.55252441 104.47374023 -113.10504883 103.94748047 -113.67431641 103.40527344 C-118.00620131 99.20328549 -121.68410879 94.73674343 -125.25 89.875 C-125.765625 89.18535156 -126.28125 88.49570312 -126.8125 87.78515625 C-134.05137971 78.02759417 -134.05137971 78.02759417 -133.90356445 75.07128906 C-132.55717884 71.98489741 -130.54206737 71.2137897 -127.62109375 69.6015625 C-126.48462402 68.96468506 -125.3481543 68.32780762 -124.17724609 67.67163086 C-122.93068554 66.98938133 -121.68410295 66.30717207 -120.4375 65.625 C-119.15622669 64.91108691 -117.87579878 64.19565457 -116.59619141 63.47875977 C-114.6365385 62.38117901 -112.67638727 61.28461495 -110.71350098 60.19282532 C-104.71807699 56.85773297 -98.79027698 53.41264417 -92.875 49.9375 C-79.19034226 41.92832849 -65.44897011 34.01823471 -51.70898438 26.10449219 C-49.51872244 24.84278159 -47.32869933 23.58065632 -45.13891602 22.31811523 C-42.97900065 21.07360719 -40.81804478 19.8309031 -38.65600586 18.59008789 C-33.13886799 15.4175761 -27.6540397 12.20182295 -22.20703125 8.91015625 C-20.56468506 7.92607788 -20.56468506 7.92607788 -18.88916016 6.92211914 C-16.80206611 5.66913062 -14.72189726 4.40451135 -12.64990234 3.12670898 C-11.71742676 2.56927002 -10.78495117 2.01183105 -9.82421875 1.4375 C-9.01041748 0.94121094 -8.19661621 0.44492187 -7.3581543 -0.06640625 C-4.36212731 -1.25253392 -3.04320704 -1.00567756 0 0 Z " fill="#004482" transform="translate(459,514)"/>
<path d="M0 0 C11.22 0 22.44 0 34 0 C34 11.22 34 22.44 34 34 C45.22 34 56.44 34 68 34 C68 45.22 68 56.44 68 68 C56.78 68 45.56 68 34 68 C34 78.89 34 89.78 34 101 C22.78 101 11.56 101 0 101 C0 89.78 0 78.56 0 67 C-10.89 67 -21.78 67 -33 67 C-33 56.11 -33 45.22 -33 34 C-22.11 34 -11.22 34 0 34 C0 22.78 0 11.56 0 0 Z " fill="#FCFDFE" transform="translate(818,462)"/>
<path d="M0 0 C10.89 0 21.78 0 33 0 C33 11.22 33 22.44 33 34 C44.22 34 55.44 34 67 34 C67 44.89 67 55.78 67 67 C55.78 67 44.56 67 33 67 C33 78.22 33 89.44 33 101 C22.11 101 11.22 101 0 101 C0 89.78 0 78.56 0 67 C-11.22 67 -22.44 67 -34 67 C-34 56.11 -34 45.22 -34 34 C-22.78 34 -11.56 34 0 34 C0 22.78 0 11.56 0 0 Z " fill="#FFFFFF" transform="translate(692,462)"/>
</svg>
