<?xml version="1.0" encoding="UTF-8"?>
<svg version="1.1" xmlns="http://www.w3.org/2000/svg" width="512" height="512">
<path d="M0 0 C1.45108658 0.00273422 1.45108658 0.00273422 2.93148804 0.00552368 C17.26440977 0.05095174 31.21023917 0.55983928 45.3125 3.3125 C46.65803955 3.55395752 46.65803955 3.55395752 48.03076172 3.80029297 C107.84088904 14.62287989 165.35495829 48.68064457 202.3125 97.3125 C202.72918945 97.85277832 203.14587891 98.39305664 203.57519531 98.94970703 C211.2584873 108.9447116 218.00092968 119.40459036 224.3125 130.3125 C224.70679199 130.98974121 225.10108398 131.66698242 225.50732422 132.36474609 C238.68961173 155.2833756 247.29510918 180.85822563 252.625 206.6875 C252.77243652 207.39817627 252.91987305 208.10885254 253.07177734 208.84106445 C256.05713787 224.48358366 256.6873098 240.11919606 256.625 256 C256.62226578 257.45108658 256.62226578 257.45108658 256.61947632 258.93148804 C256.57404826 273.26440977 256.06516072 287.21023917 253.3125 301.3125 C253.15152832 302.20952637 252.99055664 303.10655273 252.82470703 304.03076172 C242.00212011 363.84088904 207.94435543 421.35495829 159.3125 458.3125 C158.77222168 458.72918945 158.23194336 459.14587891 157.67529297 459.57519531 C147.6802884 467.2584873 137.22040964 474.00092968 126.3125 480.3125 C125.63525879 480.70679199 124.95801758 481.10108398 124.26025391 481.50732422 C101.3416244 494.68961173 75.76677437 503.29510918 49.9375 508.625 C49.22682373 508.77243652 48.51614746 508.91987305 47.78393555 509.07177734 C32.14141634 512.05713787 16.50580394 512.6873098 0.625 512.625 C-0.34239105 512.62317719 -1.3097821 512.62135437 -2.30648804 512.61947632 C-16.63940977 512.57404826 -30.58523917 512.06516072 -44.6875 509.3125 C-45.58452637 509.15152832 -46.48155273 508.99055664 -47.40576172 508.82470703 C-107.21588904 498.00212011 -164.72995829 463.94435543 -201.6875 415.3125 C-202.10418945 414.77222168 -202.52087891 414.23194336 -202.95019531 413.67529297 C-210.6334873 403.6802884 -217.37592968 393.22040964 -223.6875 382.3125 C-224.08179199 381.63525879 -224.47608398 380.95801758 -224.88232422 380.26025391 C-238.06461173 357.3416244 -246.67010918 331.76677437 -252 305.9375 C-252.14743652 305.22682373 -252.29487305 304.51614746 -252.44677734 303.78393555 C-255.43213787 288.14141634 -256.0623098 272.50580394 -256 256.625 C-255.99817719 255.65760895 -255.99635437 254.6902179 -255.99447632 253.69351196 C-255.94904826 239.36059023 -255.44016072 225.41476083 -252.6875 211.3125 C-252.44604248 209.96696045 -252.44604248 209.96696045 -252.19970703 208.59423828 C-241.37712011 148.78411096 -207.31935543 91.27004171 -158.6875 54.3125 C-158.14722168 53.89581055 -157.60694336 53.47912109 -157.05029297 53.04980469 C-147.0552884 45.3665127 -136.59540964 38.62407032 -125.6875 32.3125 C-125.01025879 31.91820801 -124.33301758 31.52391602 -123.63525391 31.11767578 C-100.7166244 17.93538827 -75.14177437 9.32989082 -49.3125 4 C-48.60182373 3.85256348 -47.89114746 3.70512695 -47.15893555 3.55322266 C-31.51641634 0.56786213 -15.88080394 -0.0623098 0 0 Z " fill="#273B79" transform="translate(255.6875,-0.3125)"/>
<path d="M0 0 C1.34903334 -0.11015396 2.69799006 -0.2212497 4.046875 -0.33320618 C16.5459854 -1.32767293 29.07929531 -1.8615685 41.60919571 -2.28715611 C49.98670252 -2.57825449 58.31346444 -2.99139045 66.66210938 -3.7578125 C102.5144581 -6.97148096 132.7032543 -4.34067161 161.65217954 18.95162052 C188.15804792 41.14433638 205.41796103 65.79645132 208.62018013 100.70840549 C210.22681841 122.10893094 209.15146503 143.57002984 207.76555359 164.95016009 C207.01935442 176.7086472 206.71938489 188.46836381 206.433097 200.24547911 C205.99531099 217.59836338 205.41617471 234.95077789 204.39444923 252.27992249 C204.28748294 254.12741485 204.18782797 255.97534774 204.09614944 257.8236618 C203.25109454 274.48864703 203.25109454 274.48864703 199.30441189 280.15845108 C193.7174155 284.99429746 189.23419559 286.23846362 182.05238342 286.16139221 C181.21900229 286.16833774 180.38562117 286.17528327 179.52698606 286.18243927 C176.74793922 286.20066498 173.96975033 286.19045745 171.19067383 286.18017578 C169.19278832 286.18723649 167.19490817 286.19598215 165.19703674 286.20628357 C159.77964372 286.22877011 154.36254295 286.22583947 148.94512105 286.2169621 C144.419721 286.21184913 139.89437571 286.2191473 135.3689813 286.22643417 C124.69198369 286.24343087 114.015129 286.23986959 103.33813477 286.22314453 C92.32887171 286.20622183 81.32000511 286.22206051 70.31078535 286.25436741 C60.85239355 286.28107025 51.39412511 286.28833745 41.9356994 286.27985233 C36.28931437 286.27492538 30.64316788 286.27712649 24.99681282 286.29763985 C19.68689612 286.31600776 14.37754935 286.31002428 9.06766319 286.28544044 C7.12143869 286.28043619 5.17517067 286.28391226 3.22898102 286.2965889 C0.56684263 286.31255423 -2.09342687 286.29753671 -4.75547791 286.2749176 C-5.52115379 286.28675333 -6.28682967 286.29858906 -7.07570785 286.31078345 C-12.87293062 286.21107297 -16.95109118 284.34954819 -21.41503906 280.64672852 C-26.89398024 273.97127316 -25.95281785 265.49782203 -25.86914062 257.32641602 C-25.86801099 255.77845794 -25.86864827 254.23049773 -25.87091064 252.68254089 C-25.8720542 248.49907388 -25.84860342 244.31606941 -25.82061481 240.1327095 C-25.79554107 235.7538617 -25.79325446 231.37500227 -25.78851318 226.99609375 C-25.77610091 218.71246361 -25.74330308 210.42904565 -25.70311522 202.14550877 C-25.65834298 192.7114336 -25.63639678 183.27734808 -25.61633348 173.84319305 C-25.57456882 154.44425143 -25.5042509 135.04550706 -25.41503906 115.64672852 C-26.05006348 115.6729126 -26.68508789 115.69909668 -27.33935547 115.72607422 C-30.23932784 115.83053246 -33.13890376 115.89520598 -36.04003906 115.95922852 C-37.0390625 116.00112305 -38.03808594 116.04301758 -39.06738281 116.08618164 C-47.41683906 116.22441767 -47.41683906 116.22441767 -51.07943726 113.43409729 C-53.53227591 110.50681497 -54.16533436 109.47032331 -54.15966797 105.73632812 C-54.17212555 104.78862045 -54.18458313 103.84091278 -54.19741821 102.86448669 C-54.17899872 101.85289993 -54.16057922 100.84131317 -54.14160156 99.79907227 C-54.14309708 98.22579918 -54.14309708 98.22579918 -54.1446228 96.6207428 C-54.13994942 94.40756638 -54.12053924 92.19437858 -54.08740234 89.98144531 C-54.04015041 86.59221537 -54.04629079 83.20612671 -54.05957031 79.81665039 C-54.04841807 77.66493891 -54.03419912 75.51324068 -54.01660156 73.36157227 C-54.01842438 72.34796127 -54.02024719 71.33435028 -54.02212524 70.2900238 C-53.88267678 63.3808425 -53.88267678 63.3808425 -51.72998047 60.00146484 C-48.85917943 58.32143163 -47.09182061 58.1855204 -43.77441406 58.25610352 C-42.70449219 58.26899414 -41.63457031 58.28188477 -40.53222656 58.29516602 C-39.42105469 58.32868164 -38.30988281 58.36219727 -37.16503906 58.39672852 C-35.47507813 58.42379883 -35.47507813 58.42379883 -33.75097656 58.45141602 C-30.9714701 58.49852629 -28.19368567 58.56429491 -25.41503906 58.64672852 C-25.43598633 57.35573242 -25.45693359 56.06473633 -25.47851562 54.73461914 C-25.55122552 49.91897793 -25.59695131 45.10338471 -25.63476562 40.28735352 C-25.65481066 38.20784327 -25.68205419 36.12838889 -25.71679688 34.04907227 C-25.76562854 31.05023364 -25.78807934 28.05214389 -25.80566406 25.05297852 C-25.8263092 24.13182251 -25.84695435 23.2106665 -25.8682251 22.26159668 C-25.87030734 16.19450746 -25.08885933 11.57671491 -21.41503906 6.64672852 C-15.22098163 0.96872466 -8.0538926 0.5732731 0 0 Z " fill="#CFD0D2" transform="translate(167.4150390625,112.353271484375)"/>
<path d="M0 0 C6.88951277 5.65938196 13.13564276 11.95050768 19.45288086 18.22827148 C20.70497276 19.46917214 21.95722522 20.70991081 23.20962524 21.95050049 C27.29874999 26.00329221 31.38241291 30.06156048 35.46484375 34.12109375 C36.16053443 34.81283857 36.85622511 35.50458338 37.57299733 36.21729016 C44.13570962 42.74363083 50.69595033 49.27244867 57.25115108 55.8063345 C65.62468111 64.1522271 74.00965671 72.48625299 82.4102239 80.80493301 C88.32483946 86.66383575 94.22605933 92.53601946 100.11750704 98.41821724 C103.63437003 101.92881744 107.15694111 105.43321342 110.69407463 108.92339897 C114.01640228 112.20216135 117.32187267 115.49701159 120.61507034 118.80502319 C121.82642991 120.01605338 123.0438075 121.22109798 124.26753044 122.41963387 C125.93690068 124.05643666 127.58328213 125.71339191 129.22569275 127.37718201 C130.15314269 128.29947822 131.08059263 129.22177443 132.03614712 130.172019 C134.49686655 133.71549614 134.43097531 135.76885537 134 140 C133.34838867 142.89233398 133.34838867 142.89233398 132.41796875 145.74609375 C131.89420654 147.35484375 131.89420654 147.35484375 131.35986328 148.99609375 C130.9729834 150.13175781 130.58610352 151.26742187 130.1875 152.4375 C129.58397705 154.22027344 129.58397705 154.22027344 128.96826172 156.0390625 C113.10287731 201.71195497 83.70748678 244.58443392 45 274 C44.45972168 274.41668945 43.91944336 274.83337891 43.36279297 275.26269531 C33.3677884 282.9459873 22.90790964 289.68842968 12 296 C11.32275879 296.39429199 10.64551758 296.78858398 9.94775391 297.19482422 C-17.157168 312.7849743 -48.61123051 323.02070253 -79.6654644 326.67843246 C-81.24312265 326.89574493 -82.8145845 327.16293168 -84.37620735 327.47528458 C-92.68774194 329.08186086 -100.69233442 329.56778839 -108.18464279 325.10164261 C-116.2531988 319.18578741 -123.09041262 311.65087718 -129.94811893 304.41687322 C-132.98386419 301.23973564 -136.08577801 298.12848325 -139.18067932 295.00914001 C-145.01455662 289.10929036 -150.78699725 283.15299429 -156.53928858 277.17369121 C-163.09615085 270.36443223 -169.72269176 263.62472752 -176.35429657 256.88837254 C-186.110302 246.97411859 -195.84012836 237.03441884 -205.50378609 227.03006935 C-206.54954573 225.94768071 -207.59610376 224.8660628 -208.64349365 223.78525162 C-210.0658455 222.31672902 -211.4844477 220.84457735 -212.90281677 219.37220764 C-214.0968973 218.13470056 -214.0968973 218.13470056 -215.31510067 216.87219334 C-217 215 -217 215 -217 214 C-215.42490614 213.99780016 -215.42490614 213.99780016 -213.81799221 213.99555588 C-188.27079562 213.95896523 -162.72373017 213.89952128 -137.17664242 213.81609726 C-124.82226785 213.77628344 -112.4679572 213.74390281 -100.11352539 213.72900391 C-89.34573548 213.71599958 -78.57808606 213.68906597 -67.81037527 213.64538693 C-62.10863354 213.62274485 -56.40706527 213.60709098 -50.70527458 213.60811615 C-45.33803856 213.60886113 -39.9711864 213.59097528 -34.60404968 213.55883217 C-32.63485019 213.55031696 -30.66560772 213.54859421 -28.69639778 213.55419731 C-26.00527484 213.56083426 -23.31537428 213.54292411 -20.62437439 213.51898193 C-19.84711988 213.52674235 -19.06986537 213.53450277 -18.26905769 213.54249835 C-13.02543399 213.46004767 -9.0441308 212.47168822 -5 209 C-0.94249562 204.25938213 -0.41972451 199.5362571 -0.48101807 193.48951721 C-0.47351681 192.65865866 -0.46601556 191.82780011 -0.458287 190.97176403 C-0.43806849 188.20170323 -0.44610093 185.43246553 -0.45410156 182.66235352 C-0.44536338 180.67119032 -0.43487674 178.68003414 -0.42277527 176.68888855 C-0.39492487 171.29272502 -0.39151038 165.89679073 -0.39249516 160.50056577 C-0.38936526 154.85774179 -0.36374539 149.21502094 -0.34051514 143.57225037 C-0.29995764 132.89102911 -0.27961497 122.20986891 -0.26654124 111.52858251 C-0.25067039 99.36656535 -0.21225436 87.20465207 -0.17194796 75.04269516 C-0.08955238 50.02849831 -0.03545809 25.01430432 0 0 Z " fill="#121149" transform="translate(370,184)"/>
<path d="M0 0 C0.33 0 0.66 0 1 0 C1.60650164 13.32928312 2.01837096 26.65883755 2.25 40 C2.26697308 40.97547287 2.28394615 41.95094574 2.30143356 42.95597839 C2.77788401 74.0220106 1.18439138 99.77267051 -19 125 C-19.33 125.33 -19.66 125.66 -20 126 C-20.2500773 128.45809998 -20.2500773 128.45809998 -20 131 C-19.34 131.66 -18.68 132.32 -18 133 C-14.99445272 133.05966328 -14.99445272 133.05966328 -12 132 C-10.21563163 129.89253198 -10.21563163 129.89253198 -9.078125 127.125 C-8.61019531 126.14015625 -8.14226562 125.1553125 -7.66015625 124.140625 C-7.19480469 123.10421875 -6.72945313 122.0678125 -6.25 121 C-5.30175521 118.95606217 -4.34886813 116.91426951 -3.390625 114.875 C-2.97844727 113.96492188 -2.56626953 113.05484375 -2.14160156 112.1171875 C-1 110 -1 110 1 109 C1 130.78 1 152.56 1 175 C-24.13485385 175.20054405 -24.13485385 175.20054405 -34.8671875 175.24414062 C-42.18410419 175.27400425 -49.50070737 175.30929394 -56.81738281 175.37719727 C-62.71776256 175.43161242 -68.617806 175.461441 -74.51841736 175.47438622 C-76.76705721 175.4836089 -79.01567913 175.50161882 -81.26417542 175.52865028 C-84.41935683 175.56506574 -87.57315712 175.56993996 -90.72851562 175.56762695 C-91.65352875 175.58560333 -92.57854187 175.60357971 -93.53158569 175.62210083 C-99.82712467 175.57232032 -104.31455569 174.35361231 -109 170 C-114.61335641 163.53722742 -113.53634448 154.71102767 -113.45410156 146.6796875 C-113.45297193 145.13172943 -113.45360921 143.58376921 -113.45587158 142.03581238 C-113.45701514 137.85234537 -113.43356436 133.66934089 -113.40557575 129.48598099 C-113.38050201 125.10713318 -113.3782154 120.72827375 -113.37347412 116.34936523 C-113.36106185 108.06573509 -113.32826402 99.78231713 -113.28807616 91.49878025 C-113.24330391 82.06470508 -113.22135772 72.63061957 -113.20129442 63.19646454 C-113.15952975 43.79752292 -113.08921184 24.39877854 -113 5 C-112.17973941 4.99641747 -112.17973941 4.99641747 -111.34290791 4.99276257 C-98.03043166 4.93359872 -84.71813847 4.85785137 -71.40585804 4.76428509 C-64.9680945 4.71953784 -58.53039488 4.68029113 -52.0925293 4.65356445 C-45.88084081 4.62757521 -39.66939775 4.58720342 -33.45786095 4.53681374 C-31.08680967 4.52011545 -28.71571591 4.50861967 -26.34461403 4.50238609 C-23.02611116 4.49277747 -19.70824042 4.46475591 -16.38989258 4.43237305 C-15.40733994 4.43380814 -14.42478729 4.43524323 -13.41246033 4.4367218 C-7.97031435 4.36150648 -4.04896938 4.04896938 0 0 Z " fill="#FEFEFE" transform="translate(255,223)"/>
<path d="M0 0 C1.67603302 -0.01908669 1.67603302 -0.01908669 3.38592529 -0.03855896 C4.60733719 -0.03203308 5.82874908 -0.0255072 7.08717346 -0.01878357 C8.37695099 -0.02739914 9.66672852 -0.03601471 10.99559021 -0.04489136 C14.53083467 -0.06739418 18.06563163 -0.0644437 21.60092044 -0.05556989 C24.55325072 -0.05045953 27.50549694 -0.05775297 30.45781857 -0.06504196 C37.42337489 -0.08204402 44.38871216 -0.07847247 51.35426331 -0.06175232 C58.5378708 -0.04483159 65.72087062 -0.06066356 72.90441173 -0.0929752 C79.07441656 -0.11967549 85.24423227 -0.12694596 91.41428906 -0.11846012 C95.09832529 -0.11353193 98.78199593 -0.11573997 102.46598625 -0.13624763 C106.57447588 -0.15802339 110.6818143 -0.13920155 114.79029846 -0.11643982 C116.00968613 -0.12813202 117.22907379 -0.13982422 118.4854126 -0.15187073 C126.67107309 -0.05940213 126.67107309 -0.05940213 130.75856018 2.75967407 C132.5470274 5.58349478 133.13053199 6.93188957 133.13453674 10.2256012 C133.14706985 11.13003967 133.15960297 12.03447815 133.17251587 12.96632385 C133.15925766 13.931026 133.14599945 14.89572815 133.13233948 15.8896637 C133.13475143 16.89174866 133.13716339 17.89383362 133.13964844 18.92628479 C133.13867067 21.04107121 133.12529384 23.15588345 133.10035706 25.27052307 C133.06604817 28.50383121 133.0797026 31.73440569 133.09913635 34.9677887 C133.09223769 37.02509197 133.08256513 39.08238821 133.06983948 41.1396637 C133.07479935 42.10436584 133.07975922 43.06906799 133.08486938 44.06300354 C133.00978047 48.35145224 132.89486509 50.86098438 130.65553284 54.6006012 C127.32648129 57.56143661 124.57078405 57.64318176 120.28570557 57.66856384 C119.20482666 57.67716431 118.12394775 57.68576477 117.01031494 57.69462585 C115.23126518 57.70101578 115.23126518 57.70101578 113.41627502 57.70753479 C112.1672641 57.71571228 110.91825317 57.72388977 109.63139343 57.73231506 C105.48848287 57.75717567 101.34560878 57.77383827 97.20265198 57.7881012 C95.77541917 57.793462 94.34818643 57.79883952 92.92095375 57.80423355 C86.98377069 57.82585649 81.04659032 57.844593 75.10937786 57.85585594 C66.60538072 57.87209541 58.10184042 57.90527914 49.59801549 57.96225679 C43.61574508 58.00097104 37.63359679 58.02049028 31.65120441 58.02577651 C28.07939241 58.02942769 24.50806804 58.04142308 20.93639183 58.07387924 C16.9503835 58.10958237 12.96494771 58.10558515 8.97877502 58.09815979 C7.79881454 58.11456512 6.61885406 58.13097046 5.40313721 58.14787292 C-3.52198912 58.07971825 -3.52198912 58.07971825 -7.22973633 55.28509521 C-9.61412378 52.37099012 -10.2467933 51.29294218 -10.24119568 47.60426331 C-10.25365326 46.65655563 -10.26611084 45.70884796 -10.27894592 44.73242188 C-10.26052643 43.72083511 -10.24210693 42.70924835 -10.22312927 41.66700745 C-10.22462479 40.09373436 -10.22462479 40.09373436 -10.22615051 38.48867798 C-10.22147713 36.27550156 -10.20206695 34.06231376 -10.16893005 31.84938049 C-10.12167812 28.46015055 -10.1278185 25.07406189 -10.14109802 21.68458557 C-10.12994578 19.53287409 -10.11572683 17.38117586 -10.09812927 15.22950745 C-10.09995209 14.21589645 -10.1017749 13.20228546 -10.10365295 12.15795898 C-10.08458893 11.21340347 -10.0655249 10.26884796 -10.04588318 9.29566956 C-10.032061 8.0525425 -10.032061 8.0525425 -10.01795959 6.78430176 C-8.78220332 1.40501889 -5.09522427 0.01473501 0 0 Z " fill="#FE571D" transform="translate(123.49656677246094,170.48533630371094)"/>
<path d="M0 0 C0.99603241 -0.00073013 1.99206482 -0.00146027 3.01828003 -0.00221252 C6.2868432 0.00125084 9.55395363 0.040054 12.82226562 0.0793457 C15.09768902 0.08867824 17.37312251 0.09579227 19.64855957 0.1007843 C25.61971065 0.1198191 31.59024772 0.16889042 37.56115723 0.2243042 C44.73476474 0.28459564 51.90857825 0.30742958 59.08236694 0.33657074 C69.96484274 0.38495658 80.84597293 0.48079816 91.72851562 0.56762695 C91.72851562 20.69762695 91.72851562 40.82762695 91.72851562 61.56762695 C90.07851562 60.57762695 88.42851562 59.58762695 86.72851562 58.56762695 C84.40432913 58.1190159 84.40432913 58.1190159 81.98918152 58.16889954 C80.60315735 58.15009232 80.60315735 58.15009232 79.18913269 58.13090515 C78.18787857 58.13234024 77.18662445 58.13377533 76.1550293 58.13525391 C75.09115997 58.12506226 74.02729065 58.11487061 72.93118286 58.10437012 C69.41956334 58.0742092 65.90821648 58.06496918 62.39648438 58.0559082 C59.95981436 58.03906387 57.52315305 58.02091396 55.08650208 58.00151062 C48.67667357 57.95397816 42.26688036 57.92418958 35.85693359 57.89807129 C29.31470776 57.86828232 22.77260353 57.82174622 16.23046875 57.77661133 C3.39655046 57.69054115 -9.43739733 57.62264347 -22.27148438 57.56762695 C-22.37078127 51.44788277 -22.44315534 45.32861343 -22.49121094 39.20825195 C-22.51125597 37.1287417 -22.53849951 35.04928733 -22.57324219 32.9699707 C-22.62207385 29.97113208 -22.64452465 26.97304233 -22.66210938 23.97387695 C-22.68275452 23.05272095 -22.70339966 22.13156494 -22.72467041 21.18249512 C-22.72672128 15.20681445 -22.03698326 10.37137644 -18.27148438 5.56762695 C-12.77703223 0.4004328 -7.27320349 -0.14134488 0 0 Z " fill="#FEFDFD" transform="translate(164.271484375,113.432373046875)"/>
<path d="M0 0 C4.70278169 3.92982116 9.16132826 8.01614823 13.48608398 12.35668945 C14.09182755 12.96068069 14.69757111 13.56467194 15.32167053 14.18696594 C17.29898059 16.15991716 19.27266097 18.13645239 21.24609375 20.11328125 C22.62599837 21.49251164 24.00605136 22.87159361 25.38624573 24.25053406 C28.26490235 27.12772227 31.14175679 30.00669707 34.01733398 32.88696289 C37.71186782 36.58722579 41.41091624 40.28293806 45.11129665 43.9773531 C47.95511622 46.81757131 50.79656489 49.66015177 53.63728523 52.50346947 C55.00137906 53.86823209 56.36622081 55.23224756 57.73180962 56.5955143 C59.63018802 58.49136971 61.52535969 60.39037193 63.41967773 62.2902832 C63.98842621 62.85700745 64.55717468 63.42373169 65.14315796 64.00762939 C69 67.88573108 69 67.88573108 69 69 C61.70646855 69.11629525 54.41313981 69.20491653 47.11886597 69.25906086 C43.73108976 69.28505932 40.34395188 69.32027378 36.95654297 69.37719727 C33.05419258 69.43805961 29.15273953 69.46626048 25.25 69.48828125 C23.44172729 69.52699089 23.44172729 69.52699089 21.59692383 69.56648254 C14.41693076 69.5688599 9.51025557 68.80235664 4 64 C0.40802358 60.06041295 -0.12505166 56.64839992 -0.11352539 51.42700195 C-0.11344986 50.28604568 -0.11337433 49.14508942 -0.11329651 47.96955872 C-0.10813522 46.73823715 -0.10297394 45.50691559 -0.09765625 44.23828125 C-0.0962413 42.97735153 -0.09482635 41.71642181 -0.09336853 40.4172821 C-0.08871575 37.06848291 -0.07973342 33.71975189 -0.06866455 30.37097168 C-0.05842687 26.95239857 -0.05386586 23.53381841 -0.04882812 20.11523438 C-0.03779099 13.41013739 -0.02104686 6.70507263 0 0 Z " fill="#A5A7AA" transform="translate(301,114)"/>
<path d="M0 0 C1.875 1.125 1.875 1.125 3 3 C2.85705139 8.71896912 0.15574065 11.51300233 -3.78515625 15.2734375 C-4.36083847 15.84204498 -4.93652069 16.41065247 -5.52964783 16.99649048 C-7.36248852 18.80144859 -9.21197084 20.58819926 -11.0625 22.375 C-12.31168779 23.5990972 -13.55974832 24.8243459 -14.80664062 26.05078125 C-17.85819708 29.04734981 -20.92479494 32.02771345 -24 35 C-20.5585802 39.19476543 -16.97229405 43.07095637 -13.07421875 46.84765625 C-12.19572266 47.70037109 -11.31722656 48.55308594 -10.41210938 49.43164062 C-8.5836274 51.19720709 -6.7475597 52.95494858 -4.90429688 54.70507812 C-4.03224609 55.55650391 -3.16019531 56.40792969 -2.26171875 57.28515625 C-1.46725342 58.04707275 -0.67278809 58.80898926 0.14575195 59.59399414 C2.3488954 62.45271417 2.79311652 64.42484312 3 68 C1.875 69.875 1.875 69.875 0 71 C-2.85108741 71.30351687 -4.42679784 71.37691265 -6.8540802 69.78083801 C-7.4292186 69.20967758 -8.00435699 68.63851715 -8.59692383 68.05004883 C-9.25723099 67.40550247 -9.91753815 66.76095612 -10.59785461 66.09687805 C-11.2938829 65.39072861 -11.98991119 64.68457916 -12.70703125 63.95703125 C-13.43242599 63.23642014 -14.15782074 62.51580902 -14.90519714 61.77336121 C-16.43506098 60.24689887 -17.95863243 58.71410789 -19.47631836 57.17553711 C-21.80384727 54.8212522 -24.15680605 52.49479516 -26.51367188 50.16992188 C-27.9963975 48.6838922 -29.47757135 47.19631224 -30.95703125 45.70703125 C-31.66318069 45.01100296 -32.36933014 44.31497467 -33.09687805 43.59785461 C-33.74142441 42.93754745 -34.38597076 42.2772403 -35.05004883 41.59692383 C-35.62120926 41.02178543 -36.19236969 40.44664703 -36.78083801 39.8540802 C-38.41455625 37.36955011 -38.43086011 35.92113384 -38 33 C-36.78083801 31.1459198 -36.78083801 31.1459198 -35.05004883 29.40307617 C-34.40550247 28.74276901 -33.76095612 28.08246185 -33.09687805 27.40214539 C-32.39072861 26.7061171 -31.68457916 26.01008881 -30.95703125 25.29296875 C-30.23642014 24.56757401 -29.51580902 23.84217926 -28.77336121 23.09480286 C-27.24689887 21.56493902 -25.71410789 20.04136757 -24.17553711 18.52368164 C-21.8212522 16.19615273 -19.49479516 13.84319395 -17.16992188 11.48632812 C-15.6838922 10.0036025 -14.19631224 8.52242865 -12.70703125 7.04296875 C-12.01100296 6.33681931 -11.31497467 5.63066986 -10.59785461 4.90312195 C-9.93754745 4.25857559 -9.2772403 3.61402924 -8.59692383 2.94995117 C-7.73421623 2.09321053 -7.73421623 2.09321053 -6.8540802 1.21916199 C-4.42679784 -0.37691265 -2.85108741 -0.30351687 0 0 Z " fill="#FF5A21" transform="translate(224,286)"/>
<path d="M0 0 C4.82921543 1.43474399 7.47534086 4.36252901 10.97631836 7.88354492 C11.68047379 8.57817337 12.38462921 9.27280182 13.11012268 9.98847961 C14.59128434 11.45749849 16.06601576 12.93302554 17.53466797 14.41455078 C19.78870152 16.6802822 22.07289139 18.91214456 24.36108398 21.14331055 C25.79726943 22.57561206 27.23158098 24.00979553 28.66381836 25.44604492 C29.35011826 26.11190109 30.03641815 26.77775726 30.74351501 27.46379089 C35.25418635 32.08777639 35.25418635 32.08777639 35.69018555 36.01049805 C33.78496638 40.27250259 30.98937742 43.07783065 27.68725586 46.32885742 C26.67860725 47.34468147 26.67860725 47.34468147 25.64958191 48.38102722 C24.22744572 49.80655917 22.79900238 51.22582312 21.36474609 52.63916016 C19.17513922 54.8020022 17.01346906 56.99020169 14.85327148 59.18237305 C13.4661999 60.56614048 12.07757804 61.94835602 10.68725586 63.32885742 C10.04327347 63.98296097 9.39929108 64.63706451 8.73579407 65.31098938 C5.12290108 68.8315881 2.66188794 70.96325509 -2.64477539 70.99682617 C-4.58227539 69.93432617 -4.58227539 69.93432617 -5.64477539 67.99682617 C-5.49382274 62.27699989 -2.80288084 59.48608035 1.14038086 55.72338867 C1.71606308 55.15478119 2.2917453 54.58617371 2.88487244 54.00033569 C4.71771313 52.19537758 6.56719544 50.40862691 8.41772461 48.62182617 C9.6669124 47.39772897 10.91497293 46.17248027 12.16186523 44.94604492 C15.21342169 41.94947636 18.28001955 38.96911272 21.35522461 35.99682617 C17.91380481 31.80206074 14.32751866 27.9258698 10.42944336 24.14916992 C9.55094727 23.29645508 8.67245117 22.44374023 7.76733398 21.56518555 C5.93885201 19.79961908 4.10278431 18.0418776 2.25952148 16.29174805 C1.3874707 15.44032227 0.51541992 14.58889648 -0.38305664 13.71166992 C-1.17752197 12.94975342 -1.9719873 12.18783691 -2.79052734 11.40283203 C-4.99398931 8.5436987 -5.43324721 6.5718068 -5.64477539 2.99682617 C-4.10083951 0.18141368 -3.19107863 -0.00382941 0 0 Z " fill="#C93407" transform="translate(290.644775390625,286.003173828125)"/>
<path d="M0 0 C2.5 0.375 2.5 0.375 4.375 1.5 C6.07916686 4.34027811 5.22525623 6.2005698 4.5 9.375 C3.63482829 11.46002994 2.68725932 13.51191602 1.68017578 15.53222656 C1.24827438 16.40654327 1.24827438 16.40654327 0.80764771 17.29852295 C-0.13849926 19.20830549 -1.09611985 21.11205022 -2.0546875 23.015625 C-2.7191466 24.34723982 -3.38313065 25.67909177 -4.04666138 27.01116943 C-5.43526429 29.79425722 -6.82958348 32.57438377 -8.22802734 35.35253906 C-10.02005165 38.91374635 -11.79755652 42.48197316 -13.57087517 46.05252457 C-14.93769265 48.80060674 -16.312102 51.54483591 -17.68884659 54.28795624 C-18.34745306 55.60250171 -19.00368639 56.91823894 -19.65749741 58.23517609 C-20.57110831 60.07255072 -21.49481248 61.90448774 -22.42138672 63.73535156 C-22.94465546 64.77870667 -23.46792419 65.82206177 -24.00704956 66.89703369 C-25.5 69.375 -25.5 69.375 -28.5 71.375 C-31.82240324 71.0508631 -33.10776303 70.76723697 -35.5 68.375 C-36.47072604 63.21381302 -33.60850912 59.28103556 -31.1875 54.9375 C-30.26357068 53.23157977 -29.34177783 51.52450109 -28.421875 49.81640625 C-27.94041016 48.9258252 -27.45894531 48.03524414 -26.96289062 47.11767578 C-24.540927 42.57689818 -22.2346574 37.97988018 -19.9375 33.375 C-19.48141357 32.46331055 -19.02532715 31.55162109 -18.55541992 30.61230469 C-16.28683494 26.05333305 -14.06451043 21.47740245 -11.91015625 16.86328125 C-11.50289307 15.99123047 -11.09562988 15.11917969 -10.67602539 14.22070312 C-9.91215171 12.57529036 -9.15445987 10.92698842 -8.40405273 9.27539062 C-8.06446533 8.54126953 -7.72487793 7.80714844 -7.375 7.05078125 C-7.08367187 6.41052002 -6.79234375 5.77025879 -6.4921875 5.1105957 C-4.7817337 2.1185642 -3.46322461 0.51948369 0 0 Z " fill="#FE571E" transform="translate(269.5,285.625)"/>
<path d="M0 0 C2.97 0 5.94 0 9 0 C9.67218507 2.74875682 10.33792435 5.49880726 11 8.25 C11.19078125 9.02730469 11.3815625 9.80460938 11.578125 10.60546875 C11.75859375 11.35957031 11.9390625 12.11367187 12.125 12.890625 C12.29257813 13.58188477 12.46015625 14.27314453 12.6328125 14.98535156 C13 17 13 17 13 21 C13.66 21 14.32 21 15 21 C15.12375 19.700625 15.2475 18.40125 15.375 17.0625 C16.62881098 5.74237805 16.62881098 5.74237805 19 1 C21.64 1 24.28 1 27 1 C27 9.91 27 18.82 27 28 C25.35 28 23.7 28 22 28 C21.67 22.06 21.34 16.12 21 10 C19.68 15.94 18.36 21.88 17 28 C15.02 28 13.04 28 11 28 C9.42295856 22.70564659 8.16327459 17.40091774 7 12 C6.67 17.28 6.34 22.56 6 28 C4.02 28 2.04 28 0 28 C0 18.76 0 9.52 0 0 Z " fill="#FFF4F0" transform="translate(185,183)"/>
<path d="M0 0 C2.5625 0.3125 2.5625 0.3125 4.4375 1.4375 C6.15741505 4.30402508 5.3199183 6.09925987 4.5625 9.3125 C3.45151298 11.89395732 2.30563075 14.36449054 1.03515625 16.86328125 C0.68617783 17.56269333 0.3371994 18.26210541 -0.02235413 18.98271179 C-0.75737818 20.45110765 -1.49633677 21.91753995 -2.23901367 23.38208008 C-3.37772378 25.6303779 -4.50117329 27.88584006 -5.62304688 30.14257812 C-6.34025444 31.57076049 -7.05832322 32.99851076 -7.77734375 34.42578125 C-8.11386459 35.10175858 -8.45038544 35.7777359 -8.79710388 36.47419739 C-11.206796 41.197148 -11.206796 41.197148 -13.4375 42.3125 C-14.6570256 26.58791604 -13.5708503 15.41902255 -4.4375 2.3125 C-2.4375 0.3125 -2.4375 0.3125 0 0 Z " fill="#CA3204" transform="translate(269.4375,285.6875)"/>
<path d="M0 0 C1.98 0 3.96 0 6 0 C6 3.63 6 7.26 6 11 C9.63 11 13.26 11 17 11 C17 7.7 17 4.4 17 1 C18.65 1 20.3 1 22 1 C22 9.91 22 18.82 22 28 C20.35 28 18.7 28 17 28 C17 24.04 17 20.08 17 16 C13.37 16 9.74 16 6 16 C6 19.96 6 23.92 6 28 C4.02 28 2.04 28 0 28 C0 18.76 0 9.52 0 0 Z " fill="#FFF9F8" transform="translate(134,183)"/>
<path d="M0 0 C7.92 0.33 15.84 0.66 24 1 C24 10.9 24 20.8 24 31 C20.47593075 27.47593075 17.70121265 24.44555874 14.8125 20.5 C10.9811487 15.30768048 7.0751652 10.18378538 3.09887695 5.1015625 C0 1.10857728 0 1.10857728 0 0 Z " fill="#121149" transform="translate(118,227)"/>
<path d="M0 0 C1.98 0 3.96 0 6 0 C6 7.59 6 15.18 6 23 C10.62 23 15.24 23 20 23 C20 24.65 20 26.3 20 28 C13.4 28 6.8 28 0 28 C0 18.76 0 9.52 0 0 Z " fill="#FFF2EE" transform="translate(218,183)"/>
<path d="M0 0 C7.26 0 14.52 0 22 0 C22 1.65 22 3.3 22 5 C19.36 5 16.72 5 14 5 C14 12.26 14 19.52 14 27 C12.02 27 10.04 27 8 27 C8 19.41 8 11.82 8 4 C5.36 4 2.72 4 0 4 C0 2.68 0 1.36 0 0 Z " fill="#FFF8F6" transform="translate(160,184)"/>
</svg>
