<?xml version="1.0" encoding="UTF-8"?>
<svg version="1.1" xmlns="http://www.w3.org/2000/svg" width="600" height="300">
<path d="M0 0 C69.96 0 139.92 0 212 0 C212 18.37880039 212 18.37880039 211.31665039 25.59277344 C211.24314645 26.43132181 211.16964251 27.26987019 211.09391117 28.13382912 C210.85183425 30.87631986 210.59982229 33.61779513 210.34765625 36.359375 C210.16971001 38.35180324 209.99239048 40.34428754 209.81564331 42.33682251 C209.33851715 47.69579111 208.85273043 53.05394198 208.36527634 58.41197968 C207.85567209 64.03021709 207.354187 69.64917928 206.85180664 75.26806641 C205.90126096 85.88575725 204.94351157 96.50278517 203.98311329 107.11958885 C202.88923113 119.21596015 201.80347158 131.31305631 200.71836281 143.41021729 C198.48788718 168.27428986 196.24731314 193.13744401 194 218 C192.73426601 218.48087239 191.46793118 218.96016342 190.20134926 219.43879795 C189.49622471 219.70587482 188.79110017 219.97295169 188.06460822 220.2481218 C185.28662949 221.25979153 182.47476452 222.06182694 179.62255859 222.83764648 C178.4270639 223.16486191 177.23156921 223.49207733 175.99984741 223.82920837 C174.72888214 224.17303055 173.45791687 224.51685272 172.1484375 224.87109375 C170.80325817 225.23801327 169.45817739 225.60529427 168.1131897 225.97291565 C164.58497414 226.93635897 161.05558509 227.89542777 157.52587891 228.85339355 C152.58326029 230.19564271 147.64223395 231.54374266 142.70108032 232.89137268 C140.07909624 233.60647899 137.45662374 234.31969802 134.83383179 235.03184509 C133.61942413 235.36221268 132.40501648 235.69258026 131.15380859 236.03295898 C129.97179871 236.35311981 128.78978882 236.67328064 127.57196045 237.00314331 C125.1252379 237.68597051 122.68691678 238.39943156 120.25665283 239.13870239 C118.43892365 239.68891556 118.43892365 239.68891556 116.58447266 240.25024414 C114.9728978 240.75292564 114.9728978 240.75292564 113.32876587 241.26576233 C106.20091184 242.83797832 100.35987646 241.87162167 93.48852539 239.90454102 C92.67941711 239.68181519 91.87030884 239.45908936 91.03668213 239.22961426 C88.38747371 238.49762158 85.74262784 237.75104968 83.09765625 237.00390625 C81.25082875 236.48983265 79.40377399 235.97657481 77.5565033 235.46409607 C73.69921843 234.39174684 69.84389199 233.31271526 65.98999023 232.22827148 C61.04033244 230.8355991 56.08742657 229.4549444 51.13320255 228.07861423 C46.4118219 226.76633155 41.69221818 225.44771162 36.97265625 224.12890625 C36.06839464 223.87689516 35.16413303 223.62488407 34.23246956 223.36523628 C31.68920966 222.65530785 29.14727408 221.94083601 26.60571289 221.22485352 C25.4657914 220.90764595 25.4657914 220.90764595 24.30284119 220.58403015 C19.11471183 219.11471183 19.11471183 219.11471183 18 218 C17.67961023 215.43705649 17.4199886 212.89074673 17.19639587 210.31871033 C17.08485832 209.0970459 17.08485832 209.0970459 16.97106749 207.85070139 C16.72108474 205.09997845 16.47763109 202.34871594 16.23413086 199.59741211 C16.05701475 197.63306911 15.87952078 195.66876014 15.70167542 193.70448303 C15.21804401 188.34865226 14.74026814 182.99231402 14.2638824 177.63583446 C13.86545017 173.16105859 13.46436066 168.68652249 13.06331831 164.21197993 C12.11603172 153.64161283 11.1736318 143.07081756 10.23413086 132.49975586 C9.26698289 121.61866014 8.29135842 110.7383482 7.3115167 99.85838884 C6.46986046 90.50918166 5.63373806 81.1594904 4.80192286 71.80940253 C4.30545306 66.22954046 3.80690777 60.64988429 3.30296135 55.07069206 C2.82793925 49.80918562 2.35988305 44.547103 1.8969326 39.2845211 C1.7268515 37.36401517 1.55441197 35.44371624 1.37929916 33.52366257 C1.13843674 30.87833106 0.90655195 28.23234543 0.67662048 25.58604431 C0.60726553 24.84736034 0.53791058 24.10867637 0.46645397 23.34760803 C-0.19588232 15.50761142 0 7.96851753 0 0 Z " fill="#E44C25" transform="translate(60,58)"/>
<path d="M0 0 C69.96 0 139.92 0 212 0 C212 19.52750727 212 19.52750727 211.36134338 26.19017029 C211.29262856 26.9735148 211.22391374 27.75685931 211.15311664 28.56394154 C210.9276245 31.11420344 210.69157765 33.66336119 210.45532227 36.21264648 C210.28881178 38.07076831 210.12296869 39.92895004 209.95773315 41.78718567 C209.51196959 46.77905496 209.05696559 51.77004165 208.600137 56.76090884 C208.12139631 62.00874358 207.65127414 67.25735071 207.18016052 72.50587463 C206.28789538 82.43167447 205.38786555 92.35675413 204.48503774 102.28159815 C203.4604532 113.54955634 202.44513897 124.81834407 201.43034661 136.08718765 C199.93278901 152.7131444 198.43195702 169.33880696 196.92193222 185.9636364 C196.7593326 187.75421295 196.59687935 189.54480279 196.43458748 191.33540726 C195.65867262 199.89398212 194.87660179 208.45100966 194 217 C186.62730501 219.96703884 179.04344084 222.02736979 171.38671875 224.125 C169.96710151 224.51677472 168.54757285 224.9088705 167.12812805 225.30126953 C163.40641757 226.32917846 159.68350808 227.35267613 155.96032715 228.37524414 C152.20000936 229.40888217 148.44088696 230.44684839 144.68164062 231.484375 C140.43851013 232.65491039 136.1952226 233.82487086 131.95133972 234.99267578 C131.30590619 235.17035492 130.66047266 235.34803406 129.99548054 235.53109741 C128.13777297 236.04119178 126.27902796 236.54750315 124.42025757 237.05371094 C122.24246086 237.65624603 120.06965125 238.27733551 117.90420532 238.92285156 C106.63386965 242.23349225 98.76836461 240.41951995 87.6328125 237.23828125 C86.23030516 236.84578804 84.82753876 236.45421949 83.42453003 236.06352234 C79.73653066 235.03389308 76.05211464 233.99198013 72.36834717 232.94732666 C68.67989812 231.90356231 64.98830418 230.87105602 61.296875 229.83789062 C57.02919247 228.64310662 52.76219053 227.44615003 48.49859619 226.23684692 C42.66119527 224.58193823 36.82416601 222.93687828 30.95214844 221.40771484 C30.09402557 221.18158005 29.23590271 220.95544525 28.35177612 220.72245789 C26.83758424 220.32652449 25.3207347 219.94054404 23.80081177 219.56721497 C21.87060547 219.05932617 21.87060547 219.05932617 19 218 C17.7919711 214.37591331 17.52663433 210.8382262 17.19639587 207.05801392 C17.12203751 206.23974542 17.04767914 205.42147692 16.97106749 204.57841241 C16.72194674 201.82682747 16.47804812 199.07480464 16.23413086 196.32275391 C16.05694171 194.353255 15.87944925 192.38378337 15.70167542 190.41433716 C15.21890504 185.05461877 14.74082735 179.69449144 14.2638824 174.33425188 C13.86510242 169.85663896 13.46418943 165.37921804 13.06331831 160.90179193 C12.11685687 150.32952346 11.17432559 139.75690949 10.23413086 129.18408203 C9.26564135 118.29391969 8.29027315 107.40438893 7.3115167 96.51514494 C6.47083101 87.15906447 5.63462372 77.80259087 4.80192286 68.44579637 C4.30486066 62.86108501 3.80609859 57.27653898 3.30296135 51.69237137 C2.8291432 46.43156635 2.36094653 41.17028984 1.8969326 35.9086113 C1.72639209 33.985272 1.55392157 32.06210263 1.37929916 30.13912964 C1.13970326 27.49713895 0.90734033 24.85460114 0.67662048 22.21182251 C0.57258806 21.09273512 0.57258806 21.09273512 0.46645397 19.95103991 C-0.10654676 13.23500969 0 6.82740758 0 0 Z " fill="#254CE4" transform="translate(328,59)"/>
<path d="M0 0 C44.22 0 88.44 0 134 0 C132 22 132 22 131 27 C97.67 27 64.34 27 30 27 C30.66 33.6 31.32 40.2 32 47 C32 49.31 32 51.62 32 54 C64.01 54 96.02 54 129 54 C127.66082349 70.07011813 126.25652895 86.12110279 124.67456055 102.16699219 C123.56622921 113.43794867 122.61298017 124.69016822 122 136 C120.90945312 136.30292969 119.81890625 136.60585937 118.6953125 136.91796875 C117.61600464 137.21779663 117.61600464 137.21779663 116.51489258 137.52368164 C114.90017437 137.97218698 113.28542754 138.4205893 111.6706543 138.86889648 C107.554515 140.0118044 103.43877005 141.15607471 99.32421875 142.3046875 C97.82033558 142.72404109 96.31642962 143.143313 94.8125 143.5625 C94.07604248 143.7680249 93.33958496 143.9735498 92.58081055 144.18530273 C88.91679 145.20405158 85.24909593 146.20377806 81.5703125 147.16796875 C80.87317139 147.35093506 80.17603027 147.53390137 79.45776367 147.72241211 C77.55475718 148.21937852 75.65046502 148.71141432 73.74609375 149.203125 C71.11061677 149.72870656 71.11061677 149.72870656 70 151 C65.00697812 151.40913988 60.85587466 150.21349021 56.1875 148.625 C51.25547229 147.01245595 46.40944434 145.5547729 41.3203125 144.51953125 C31.40857594 142.3002367 21.68884225 139.0257514 12 136 C10.01806375 122.01099363 9.46301724 108.12202585 9 94 C17.91 94 26.82 94 36 94 C36.66 100.93 37.32 107.86 38 115 C40.45566406 115.63228516 40.45566406 115.63228516 42.9609375 116.27734375 C45.09898881 116.83061141 47.23700799 117.38400325 49.375 117.9375 C50.45523438 118.21529297 51.53546875 118.49308594 52.6484375 118.77929688 C53.6796875 119.04677734 54.7109375 119.31425781 55.7734375 119.58984375 C56.72653809 119.83597412 57.67963867 120.08210449 58.66162109 120.33569336 C61 121 61 121 63 122 C70.59152862 121.94789942 77.85740818 119.92930769 85.125 117.9375 C88.71375 116.968125 92.3025 115.99875 96 115 C96.99 103.78 97.98 92.56 99 81 C68.64 81 38.28 81 7 81 C1 15 1 15 0 0 Z " fill="#FEFDFD" transform="translate(99,103)"/>
<path d="M0 0 C43.89 0 87.78 0 133 0 C131.87490924 16.87636133 131.87490924 16.87636133 131.36743164 22.52001953 C131.25383804 23.79249542 131.14024445 25.06497131 131.02320862 26.37600708 C130.90224325 27.7116136 130.78122439 29.04721529 130.66015625 30.3828125 C130.53172178 31.81321027 130.40342408 33.24362033 130.2752533 34.67404175 C130.00819407 37.65062797 129.74003425 40.62711204 129.47094727 43.60351562 C129.1321248 47.35140401 128.79527111 51.09946582 128.45913696 54.84759617 C127.15688634 69.36590038 125.83543013 83.88188863 124.44018555 98.39160156 C123.72310837 105.86259091 123.05040203 113.33765087 122.375 120.8125 C122.23962721 122.3066446 122.10421057 123.80078523 121.96875 125.29492188 C121.64533356 128.86323612 121.32249038 132.43160192 121 136 C111.08579567 138.84212112 101.16341423 141.65222505 91.22485352 144.40820312 C86.65237787 145.67961291 82.08613673 146.95074819 77.55859375 148.375 C76.36363281 148.74625 75.16867187 149.1175 73.9375 149.5 C72.95652344 149.8196875 71.97554688 150.139375 70.96484375 150.46875 C63.3450896 151.83408144 55.76365394 148.97442371 48.5 146.875 C47.42371338 146.56876709 46.34742676 146.26253418 45.23852539 145.94702148 C41.82339797 144.97244076 38.41129061 143.98792208 35 143 C33.8435498 142.66532715 32.68709961 142.3306543 31.49560547 141.98583984 C24.65970141 140.00426495 17.82790278 138.00896666 11 136 C10.56952889 130.98317981 10.14238595 125.96609122 9.71826172 120.94873047 C9.57365836 119.2435754 9.42816189 117.53849582 9.28173828 115.83349609 C9.07086459 113.37617203 8.86325373 110.91859023 8.65625 108.4609375 C8.59062866 107.70444916 8.52500732 106.94796082 8.45739746 106.16854858 C8.11615332 102.07619365 8 98.12024085 8 94 C16.91 94 25.82 94 35 94 C35.66 100.93 36.32 107.86 37 115 C41.01782121 116.17799993 45.03871901 117.3426882 49.0625 118.5 C50.19623047 118.83386719 51.32996094 119.16773438 52.49804688 119.51171875 C63.80158893 122.74130219 71.22265275 121.66928035 82.4375 118.5 C83.64599609 118.16613281 84.85449219 117.83226562 86.09960938 117.48828125 C89.06871271 116.66679021 92.03528292 115.83715646 95 115 C95.31783593 112.33388113 95.62923809 109.66723075 95.9375 107 C96.02451172 106.27554688 96.11152344 105.55109375 96.20117188 104.8046875 C97.10991585 96.86159205 97.49870228 89.02076346 98 81 C67.64 81 37.28 81 6 81 C4 61 4 61 4 54 C36.01 54 68.02 54 101 54 C101.66 45.09 102.32 36.18 103 27 C99.94564697 27.00523682 96.89129395 27.01047363 93.74438477 27.01586914 C83.67809933 27.03240309 73.61181331 27.04347044 63.54551792 27.05181217 C57.43943631 27.05704156 51.33336856 27.0641402 45.22729492 27.07543945 C39.33994853 27.08626637 33.45261551 27.09227642 27.56525993 27.09487724 C25.31367723 27.09673185 23.06209531 27.10035313 20.81051826 27.10573006 C17.66866573 27.11293789 14.52686917 27.11399105 11.38500977 27.11352539 C10.44418045 27.11712067 9.50335114 27.12071594 8.53401184 27.12442017 C2.11405216 27.11405216 2.11405216 27.11405216 1 26 C0.75669626 24.08961505 0.58221695 22.17037089 0.4375 20.25 C0.35371094 19.20328125 0.26992188 18.1565625 0.18359375 17.078125 C-0.07244266 11.39084808 0 5.69303727 0 0 Z " fill="#FBFCFE" transform="translate(368,103)"/>
<path d="M0 0 C28.71 0 57.42 0 87 0 C84.93233812 27.02729452 82.81904767 54.02661698 80.16175842 81.00125122 C79.32857623 89.46739906 78.55827986 97.93699498 77.82896423 106.41271973 C76.76291267 118.7934879 75.6568202 131.17064415 74.54086685 143.54700089 C74.20153276 147.31077537 73.86368565 151.07467155 73.52905273 154.83886719 C73.19923523 158.54851519 72.86592483 162.25783369 72.53009224 165.96694183 C72.40406392 167.36547526 72.2792753 168.764121 72.15577507 170.16287994 C71.98473282 172.0974934 71.80877015 174.03166995 71.63256836 175.96582031 C71.53423203 177.06226868 71.43589569 178.15871704 71.33457947 179.28839111 C71 182 71 182 70 185 C67.9375 185.921875 67.9375 185.921875 65 186.75 C63.82050781 187.08902344 62.64101562 187.42804688 61.42578125 187.77734375 C59.95069794 188.18553639 58.47541832 188.59301992 57 189 C55.13913085 189.52145048 53.2784685 190.0436393 51.41796875 190.56640625 C48.26550071 191.45114171 45.11241408 192.33332725 41.95727539 193.20849609 C36.40030277 194.75207666 30.8558636 196.32718609 25.328125 197.97265625 C23.71901245 198.45061646 23.71901245 198.45061646 22.07739258 198.93823242 C20.03916709 199.54632442 18.00244171 200.15947601 15.9675293 200.77856445 C15.03851807 201.05531006 14.10950684 201.33205566 13.15234375 201.6171875 C12.34788818 201.86065918 11.54343262 202.10413086 10.71459961 202.35498047 C7.19909664 203.19030369 3.58547854 203.55181518 0 204 C0 195.75 0 187.5 0 179 C0.99 178.67 1.98 178.34 3 178 C3.33 177.01 3.66 176.02 4 175 C5.74316406 174.26391602 5.74316406 174.26391602 8.015625 173.75390625 C8.84819824 173.55853271 9.68077148 173.36315918 10.53857422 173.16186523 C11.88072998 172.86517944 11.88072998 172.86517944 13.25 172.5625 C15.09178021 172.13029862 16.93292977 171.69540094 18.7734375 171.2578125 C19.67288086 171.04543945 20.57232422 170.83306641 21.49902344 170.61425781 C25.68957478 169.58502829 29.78315157 168.28355804 33.89453125 166.98046875 C37.43893559 165.86141782 40.9954997 164.79480482 44.5625 163.75 C45.69816406 163.41484375 46.83382812 163.0796875 48.00390625 162.734375 C51 162 51 162 55 162 C54.95866943 160.7612915 54.95866943 160.7612915 54.91650391 159.49755859 C54.69387982 146.73098767 55.85481891 134.12037736 57.02636719 121.41650391 C57.3760942 117.61310016 57.71224023 113.80866445 58.046875 110.00390625 C58.26742724 107.55721925 58.48875429 105.11060193 58.7109375 102.6640625 C58.80998383 101.54093658 58.90903015 100.41781067 59.01107788 99.26065063 C59.11103058 98.1918869 59.21098328 97.12312317 59.31396484 96.02197266 C59.39834808 95.09760406 59.48273132 94.17323547 59.56967163 93.22085571 C60.16306337 88.77952836 61.12124427 84.39377865 62 80 C29.99 80 -2.02 80 -35 80 C-37 62 -37 62 -37 53 C-3.67 53 29.66 53 64 53 C64.33 47.72 64.66 42.44 65 37 C65.33 33.37 65.66 29.74 66 26 C33.33 25.505 33.33 25.505 0 25 C0 16.75 0 8.5 0 0 Z " fill="#F06528" transform="translate(166,77)"/>
<path d="M0 0 C28.71 0 57.42 0 87 0 C84.70486157 34.42707652 84.70486157 34.42707652 83.0625 51.375 C82.88628057 53.23018304 82.71050946 55.08540871 82.53515625 56.94067383 C82.02819903 62.29424326 81.51501801 67.64720076 81 73 C80.49722353 78.22890417 79.99643131 83.45798896 79.5 88.6875 C79.38277588 89.92137451 79.26555176 91.15524902 79.14477539 92.42651367 C78.09775634 103.61885907 77.17833192 114.82093135 76.25970459 126.02444458 C73.8243307 155.68592488 73.8243307 155.68592488 72.375 170.25 C72.26414062 171.41426514 72.15328125 172.57853027 72.0390625 173.77807617 C71.93078125 174.82584229 71.8225 175.8736084 71.7109375 176.953125 C71.62118652 177.84161133 71.53143555 178.73009766 71.43896484 179.64550781 C70.97564958 182.13060926 70.3735865 183.87862749 69 186 C66.63988242 186.98571446 64.5200356 187.67846385 62.0625 188.3125 C61.32596191 188.51633301 60.58942383 188.72016602 59.83056641 188.93017578 C51.72113768 191.14750794 43.55912261 193.18134472 35.41259766 195.25732422 C26.52101102 197.54480188 17.7397879 200.11332127 8.98193359 202.86669922 C8.08941895 203.14658691 7.1969043 203.42647461 6.27734375 203.71484375 C5.49609131 203.96355225 4.71483887 204.21226074 3.90991211 204.46850586 C2 205 2 205 0 205 C-0.33 195.76 -0.66 186.52 -1 177 C11.9752259 173.14250041 24.98872778 169.43628934 38.03417969 165.82324219 C40.0572026 165.26169846 42.07863287 164.69439302 44.09863281 164.12207031 C45.07928711 163.84717773 46.05994141 163.57228516 47.0703125 163.2890625 C48.38539795 162.9170874 48.38539795 162.9170874 49.72705078 162.53759766 C52 162 52 162 55 162 C54.97824707 160.97471191 54.97824707 160.97471191 54.95605469 159.92871094 C54.85606062 151.31493623 55.47507104 142.81928659 56.25 134.25 C56.38428423 132.72340359 56.51839433 131.19679184 56.65234375 129.67016602 C57.8286329 116.39970497 59.16326126 103.14523179 60.51416016 89.89160156 C61.78112532 77.42421052 62.92378394 64.94930328 63.9609375 52.46069336 C64.74220982 43.25342237 65.85146426 34.18828596 67 25 C44.89 25 22.78 25 0 25 C0 16.75 0 8.5 0 0 Z " fill="#2965F1" transform="translate(434,77)"/>
<path d="M0 0 C44.22 0 88.44 0 134 0 C132 22 132 22 131 27 C97.67 27 64.34 27 30 27 C30.66 33.6 31.32 40.2 32 47 C32 49.31 32 51.62 32 54 C64.01 54 96.02 54 129 54 C128.67 55.32 128.34 56.64 128 58 C128 57.01 128 56.02 128 55 C107.87 55.33 87.74 55.66 67 56 C67 63.59 67 71.18 67 79 C65.24824463 78.99476318 63.49648926 78.98952637 61.69165039 78.98413086 C55.91611499 78.96803238 50.14058037 78.95652733 44.36502934 78.94818783 C40.86191115 78.94296011 37.35881715 78.9358645 33.85571289 78.92456055 C29.83219159 78.91165794 25.80869586 78.90677088 21.78515625 78.90234375 C19.88987938 78.89460182 19.88987938 78.89460182 17.95631409 78.88670349 C16.795186 78.88662796 15.63405792 78.88655243 14.43774414 78.88647461 C13.40960098 78.884254 12.38145782 78.88203339 11.32215881 78.87974548 C9.0386489 78.73815391 9.0386489 78.73815391 8 80 C38.36 80 68.72 80 100 80 C100 82.97 100 85.94 100 89 C99.67 89 99.34 89 99 89 C99 86.36 99 83.72 99 81 C68.64 81 38.28 81 7 81 C1 15 1 15 0 0 Z " fill="#EBE8E7" transform="translate(99,103)"/>
<path d="M0 0 C8.91 0 17.82 0 27 0 C27.66 6.93 28.32 13.86 29 21 C30.57910156 21.40992188 32.15820312 21.81984375 33.78515625 22.2421875 C35.87761555 22.78641458 37.97006283 23.33068785 40.0625 23.875 C41.62000977 24.27912109 41.62000977 24.27912109 43.20898438 24.69140625 C48.49191562 26.0666455 53.76002311 27.46888618 59 29 C58.67 29.66 58.34 30.32 58 31 C57.91528636 32.81341842 57.89278917 34.62994161 57.90234375 36.4453125 C57.90556641 37.52167969 57.90878906 38.59804687 57.91210938 39.70703125 C57.92048828 40.83496094 57.92886719 41.96289062 57.9375 43.125 C57.94201172 44.26066406 57.94652344 45.39632812 57.95117188 46.56640625 C57.96298385 49.37765638 57.97945493 52.1888023 58 55 C53.43300778 56.08157944 50.75586466 55.60434411 46.25 54.1875 C40.42208694 52.41006207 40.42208694 52.41006207 34.5 51 C23.82947871 48.74733439 13.40008391 45.24786674 3 42 C1.01806375 28.01099363 0.46301724 14.12202585 0 0 Z " fill="#EAEAE9" transform="translate(108,197)"/>
<path d="M0 0 C8.91 0 17.82 0 27 0 C27.66 6.93 28.32 13.86 29 21 C33.06186782 22.14811467 37.12445133 23.29357831 41.1875 24.4375 C42.33798828 24.76298828 43.48847656 25.08847656 44.67382812 25.42382812 C45.78564453 25.73642578 46.89746094 26.04902344 48.04296875 26.37109375 C49.57473755 26.8031311 49.57473755 26.8031311 51.13745117 27.24389648 C53.74757959 27.93332657 56.34722233 28.50353639 59 29 C58.67 29.66 58.34 30.32 58 31 C57.91489795 32.9593604 57.89282344 34.92162794 57.90234375 36.8828125 C57.90556641 38.04941406 57.90878906 39.21601563 57.91210938 40.41796875 C57.92048828 41.64128906 57.92886719 42.86460937 57.9375 44.125 C57.94201172 45.35605469 57.94652344 46.58710938 57.95117188 47.85546875 C57.9629867 50.90369392 57.97945972 53.95182314 58 57 C48.23698105 54.6256102 38.51768281 52.10027495 28.8125 49.5 C27.21172607 49.07352173 27.21172607 49.07352173 25.57861328 48.63842773 C17.99670762 46.59732432 10.49059443 44.35346637 3 42 C2.56952889 36.98317981 2.14238595 31.96609122 1.71826172 26.94873047 C1.57365836 25.2435754 1.42816189 23.53849582 1.28173828 21.83349609 C1.07086459 19.37617203 0.86325373 16.91859023 0.65625 14.4609375 C0.59062866 13.70444916 0.52500732 12.94796082 0.45739746 12.16854858 C0.11615332 8.07619365 0 4.12024085 0 0 Z " fill="#EAEAEB" transform="translate(376,197)"/>
<path d="M0 0 C44.22 0 88.44 0 134 0 C132 22 132 22 131 26 C97.34 26 63.68 26 29 26 C29 25.67 29 25.34 29 25 C41.54 25 54.08 25 67 25 C67 17.41 67 9.82 67 2 C45.55 2 24.1 2 2 2 C2 3.65 2 5.3 2 7 C0 4 0 4 0 0 Z " fill="#FCFAF9" transform="translate(99,103)"/>
<path d="M0 0 C21.45 0 42.9 0 65 0 C65 8.25 65 16.5 65 25 C56.67270649 25.02255403 48.34543656 25.04091682 40.01812077 25.05181217 C36.15179882 25.05704026 32.28549879 25.06413654 28.41918945 25.07543945 C24.69096599 25.086271 20.96276366 25.0922774 17.23452568 25.09487724 C15.80910344 25.09673101 14.38368241 25.10035071 12.95826912 25.10573006 C10.96836592 25.11294393 8.97844166 25.11340808 6.98852539 25.11352539 C5.85379288 25.115746 4.71906036 25.11796661 3.54994202 25.12025452 C1 25 1 25 0 24 C-0.38212329 20.55582918 -0.47016445 17.08602993 -0.625 13.625 C-0.70234375 12.16707031 -0.70234375 12.16707031 -0.78125 10.6796875 C-0.82507813 9.74640625 -0.86890625 8.813125 -0.9140625 7.8515625 C-0.9752124 6.56499756 -0.9752124 6.56499756 -1.03759766 5.25244141 C-1 3 -1 3 0 0 Z " fill="#EAEAEA" transform="translate(369,105)"/>
<path d="M0 0 C5.28 0 10.56 0 16 0 C19.60862851 4.33035421 21.78603995 7.10598305 24 12 C24.49371094 11.21753906 24.98742187 10.43507813 25.49609375 9.62890625 C26.45708984 8.11103516 26.45708984 8.11103516 27.4375 6.5625 C28.07558594 5.55316406 28.71367187 4.54382813 29.37109375 3.50390625 C31 1 31 1 32 0 C36.95 0 41.9 0 47 0 C47 13.53 47 27.06 47 41 C42.38 41 37.76 41 33 41 C32.67 35.39 32.34 29.78 32 24 C29.69 27.63 27.38 31.26 25 35 C20.14144407 33.38048136 18.69030344 29.24470098 16 25 C15.67 30.28 15.34 35.56 15 41 C10.05 41 5.1 41 0 41 C0 27.47 0 13.94 0 0 Z " fill="#000000" transform="translate(167,0)"/>
<path d="M0 0 C32.01 0 64.02 0 97 0 C97 0.33 97 0.66 97 1 C65.32 1 33.64 1 1 1 C2.04756586 2.27116763 2.04756586 2.27116763 4.39808655 2.12025452 C5.99359596 2.1169236 5.99359596 2.1169236 7.62133789 2.11352539 C8.82250748 2.11344986 10.02367706 2.11337433 11.26124573 2.11329651 C13.22214394 2.10555458 13.22214394 2.10555458 15.22265625 2.09765625 C16.56644132 2.09579198 17.91022707 2.09436812 19.25401306 2.09336853 C22.79682277 2.08954402 26.3395917 2.07971432 29.88238525 2.06866455 C33.49515227 2.05844899 37.10792584 2.0538706 40.72070312 2.04882812 C47.81382039 2.03809198 54.90690325 2.02049572 62 2 C62 9.59 62 17.18 62 25 C60.24824463 24.99476318 58.49648926 24.98952637 56.69165039 24.98413086 C50.91611499 24.96803238 45.14058037 24.95652733 39.36502934 24.94818783 C35.86191115 24.94296011 32.35881715 24.9358645 28.85571289 24.92456055 C24.83219159 24.91165794 20.80869586 24.90677088 16.78515625 24.90234375 C14.88987938 24.89460182 14.88987938 24.89460182 12.95631409 24.88670349 C11.795186 24.88662796 10.63405792 24.88655243 9.43774414 24.88647461 C8.40960098 24.884254 7.38145782 24.88203339 6.32215881 24.87974548 C4.0386489 24.73815391 4.0386489 24.73815391 3 26 C33.36 26 63.72 26 95 26 C95 28.97 95 31.94 95 35 C94.67 35 94.34 35 94 35 C94 32.36 94 29.72 94 27 C63.64 27 33.28 27 2 27 C0 7 0 7 0 0 Z " fill="#E5E7EB" transform="translate(372,157)"/>
<path d="M0 0 C4.95 0 9.9 0 15 0 C15 3.96 15 7.92 15 12 C20.445 12.495 20.445 12.495 26 13 C26 8.71 26 4.42 26 0 C30.62 0 35.24 0 40 0 C40 13.53 40 27.06 40 41 C35.38 41 30.76 41 26 41 C26 36.71 26 32.42 26 28 C22.37 28 18.74 28 15 28 C15 32.29 15 36.58 15 41 C10.05 41 5.1 41 0 41 C0 27.47 0 13.94 0 0 Z " fill="#000000" transform="translate(79,0)"/>
<path d="M0 0 C10.89 0 21.78 0 33 0 C33 3.96 33 7.92 33 12 C27.06 12 21.12 12 15 12 C15 12.66 15 13.32 15 14 C20.94 14 26.88 14 33 14 C33 23.24 33 32.48 33 42 C22.11 42 11.22 42 0 42 C0 28.14 0 14.28 0 0 Z " fill="#000000" transform="translate(416,0)"/>
<path d="M0 0 C10.89 0 21.78 0 33 0 C33 3.96 33 7.92 33 12 C26.73 12 20.46 12 14 12 C14 12.66 14 13.32 14 14 C20.27 14 26.54 14 33 14 C33 23.24 33 32.48 33 42 C22.11 42 11.22 42 0 42 C0 28.14 0 14.28 0 0 Z " fill="#000000" transform="translate(455,0)"/>
<path d="M0 0 C10.56 0 21.12 0 32 0 C32 18.40540541 32 18.40540541 31 26 C30.90460938 26.78632813 30.80921875 27.57265625 30.7109375 28.3828125 C30.4824676 30.25626567 30.24262424 32.12832728 30 34 C24.45251411 36.57023463 18.92850133 38.22307169 13 39.6875 C12.13632812 39.91244141 11.27265625 40.13738281 10.3828125 40.36914062 C5.44649497 41.60322001 1.08643525 42.25570395 -4 42 C-2.02 41.505 -2.02 41.505 0 41 C0 27.47 0 13.94 0 0 Z " fill="#2864F0" transform="translate(434,184)"/>
<path d="M0 0 C10.56 0 21.12 0 32 0 C32 13.5 32 13.5 31.5625 17.984375 C31.42714844 19.41523438 31.42714844 19.41523438 31.2890625 20.875 C31.14597656 22.298125 31.14597656 22.298125 31 23.75 C30.90460938 24.74515625 30.80921875 25.7403125 30.7109375 26.765625 C30.47901461 29.17762304 30.24200146 31.58899606 30 34 C23.82674265 36.12995429 17.62385745 38.0122319 11.3125 39.6875 C10.49716797 39.91244141 9.68183594 40.13738281 8.84179688 40.36914062 C4.45082435 41.53699023 0.5879922 42.27424186 -4 42 C-2.02 41.505 -2.02 41.505 0 41 C0 27.47 0 13.94 0 0 Z " fill="#F06428" transform="translate(166,184)"/>
<path d="M0 0 C11.22 0 22.44 0 34 0 C34 4.62 34 9.24 34 14 C27.73 14 21.46 14 15 14 C15 17.96 15 21.92 15 26 C21.27 26 27.54 26 34 26 C34 30.95 34 35.9 34 41 C22.78 41 11.56 41 0 41 C0 27.47 0 13.94 0 0 Z " fill="#000000" transform="translate(377,0)"/>
<path d="M0 0 C33.33 0 66.66 0 101 0 C101 13 101 13 99 27 C87.45 27 75.9 27 64 27 C64 18.42 64 9.84 64 1 C42.88 1 21.76 1 0 1 C0 0.67 0 0.34 0 0 Z " fill="#2863F0" transform="translate(370,130)"/>
<path d="M0 0 C12.21 0 24.42 0 37 0 C37 8.91 37 17.82 37 27 C25.45 27 13.9 27 2 27 C1.67 24.215625 1.34 21.43125 1 18.5625 C0.89558594 17.70470947 0.79117188 16.84691895 0.68359375 15.96313477 C0.60238281 15.25471436 0.52117187 14.54629395 0.4375 13.81640625 C0.35371094 13.10943604 0.26992187 12.40246582 0.18359375 11.67407227 C-0.08298062 7.79137399 0 3.89183861 0 0 Z " fill="#E34B24" transform="translate(129,130)"/>
<path d="M0 0 C12.87 0 25.74 0 39 0 C39 4.62 39 9.24 39 14 C35.04 14 31.08 14 27 14 C27 22.91 27 31.82 27 41 C22.05 41 17.1 41 12 41 C12 32.09 12 23.18 12 14 C8.04 14 4.08 14 0 14 C0 9.38 0 4.76 0 0 Z " fill="#000000" transform="translate(124,0)"/>
<path d="M0 0 C4.62 0 9.24 0 14 0 C14 8.58 14 17.16 14 26 C20.27 26 26.54 26 33 26 C33 30.95 33 35.9 33 41 C22.11 41 11.22 41 0 41 C0 27.47 0 13.94 0 0 Z " fill="#000000" transform="translate(220,0)"/>
</svg>
