<?xml version="1.0" encoding="UTF-8"?>
<svg version="1.1" xmlns="http://www.w3.org/2000/svg" width="512" height="512">
<path d="M0 0 C168.96 0 337.92 0 512 0 C512 168.96 512 337.92 512 512 C343.04 512 174.08 512 0 512 C0 343.04 0 174.08 0 0 Z " fill="#DEE0E9" transform="translate(0,0)"/>
<path d="M0 0 C168.96 0 337.92 0 512 0 C512 168.96 512 337.92 512 512 C343.04 512 174.08 512 0 512 C0 343.04 0 174.08 0 0 Z M16 96 C15.938125 160.906875 15.87625 225.81375 15.8125 292.6875 C15.78518799 313.21155029 15.75787598 333.73560059 15.72973633 354.8815918 C15.71970545 373.21671219 15.71970545 373.21671219 15.71366882 391.55183411 C15.71086437 399.74330714 15.69983101 407.93471921 15.68327332 416.12617493 C15.66422052 425.56590944 15.65548201 435.00558523 15.65966515 444.44533913 C15.66147786 449.2775059 15.65853959 454.10954127 15.64235461 458.94168413 C15.62782073 463.30726311 15.62698713 467.67261706 15.63729668 472.0382061 C15.63857377 473.62011075 15.63472641 475.20202918 15.62535226 476.78390658 C15.61335856 478.9333863 15.61977271 481.08205029 15.63085651 483.23151684 C15.62971735 484.42649672 15.62857819 485.6214766 15.62740451 486.85266799 C16.03900413 490.32946978 16.91436805 492.21451582 19 495 C22.04594522 496.52297261 25.21510465 496.1393564 28.55667591 496.13142776 C29.74566136 496.13450672 29.74566136 496.13450672 30.95866671 496.13764787 C33.64309876 496.14335024 36.32748003 496.14185665 39.01191711 496.14044189 C40.94461174 496.14302368 42.87730583 496.14603631 44.80999917 496.1494453 C50.14316818 496.1575405 55.47632376 496.15930626 60.80949819 496.16004276 C66.55262896 496.16188895 72.29575268 496.16943405 78.03887939 496.17617798 C90.60687674 496.18977957 103.1748709 496.19578882 115.74287438 496.20018864 C123.58472464 496.2029479 131.42657366 496.20718466 139.26842308 496.21169281 C160.96402198 496.22388771 182.65961954 496.23422209 204.35522175 496.2375679 C205.75873854 496.23778954 207.16225533 496.23801132 208.56577213 496.23823325 C209.9727187 496.2384539 211.37966528 496.23867438 212.78661186 496.2388947 C215.60928746 496.23933726 218.43196307 496.23978437 221.25463867 496.24023438 C222.30443115 496.24039846 222.30443115 496.24039846 223.37543157 496.24056586 C246.07447991 496.24419745 268.77349633 496.26012075 291.47253245 496.28342474 C315.4598377 496.3080064 339.44712392 496.32173323 363.43444222 496.32293582 C376.51484338 496.32385398 389.59520275 496.32964167 402.67559242 496.34775543 C413.81212752 496.36312257 424.94860792 496.36829696 436.08515159 496.36001733 C441.77074926 496.35609883 447.45623666 496.35709873 453.14182091 496.37107468 C458.34237272 496.38374184 463.5427306 496.38267971 468.74328186 496.37048396 C470.62889932 496.36851444 472.51453018 496.37166277 474.40012876 496.38032833 C476.95559114 496.39133271 479.51035841 496.38399595 482.06580067 496.3719368 C482.80453192 496.37953199 483.54326316 496.38712718 484.30438021 496.39495254 C488.68738982 496.35004344 491.55490292 495.7743548 495 493 C495.94922754 490.15231738 496.12443117 488.41168284 496.12304783 485.46101856 C496.12503888 484.5249788 496.12702993 483.58893903 496.12908131 482.62453443 C496.12471205 481.07931742 496.12471205 481.07931742 496.12025452 479.50288391 C496.12110894 478.41001216 496.12196337 477.3171404 496.12284368 476.19115132 C496.12449742 472.5106372 496.1189788 468.83016816 496.11352539 465.1496582 C496.11324347 462.51870729 496.11340135 459.88775629 496.1139679 457.25680542 C496.11449271 451.58303163 496.1113503 445.90926933 496.10573006 440.23549843 C496.09760937 432.03213877 496.09499925 423.82878467 496.09374207 415.62542143 C496.09155244 402.31660267 496.08489478 389.00779004 496.07543945 375.69897461 C496.06626302 362.76928742 496.05918332 349.8396019 496.05493164 336.90991211 C496.05466892 336.11317246 496.05440619 335.31643281 496.05413551 334.49554954 C496.05283049 330.49861443 496.05156678 326.5016793 496.05032361 322.50474417 C496.03995378 289.33649166 496.02233789 256.16824665 496 223 C492.32211632 221.75227782 488.77525221 220.6618418 484.953125 219.96484375 C484.025 219.79533203 483.096875 219.62582031 482.140625 219.45117188 C480.70976563 219.1969043 480.70976563 219.1969043 479.25 218.9375 C478.3115625 218.76412109 477.373125 218.59074219 476.40625 218.41210938 C441.9819809 212.20718242 406.48192894 215.69914774 372.89746094 224.48901367 C359.07167879 228.10065057 345.27068405 230.25700209 331 231 C331 231.33 331 231.66 331 232 C332.65 232 334.3 232 336 232 C336 237.28 336 242.56 336 248 C306.96 248 277.92 248 248 248 C248 242.72 248 237.44 248 232 C266.15 232 284.3 232 303 232 C303 231.67 303 231.34 303 231 C302.41847168 230.96559814 301.83694336 230.93119629 301.23779297 230.89575195 C288.43650523 230.08800097 276.2150781 228.50225023 263.76171875 225.4140625 C255.87227742 223.47780639 247.93012288 221.76224953 240 220 C240 237.49 240 254.98 240 273 C244.62 274.98 249.24 276.96 254 279 C265.88611781 287.76601188 269.46013295 297.74852378 272 312 C266.72 312 261.44 312 256 312 C255.95875 310.68 255.9175 309.36 255.875 308 C255.10700191 301.12046786 251.0153203 296.6783993 246.0625 292.125 C239.97255298 287.89932248 233.24763702 287.07984546 226 288 C218.08784688 290.55008419 213.24888557 296.01968798 209 303 C207.82342611 306.52972167 207.85124747 309.35610963 207.82299805 313.08251953 C207.81314125 314.15876839 207.81314125 314.15876839 207.80308533 315.25675964 C207.78337194 317.63211172 207.77169149 320.00740049 207.76171875 322.3828125 C207.75764322 323.1962701 207.7535677 324.00972771 207.74936867 324.84783554 C207.72851199 329.15701798 207.71421096 333.46616865 207.70483398 337.77539062 C207.6937962 342.21045388 207.65942599 346.64501173 207.61966228 351.07989693 C207.59341644 354.50303022 207.58513491 357.92604482 207.58155251 361.34926987 C207.57670372 362.98302482 207.56513879 364.61677507 207.54651451 366.25043106 C207.44071327 376.1496728 207.45287814 384.67197706 214.18359375 392.55859375 C214.92738281 393.17863281 215.67117187 393.79867188 216.4375 394.4375 C217.17871094 395.07558594 217.91992188 395.71367187 218.68359375 396.37109375 C224.26783826 400.29795709 229.36982689 400.61262404 236 400 C243.00901644 398.74635478 247.75566527 395.71775663 252 390 C254.84286117 385.08807419 256 381.75531831 256 376 C261.28 376 266.56 376 272 376 C268.99531743 389.63663627 265.92267917 400.54819529 254 409 C244.94850475 414.7176772 234.55481374 416.19604782 224 415 C213.00515501 411.89102077 203.87790836 405.88953721 198 396 C194.64824448 388.98594292 192.90756525 382.6220022 192.79467773 374.83276367 C192.77449585 373.59490112 192.75431396 372.35703857 192.73352051 371.08166504 C192.70880676 369.14438538 192.70880676 369.14438538 192.68359375 367.16796875 C192.66494263 365.97385376 192.6462915 364.77973877 192.6270752 363.54943848 C192.55885778 359.09553312 192.49865787 354.64150788 192.4375 350.1875 C192.293125 340.225625 192.14875 330.26375 192 320 C155.04 320 118.08 320 80 320 C80 298.88 80 277.76 80 256 C116.96 256 153.92 256 192 256 C192 271.51 192 287.02 192 303 C194.73803435 301.63098283 194.7559617 300.29318019 195.75 297.4375 C199.28541991 288.34642023 204.86500774 282.34585206 213 277 C213.99 276.67 214.98 276.34 216 276 C216 266.76 216 257.52 216 248 C213.36 248 210.72 248 208 248 C208 245.36 208 242.72 208 240 C160.48 240 112.96 240 64 240 C64 271.68 64 303.36 64 336 C95.68 336 127.36 336 160 336 C160 341.28 160 346.56 160 352 C146.10065035 351.91573067 132.20141714 351.82089986 118.3022337 351.71247292 C111.84872792 351.66246368 105.39523889 351.61613404 98.94165039 351.578125 C92.71705022 351.5413307 86.49258858 351.49498672 80.26810646 351.44193649 C77.88981359 351.42336137 75.51149099 351.40826503 73.13315392 351.39665604 C69.80957131 351.37984699 66.48630814 351.35082472 63.1628418 351.31884766 C62.1730986 351.31668747 61.18335541 351.31452728 60.16362 351.31230164 C59.25918152 351.30113815 58.35474304 351.28997467 57.42289734 351.2784729 C56.63660792 351.27294214 55.85031851 351.26741138 55.04020214 351.26171303 C53 351 53 351 50 349 C48.84108392 345.52325176 48.85186666 342.41086771 48.85282898 338.79469299 C48.84915229 338.055829 48.8454756 337.31696502 48.8416875 336.55571121 C48.83064984 334.07302248 48.82680674 331.59037561 48.82299805 329.10766602 C48.81673363 327.33048367 48.81008685 325.55330264 48.80308533 323.77612305 C48.78567775 318.94354617 48.77512497 314.11097918 48.7668798 309.27837873 C48.76173082 306.26097711 48.75565515 303.24357857 48.74936867 300.22617912 C48.73032022 290.79046715 48.7160864 281.354763 48.7077567 271.91903549 C48.69797411 261.01698637 48.67162651 250.11513974 48.63125581 239.213162 C48.60113783 230.7918755 48.58629208 222.3706472 48.58297569 213.94930786 C48.58062095 208.91667605 48.57160513 203.88426066 48.54651451 198.85168648 C48.52330317 194.11975563 48.51897244 189.38818478 48.52927589 184.65621185 C48.529773 182.91792799 48.52340123 181.17962681 48.50971985 179.44139671 C48.49210577 177.07125888 48.49905401 174.70242788 48.51225281 172.33229065 C48.50128356 171.64172673 48.49031432 170.95116282 48.47901267 170.23967272 C48.5233855 166.94769236 48.82101004 165.23973487 50.81273556 162.57206535 C53.98037729 160.2953677 56.97024897 160.46692769 60.72412109 160.53344727 C61.49891312 160.53114105 62.27370514 160.52883484 63.07197571 160.52645874 C64.75524143 160.52382956 66.43854019 160.53027416 68.12174606 160.54471016 C70.80845758 160.56669278 73.49404796 160.56284332 76.18081665 160.55223083 C82.86959869 160.53060211 89.55813618 160.54757422 96.24688721 160.57373047 C126.46538729 161.00908198 126.46538729 161.00908198 156.03466797 155.540802 C160.46477079 154.32176703 164.99373556 153.97407903 169.5625 153.6875 C170.52881348 153.61756836 171.49512695 153.54763672 172.49072266 153.47558594 C204.22217233 151.43552757 233.47894523 154.97118176 264.14550781 162.59594727 C281.5218641 166.90045466 298.2536463 168.44000899 316.125 168.4375 C317.08444519 168.43889984 318.04389038 168.44029968 319.03240967 168.44174194 C341.14884987 168.41535658 361.97062976 165.48076971 383.2109375 159.12890625 C402.22261834 153.46460134 421.84285612 152.82959172 441.5625 152.75 C442.86880371 152.74073486 444.17510742 152.73146973 445.52099609 152.72192383 C457.54615856 152.76073431 469.19196727 154.36159449 481 156.5625 C485.99229573 157.47916447 490.97100425 158.28157204 496 159 C496 138.21 496 117.42 496 96 C337.6 96 179.2 96 16 96 Z " fill="#000000" transform="translate(0,0)"/>
<path d="M0 0 C17.37635629 4.30450739 34.10813848 5.84406173 51.97949219 5.84155273 C52.93893738 5.84295258 53.89838257 5.84435242 54.88690186 5.84579468 C77.00334206 5.81940932 97.82512194 2.88482244 119.06542969 -3.46704102 C138.07711053 -9.13134593 157.69734831 -9.76635555 177.41699219 -9.84594727 C178.7232959 -9.8552124 180.02959961 -9.86447754 181.37548828 -9.87402344 C190.37932539 -9.8449641 198.96563786 -8.99731125 207.85449219 -7.59594727 C208.73177979 -7.45962891 209.60906738 -7.32331055 210.51293945 -7.18286133 C212.63096231 -6.84071045 214.74279737 -6.47496941 216.85449219 -6.09594727 C217.53898437 -5.97864258 218.22347656 -5.86133789 218.92871094 -5.74047852 C223.37987494 -4.95198661 227.47015415 -3.84861528 231.85449219 -2.59594727 C231.85449219 18.52405273 231.85449219 39.64405273 231.85449219 61.40405273 C222.61449219 59.75405273 213.37449219 58.10405273 203.85449219 56.40405273 C197.60058981 55.7786625 191.57919479 55.23226689 185.33105469 55.16577148 C184.55561813 55.15593231 183.78018158 55.14609314 182.98124695 55.13595581 C157.51564937 54.87994683 134.05663897 57.25334954 109.34301758 63.82055664 C96.99622993 67.04526147 84.49764755 68.78853844 71.85449219 70.40405273 C71.85449219 75.68405273 71.85449219 80.96405273 71.85449219 86.40405273 C42.81449219 86.40405273 13.77449219 86.40405273 -16.14550781 86.40405273 C-16.14550781 81.12405273 -16.14550781 75.84405273 -16.14550781 70.40405273 C-3.27550781 70.07405273 9.59449219 69.74405273 22.85449219 69.40405273 C19.14199219 68.68217773 15.42949219 67.96030273 11.60449219 67.21655273 C3.16002833 65.54747298 -5.23382554 63.75067005 -13.58300781 61.65405273 C-14.42186523 61.44369385 -15.26072266 61.23333496 -16.125 61.01660156 C-21.86009955 59.54675687 -21.86009955 59.54675687 -24.14550781 58.40405273 C-24.14550781 75.89405273 -24.14550781 93.38405273 -24.14550781 111.40405273 C-20.84550781 112.39405273 -17.54550781 113.38405273 -14.14550781 114.40405273 C-5.01057692 118.88558902 2.3822024 126.80727192 5.85449219 136.40405273 C7.10351604 141.12893152 7.85449219 145.51014638 7.85449219 150.40405273 C2.57449219 150.40405273 -2.70550781 150.40405273 -8.14550781 150.40405273 C-8.35175781 149.08405273 -8.55800781 147.76405273 -8.77050781 146.40405273 C-10.22196244 139.86735989 -13.87388593 135.6174279 -18.58300781 131.02905273 C-24.52344882 127.26194381 -31.26226797 126.48987244 -38.14550781 127.40405273 C-40.3959427 128.24416441 -42.38074331 129.22374105 -44.45410156 130.43139648 C-46.14550781 131.40405273 -46.14550781 131.40405273 -49.14550781 132.40405273 C-50.25026891 134.27892884 -50.25026891 134.27892884 -51.14550781 136.40405273 C-51.83580078 137.45858643 -52.52609375 138.51312012 -53.23730469 139.59960938 C-56.52812847 146.2401307 -55.71858297 154.03778574 -55.67675781 161.27514648 C-55.67945683 162.92367277 -55.68334265 164.5721975 -55.68835449 166.22071838 C-55.69423198 169.66618085 -55.68574468 173.11122682 -55.66699219 176.55664062 C-55.64422132 180.95243527 -55.65732447 185.34725182 -55.68128204 189.74301052 C-55.6958031 193.14475239 -55.69110503 196.5462661 -55.68077087 199.94801521 C-55.67812003 201.56778138 -55.68131496 203.18756889 -55.69068909 204.8073101 C-55.7343391 214.46904389 -55.68749901 222.99520039 -49.18066406 230.74389648 C-42.15549907 236.43358456 -37.2444459 238.21888301 -28.14550781 237.40405273 C-21.28868387 236.36308276 -17.19638886 233.33733919 -12.80957031 228.03295898 C-10.06111385 223.69091391 -9.16106987 219.41839038 -8.14550781 214.40405273 C-2.86550781 214.40405273 2.41449219 214.40405273 7.85449219 214.40405273 C7.33265247 226.23241971 3.68251831 235.62825166 -4.62207031 244.20874023 C-14.06085969 252.42019477 -24.54139636 254.99780177 -36.80175781 254.78295898 C-47.79243535 253.53752006 -57.83699359 247.00641441 -64.76269531 238.52905273 C-69.78952318 230.80420991 -72.27796818 222.3824088 -72.2590332 213.23681641 C-72.25891235 211.99895386 -72.2587915 210.76109131 -72.25866699 209.48571777 C-72.25355103 208.194198 -72.24843506 206.90267822 -72.24316406 205.57202148 C-72.24215698 204.37790649 -72.2411499 203.1837915 -72.2401123 201.95349121 C-72.23488644 197.49950193 -72.22092517 193.04552635 -72.20800781 188.59155273 C-72.18738281 178.62967773 -72.16675781 168.66780273 -72.14550781 158.40405273 C-109.10550781 158.40405273 -146.06550781 158.40405273 -184.14550781 158.40405273 C-184.14550781 137.28405273 -184.14550781 116.16405273 -184.14550781 94.40405273 C-147.18550781 94.40405273 -110.22550781 94.40405273 -72.14550781 94.40405273 C-71.81550781 109.58405273 -71.48550781 124.76405273 -71.14550781 140.40405273 C-69.82550781 137.10405273 -68.50550781 133.80405273 -67.14550781 130.40405273 C-62.72830346 123.72916615 -57.79152274 118.83472935 -51.14550781 114.40405273 C-50.15550781 114.40405273 -49.16550781 114.40405273 -48.14550781 114.40405273 C-48.14550781 105.16405273 -48.14550781 95.92405273 -48.14550781 86.40405273 C-50.78550781 86.40405273 -53.42550781 86.40405273 -56.14550781 86.40405273 C-56.14550781 83.76405273 -56.14550781 81.12405273 -56.14550781 78.40405273 C-103.66550781 78.40405273 -151.18550781 78.40405273 -200.14550781 78.40405273 C-200.14550781 110.08405273 -200.14550781 141.76405273 -200.14550781 174.40405273 C-168.46550781 174.40405273 -136.78550781 174.40405273 -104.14550781 174.40405273 C-104.14550781 179.68405273 -104.14550781 184.96405273 -104.14550781 190.40405273 C-118.02746018 190.47350134 -131.90937136 190.52683796 -145.79146194 190.55948925 C-152.23717628 190.57515862 -158.68277194 190.59642035 -165.12841797 190.63037109 C-171.34646525 190.66291881 -177.56439823 190.68089617 -183.78252411 190.68868446 C-186.15724233 190.69423619 -188.53195416 190.70507708 -190.90662384 190.7212429 C-194.22760131 190.74295581 -197.54810383 190.74602218 -200.86914062 190.74462891 C-201.85528854 190.75541473 -202.84143646 190.76620056 -203.85746765 190.77731323 C-204.76328079 190.77318924 -205.66909393 190.76906525 -206.60235596 190.76481628 C-207.78040739 190.76896435 -207.78040739 190.76896435 -208.98225784 190.77319622 C-211.74790104 190.30125854 -213.11017615 189.30938256 -215.14550781 187.40405273 C-216.3034342 183.93027357 -216.29680932 180.81877832 -216.29940796 177.20547485 C-216.30379021 176.46731643 -216.30817247 175.72915801 -216.31268752 174.96863115 C-216.32607196 172.48828082 -216.33225351 170.00796602 -216.33837891 167.52758789 C-216.34627998 165.75202779 -216.35454894 163.97646928 -216.36315918 162.20091248 C-216.38937275 156.36499565 -216.40468348 150.52907167 -216.41894531 144.69311523 C-216.42430476 142.68513357 -216.42968227 140.67715195 -216.43507767 138.66917038 C-216.45670301 130.31889022 -216.47544128 121.968612 -216.48670006 113.61831093 C-216.50295069 101.64407983 -216.53615946 89.67017262 -216.59310091 77.69606364 C-216.63176204 69.27985869 -216.65132805 60.86374052 -216.65662062 52.44744909 C-216.66027856 47.418642 -216.67234721 42.39018041 -216.70472336 37.36146927 C-216.73473765 32.63194329 -216.74113965 27.9029731 -216.7293396 23.17337227 C-216.72911833 21.43711211 -216.73746785 19.70082664 -216.75499344 17.96465492 C-216.7776164 15.59462991 -216.76942432 13.2266322 -216.75350952 10.8565979 C-216.76739161 10.16894683 -216.7812737 9.48129575 -216.79557645 8.77280676 C-216.73338216 5.01595104 -216.19095134 3.46158446 -213.83277225 0.47611809 C-210.34530434 -2.21295907 -207.53761484 -2.27236688 -203.30786133 -2.17602539 C-202.53292328 -2.17847763 -201.75798523 -2.18092987 -200.95956421 -2.18345642 C-199.27903157 -2.18562541 -197.59845374 -2.1763679 -195.91803169 -2.15696716 C-193.23531162 -2.12675693 -190.55418003 -2.12796725 -187.87132263 -2.13708496 C-181.19412542 -2.153331 -174.51741596 -2.11646021 -167.84033203 -2.08050537 C-161.31818792 -2.04766266 -154.79659788 -2.03647019 -148.27441406 -2.06469727 C-146.92284808 -2.07030639 -146.92284808 -2.07030639 -145.54397774 -2.07602882 C-132.54988178 -2.16703152 -120.63178538 -3.34540672 -108.11184692 -7.05413818 C-103.68169948 -8.27483003 -99.152184 -8.62184241 -94.58300781 -8.90844727 C-93.1335376 -9.01334473 -93.1335376 -9.01334473 -91.65478516 -9.12036133 C-59.92333549 -11.16041969 -30.66656258 -7.6247655 0 0 Z " fill="#CDD2E1" transform="translate(264.1455078125,161.595947265625)"/>
<path d="M0 0 C1.10681056 0.01841629 1.10681056 0.01841629 2.23598093 0.03720462 C3.03209943 0.03053661 3.82821792 0.0238686 4.64846122 0.01699853 C7.32708334 0.00070307 10.00425627 0.02016875 12.6828422 0.03936374 C14.6181313 0.03503651 16.55341655 0.02852214 18.48869175 0.02000368 C23.8152442 0.00296539 29.14132859 0.01722609 34.46785659 0.03651845 C40.20890473 0.05191053 45.94989421 0.03855262 51.69094461 0.02877414 C62.94100567 0.01422702 74.19088664 0.02650237 85.44093066 0.04788738 C98.53406725 0.07186495 111.62716227 0.07018501 124.72031593 0.06758147 C148.78336401 0.06377729 172.84632059 0.08674203 196.90933976 0.12192895 C218.88264765 0.15392298 240.85587448 0.16597264 262.8292045 0.15984714 C264.24007348 0.1594603 265.65094246 0.15907384 267.06181145 0.15868777 C267.75931352 0.15849642 268.45681559 0.15830508 269.17545409 0.15810793 C272.68648459 0.15715362 276.1975151 0.15623925 279.70854563 0.15536869 C280.74752262 0.15510799 280.74752262 0.15510799 281.80748904 0.15484204 C300.16053618 0.1504882 318.51357375 0.16057538 336.86661476 0.17520654 C338.17095375 0.17624603 339.47529274 0.17728551 340.81915715 0.1783565 C343.43906886 0.18044744 346.05898055 0.18255842 348.67889223 0.18468967 C357.81174788 0.19159303 366.94459202 0.19225329 376.07744974 0.19080722 C387.20294976 0.18936934 398.32837689 0.19902504 409.45385271 0.22275358 C415.13338417 0.23463532 420.81281387 0.24172428 426.49235719 0.23591602 C431.68725729 0.23076025 436.88194204 0.23937548 442.07680523 0.25919062 C443.96030642 0.26394692 445.84382846 0.26360948 447.72732663 0.25778025 C450.27992405 0.25064113 452.83179959 0.26181229 455.38434213 0.27771366 C456.12221584 0.27126185 456.86008955 0.26481005 457.62032306 0.25816274 C462.01193843 0.30980816 464.81719586 0.95542283 468.31016153 3.6608237 C477.40472645 21.84995355 469.31016153 44.32475831 469.31016153 64.6608237 C310.91016153 64.6608237 152.51016153 64.6608237 -10.68983847 64.6608237 C-10.68983847 0.18810871 -10.68983847 0.18810871 0 0 Z " fill="#ACB1C6" transform="translate(26.689838469028473,15.339176297187805)"/>
<path d="M0 0 C158.4 0 316.8 0 480 0 C480 20.79 480 41.58 480 63 C476.7 62.34 473.4 61.68 470 61 C467.0222083 60.46302117 464.04608463 59.93874222 461.0625 59.4375 C460.34126953 59.31181641 459.62003906 59.18613281 458.87695312 59.05664062 C447.87278222 57.20483741 436.95994447 56.79460417 425.8125 56.8125 C425.11501648 56.81310425 424.41753296 56.8137085 423.69891357 56.81433105 C401.88100317 56.86529151 381.27165276 58.81971296 360.296875 64.9609375 C340.41261112 70.64858333 320.9647828 72.48337876 300.375 72.5 C299.00235992 72.50646545 299.00235992 72.50646545 297.60198975 72.51306152 C279.13619548 72.55035862 261.65278295 69.92523152 243.75 65.5 C241.15744466 64.87639922 238.56308809 64.2607111 235.96875 63.64453125 C234.15310547 63.21261475 234.15310547 63.21261475 232.30078125 62.77197266 C225.90289792 61.27566296 219.49545068 60.00364962 213 59 C211.70191406 58.79632813 210.40382812 58.59265625 209.06640625 58.3828125 C190.78493523 55.80443723 171.93105992 56.35817617 153.5625 57.6875 C152.71478027 57.74067383 151.86706055 57.79384766 150.99365234 57.84863281 C146.4829365 58.23779261 142.22225797 58.8936317 137.88085938 60.17797852 C118.11873939 65.80456313 97.73330149 64.64211081 77.375 64.5625 C70.73448995 64.54130792 64.09446752 64.53677228 57.45396805 64.56300163 C54.81680597 64.56635117 52.1805974 64.5452149 49.54354858 64.52259827 C47.93707064 64.52510751 46.33059388 64.52866551 44.72412109 64.53344727 C43.99695389 64.52056168 43.26978668 64.50767609 42.52058411 64.49440002 C39.08215044 64.5286115 37.31973645 64.74844446 34.57974243 66.90415955 C32.97129992 68.90636453 32.97129992 68.90636453 32 71 C2.73076923 67.73076923 2.73076923 67.73076923 0 65 C0 43.55 0 22.1 0 0 Z " fill="#F5F9FC" transform="translate(16,96)"/>
<path d="M0 0 C0.67453043 -0.00638882 1.34906087 -0.01277764 2.04403162 -0.01936007 C4.29766372 -0.03458527 6.54953056 -0.01416828 8.80310059 0.00622559 C10.42132652 0.0027236 12.039549 -0.00293586 13.65776062 -0.0105896 C18.04838486 -0.02483627 22.43838272 -0.00777747 26.82894707 0.01569557 C31.42437378 0.03580428 36.01977448 0.029925 40.61523438 0.02758789 C48.33242115 0.02764146 56.04936309 0.04739822 63.76647949 0.07946777 C72.68759387 0.11636058 81.6083875 0.12514332 90.5295682 0.11817026 C99.11262625 0.11186423 107.69557436 0.12262141 116.27861023 0.14213562 C119.93081733 0.15030875 123.58296823 0.15301933 127.23518372 0.15144348 C131.53625924 0.1505643 135.83703013 0.16478968 140.13802528 0.19067001 C141.71622046 0.19782995 143.29444804 0.19991626 144.87265587 0.19655228 C147.02765731 0.19283514 149.18177086 0.20759174 151.33666992 0.22705078 C153.14516544 0.23264385 153.14516544 0.23264385 154.99019623 0.23834991 C158.47968144 0.65899135 160.37295768 1.52661727 163.16833496 3.62145996 C164.72713051 6.73905107 164.29785629 10.04660482 164.28186035 13.46765137 C164.28200638 14.27748978 164.2821524 15.08732819 164.28230286 15.92170715 C164.28160473 18.60550592 164.273817 21.28923577 164.26599121 23.97302246 C164.26412668 25.83104413 164.26270294 27.68906629 164.26170349 29.54708862 C164.25788111 34.44288485 164.24805319 39.33865151 164.23699951 44.23443604 C164.2267794 49.22802328 164.22220458 54.22161528 164.21716309 59.21520996 C164.20643069 69.01730839 164.18883613 78.81937709 164.16833496 88.62145996 C158.88833496 88.62145996 153.60833496 88.62145996 148.16833496 88.62145996 C148.16833496 85.98145996 148.16833496 83.34145996 148.16833496 80.62145996 C100.64833496 80.62145996 53.12833496 80.62145996 4.16833496 80.62145996 C4.16833496 112.30145996 4.16833496 143.98145996 4.16833496 176.62145996 C35.84833496 176.62145996 67.52833496 176.62145996 100.16833496 176.62145996 C100.16833496 181.90145996 100.16833496 187.18145996 100.16833496 192.62145996 C86.28638259 192.69090857 72.40447141 192.74424518 58.52238083 192.77689648 C52.07666649 192.79256585 45.63107083 192.81382757 39.1854248 192.84777832 C32.96737752 192.88032604 26.74944454 192.89830339 20.53131866 192.90609169 C18.15660044 192.91164342 15.78188862 192.9224843 13.40721893 192.93865013 C10.08624146 192.96036303 6.76573894 192.96342941 3.44470215 192.96203613 C2.45855423 192.97282196 1.47240631 192.98360779 0.45637512 192.99472046 C-0.44943802 192.99059647 -1.35525116 192.98647247 -2.28851318 192.98222351 C-3.46656462 192.98637158 -3.46656462 192.98637158 -4.66841507 192.99060345 C-7.43405826 192.51866577 -8.79633338 191.52678978 -10.83166504 189.62145996 C-11.98959143 186.1476808 -11.98296655 183.03618555 -11.98556519 179.42288208 C-11.98994744 178.68472366 -11.99432969 177.94656523 -11.99884474 177.18603837 C-12.01222918 174.70568805 -12.01841073 172.22537325 -12.02453613 169.74499512 C-12.03243721 167.96943501 -12.04070617 166.19387651 -12.04931641 164.4183197 C-12.07552997 158.58240288 -12.0908407 152.74647889 -12.10510254 146.91052246 C-12.11046198 144.90254079 -12.11583949 142.89455918 -12.12123489 140.88657761 C-12.14286024 132.53629745 -12.1615985 124.18601923 -12.17285728 115.83571815 C-12.18910792 103.86148706 -12.22231668 91.88757985 -12.27925813 79.91347086 C-12.31791927 71.49726592 -12.33748528 63.08114775 -12.34277785 54.66485631 C-12.34643579 49.63604922 -12.35850444 44.60758763 -12.39088058 39.5788765 C-12.42089488 34.84935051 -12.42729688 30.12038032 -12.41549683 25.3907795 C-12.41527555 23.65451934 -12.42362507 21.91823387 -12.44115067 20.18206215 C-12.46377362 17.81203713 -12.45558155 15.44403943 -12.43966675 13.07400513 C-12.45354884 12.38635405 -12.46743092 11.69870298 -12.48173368 10.99021399 C-12.42185505 7.37323581 -11.85437671 5.65294982 -9.720644 2.69451714 C-6.18500381 0.15743246 -4.32446016 -0.00255562 0 0 Z " fill="#000000" transform="translate(59.8316650390625,159.3785400390625)"/>
<path d="M0 0 C36.96 0 73.92 0 112 0 C112.33 15.18 112.66 30.36 113 46 C114.32 42.7 115.64 39.4 117 36 C123.82098295 25.69273688 132.07799358 19.41041638 144 16 C156.46869128 14.59049577 166.44141504 16.71513572 176.8828125 24.015625 C185.7288165 31.35648802 190.81645276 40.55224137 192 52 C192 53.32 192 54.64 192 56 C186.72 56 181.44 56 176 56 C175.79375 54.68 175.5875 53.36 175.375 52 C173.92354537 45.46330716 170.27162188 41.21337516 165.5625 36.625 C159.622059 32.85789107 152.88323984 32.08581971 146 33 C143.74956511 33.84011167 141.76476451 34.81968832 139.69140625 36.02734375 C138 37 138 37 135 38 C133.8952389 39.8748761 133.8952389 39.8748761 133 42 C132.30970703 43.05453369 131.61941406 44.10906738 130.90820312 45.19555664 C127.61737935 51.83607796 128.42692485 59.63373301 128.46875 66.87109375 C128.46605098 68.51962004 128.46216516 70.16814477 128.45715332 71.81666565 C128.45127583 75.26212811 128.45976313 78.70717409 128.47851562 82.15258789 C128.5012865 86.54838254 128.48818334 90.94319909 128.46422577 95.33895779 C128.44970471 98.74069966 128.45440278 102.14221337 128.46473694 105.54396248 C128.46738778 107.16372865 128.46419285 108.78351616 128.45481873 110.40325737 C128.41116871 120.06499115 128.4580088 128.59114766 134.96484375 136.33984375 C141.99000874 142.02953183 146.90106191 143.81483028 156 143 C162.85682394 141.95903003 166.94911895 138.93328645 171.3359375 133.62890625 C174.08439397 129.28686118 174.98443794 125.01433765 176 120 C181.28 120 186.56 120 192 120 C191.47816028 131.82836698 187.82802612 141.22419892 179.5234375 149.8046875 C170.08464812 158.01614203 159.60411145 160.59374903 147.34375 160.37890625 C136.35307246 159.13346732 126.30851423 152.60236167 119.3828125 144.125 C114.35598463 136.40015718 111.86753964 127.97835606 111.88647461 118.83276367 C111.88659546 117.59490112 111.88671631 116.35703857 111.88684082 115.08166504 C111.89195679 113.79014526 111.89707275 112.49862549 111.90234375 111.16796875 C111.90335083 109.97385376 111.90435791 108.77973877 111.90539551 107.54943848 C111.91062137 103.09544919 111.92458264 98.64147362 111.9375 94.1875 C111.958125 84.225625 111.97875 74.26375 112 64 C75.04 64 38.08 64 0 64 C0 42.88 0 21.76 0 0 Z " fill="#DEE0E9" transform="translate(80,256)"/>
<path d="M0 0 C47.52 0 95.04 0 144 0 C144 15.84 144 31.68 144 48 C96.48 48 48.96 48 0 48 C0 32.16 0 16.32 0 0 Z " fill="#FFC247" transform="translate(64,176)"/>
<path d="M0 0 C47.52 0 95.04 0 144 0 C144 2.64 144 5.28 144 8 C146.64 8 149.28 8 152 8 C152 17.24 152 26.48 152 36 C149.03 37.65 146.06 39.3 143 41 C137.57271174 45.7456822 133.74024746 51.36571668 131 58 C130.5875 58.99 130.175 59.98 129.75 61 C129.5025 61.66 129.255 62.32 129 63 C128.67 63 128.34 63 128 63 C128 47.49 128 31.98 128 16 C91.04 16 54.08 16 16 16 C16 37.12 16 58.24 16 80 C52.96 80 89.92 80 128 80 C128 87.92 128 95.84 128 104 C117.44 104 106.88 104 96 104 C96 101.36 96 98.72 96 96 C64.32 96 32.64 96 0 96 C0 64.32 0 32.64 0 0 Z " fill="#FEFEFE" transform="translate(64,240)"/>
<path d="M0 0 C118.8 0 237.6 0 360 0 C360 5.28 360 10.56 360 16 C241.2 16 122.4 16 0 16 C0 10.72 0 5.44 0 0 Z " fill="#FFFFFF" transform="translate(112,40)"/>
<path d="M0 0 C9.82266666 5.81194457 16.79094025 13.58036752 20 24.671875 C20.82657469 28.52167491 21.1953125 31.93814481 21.1953125 35.890625 C15.9153125 35.890625 10.6353125 35.890625 5.1953125 35.890625 C4.9890625 34.570625 4.7828125 33.250625 4.5703125 31.890625 C3.11885787 25.35393216 -0.53306562 21.10400016 -5.2421875 16.515625 C-11.1826285 12.74851607 -17.92144766 11.97644471 -24.8046875 12.890625 C-27.05512239 13.73073667 -29.03992299 14.71031332 -31.11328125 15.91796875 C-32.8046875 16.890625 -32.8046875 16.890625 -35.8046875 17.890625 C-36.9094486 19.7655011 -36.9094486 19.7655011 -37.8046875 21.890625 C-38.49498047 22.94515869 -39.18527344 23.99969238 -39.89648438 25.08618164 C-43.18730815 31.72670296 -42.37776265 39.52435801 -42.3359375 46.76171875 C-42.33863652 48.41024504 -42.34252234 50.05876977 -42.34753418 51.70729065 C-42.35341167 55.15275311 -42.34492437 58.59779909 -42.32617188 62.04321289 C-42.303401 66.43900754 -42.31650416 70.83382409 -42.34046173 75.22958279 C-42.35498279 78.63132466 -42.35028472 82.03283837 -42.33995056 85.43458748 C-42.33729972 87.05435365 -42.34049465 88.67414116 -42.34986877 90.29388237 C-42.39351879 99.95561615 -42.3466787 108.48177266 -35.83984375 116.23046875 C-28.81467876 121.92015683 -23.90362559 123.70545528 -14.8046875 122.890625 C-7.94786356 121.84965503 -3.85556855 118.82391145 0.53125 113.51953125 C3.27970647 109.17748618 4.17975044 104.90496265 5.1953125 99.890625 C10.4753125 99.890625 15.7553125 99.890625 21.1953125 99.890625 C20.67347278 111.71899198 17.02333862 121.11482392 8.71875 129.6953125 C-0.72003938 137.90676703 -11.20057605 140.48437403 -23.4609375 140.26953125 C-34.45161504 139.02409232 -44.49617327 132.49298667 -51.421875 124.015625 C-56.73532195 115.850328 -58.90786911 107.25846997 -58.98168945 97.64453125 C-58.98826065 96.93316513 -58.99483185 96.22179901 -59.00160217 95.48887634 C-59.02124608 93.14362459 -59.03298176 90.79843681 -59.04296875 88.453125 C-59.04704428 87.64649414 -59.0511198 86.83986328 -59.05531883 86.00878906 C-59.07614808 81.73388937 -59.09045977 77.45902141 -59.09985352 73.18408203 C-59.11087306 68.80103293 -59.14522989 64.41849778 -59.18502522 60.03562927 C-59.21136708 56.63807329 -59.21956109 53.24063614 -59.22313499 49.84298706 C-59.22796075 48.2292842 -59.23945791 46.61558519 -59.25817299 45.00198364 C-59.41100233 30.94430597 -57.99009998 18.50580172 -47.8046875 7.890625 C-34.83577712 -5.19565109 -16.47870151 -8.03289778 0 0 Z " fill="#020202" transform="translate(250.8046875,276.109375)"/>
<path d="M0 0 C1.28197266 -0.00386719 1.28197266 -0.00386719 2.58984375 -0.0078125 C4.89745858 0.11613522 6.84003183 0.53285145 9.0625 1.125 C9.1553022 10.14817278 9.2263165 19.17118052 9.26974869 28.19472694 C9.29059718 32.38503538 9.31886416 36.57501659 9.36425781 40.76513672 C9.40781419 44.81112242 9.4316577 48.85679395 9.44200897 52.90299606 C9.44938286 54.44434935 9.46378257 55.98568602 9.48542023 57.52690506 C9.51458611 59.69099936 9.51845076 61.85380625 9.51660156 64.01806641 C9.52548401 65.24828522 9.53436646 66.47850403 9.54351807 67.7460022 C8.81745105 72.84639037 6.70595804 75.85624572 2.6574707 78.98168945 C-0.27320394 80.27290681 -2.26602229 80.47144935 -5.45703125 80.41796875 C-6.47861328 80.40830078 -7.50019531 80.39863281 -8.55273438 80.38867188 C-10.13538086 80.3509668 -10.13538086 80.3509668 -11.75 80.3125 C-13.36165039 80.29219727 -13.36165039 80.29219727 -15.00585938 80.27148438 C-17.65025455 80.23622577 -20.29361748 80.18694366 -22.9375 80.125 C-23.0304886 72.17942985 -23.10140999 64.23408991 -23.14474869 56.28810883 C-23.1655571 52.59780045 -23.19374919 48.90786642 -23.23925781 45.21777344 C-23.28295943 41.65157939 -23.30668776 38.08574369 -23.31700897 34.51930237 C-23.32791494 32.50749888 -23.35910191 30.49583804 -23.39068604 28.48425293 C-23.39283562 19.65689196 -22.457297 14.20055442 -16.5625 7.375 C-11.27619353 2.84388017 -7.04049234 -0.02117441 0 0 Z " fill="#ACB1C6" transform="translate(230.9375,287.875)"/>
<path d="M0 0 C10.56 0 21.12 0 32 0 C32 7.92 32 15.84 32 24 C16.58797172 24.09034422 1.17607477 24.16400748 -14.23614693 24.20724869 C-21.39255386 24.22786131 -28.54878441 24.25595675 -35.70507812 24.30175781 C-41.94356909 24.34166576 -48.1819323 24.36744227 -54.42054737 24.37635398 C-57.72298191 24.38156218 -61.02496642 24.39588259 -64.32730484 24.42292023 C-68.01676413 24.45192788 -71.70546468 24.45595692 -75.39501953 24.45410156 C-77.03176888 24.47567322 -77.03176888 24.47567322 -78.70158386 24.49768066 C-84.7775442 24.4645865 -88.41181227 24.12671709 -93 20 C-95.96187271 15.45846184 -96 13.69962166 -96 8 C-64.32 8 -32.64 8 0 8 C0 5.36 0 2.72 0 0 Z " fill="#ADB2C7" transform="translate(160,344)"/>
<path d="M0 0 C5.28 0 10.56 0 16 0 C16 7.92 16 15.84 16 24 C23.92 24 31.84 24 40 24 C40 29.28 40 34.56 40 40 C32.08 40 24.16 40 16 40 C16 47.92 16 55.84 16 64 C10.72 64 5.44 64 0 64 C0 56.08 0 48.16 0 40 C-7.92 40 -15.84 40 -24 40 C-24 34.72 -24 29.44 -24 24 C-16.08 24 -8.16 24 0 24 C0 16.08 0 8.16 0 0 Z " fill="#000000" transform="translate(392,312)"/>
<path d="M0 0 C5.28 0 10.56 0 16 0 C16 7.92 16 15.84 16 24 C23.92 24 31.84 24 40 24 C40 29.28 40 34.56 40 40 C32.08 40 24.16 40 16 40 C16 47.92 16 55.84 16 64 C10.72 64 5.44 64 0 64 C0 56.08 0 48.16 0 40 C-7.92 40 -15.84 40 -24 40 C-24 34.72 -24 29.44 -24 24 C-16.08 24 -8.16 24 0 24 C0 16.08 0 8.16 0 0 Z " fill="#000000" transform="translate(304,312)"/>
<path d="M0 0 C8.24324324 0 8.24324324 0 13 4 C16.1728025 8.14394586 16.41610869 11.77233672 16.34057617 16.81958008 C16.34123329 17.97647339 16.34123329 17.97647339 16.34190369 19.15673828 C16.33982116 21.69459749 16.31651597 24.23178809 16.29296875 26.76953125 C16.28737088 28.53358092 16.28310168 30.29763527 16.28010559 32.06169128 C16.26867186 36.6961666 16.2392174 41.33035818 16.20599365 45.96472168 C16.17526099 50.6971452 16.16159343 55.42961474 16.14648438 60.16210938 C16.11434625 69.44153065 16.06316773 78.7207417 16 88 C14.9378125 88.04898438 13.875625 88.09796875 12.78125 88.1484375 C11.35414503 88.22354829 9.92706281 88.2990924 8.5 88.375 C7.80390625 88.4059375 7.1078125 88.436875 6.390625 88.46875 C5.69453125 88.50742187 4.9984375 88.54609375 4.28125 88.5859375 C3.65283203 88.6173584 3.02441406 88.6487793 2.37695312 88.68115234 C-1.13587751 89.15236812 -4.56152929 90.14038232 -8 91 C-8 82.09 -8 73.18 -8 64 C-5.36 64 -2.72 64 0 64 C0 42.88 0 21.76 0 0 Z " fill="#ACB1C6" transform="translate(224,184)"/>
<path d="M0 0 C29.04 0 58.08 0 88 0 C88 5.28 88 10.56 88 16 C58.96 16 29.92 16 0 16 C0 10.72 0 5.44 0 0 Z " fill="#000000" transform="translate(248,232)"/>
<path d="M0 0 C2.56121861 1.1290107 4.20346161 2.6808065 6.19335938 4.64160156 C6.91136719 5.32867187 7.629375 6.01574219 8.36914062 6.72363281 C9.88085938 8.82910156 9.88085938 8.82910156 9.68652344 10.73120117 C8.70553901 13.28562517 7.45841631 14.59383598 5.50195312 16.50097656 C4.49165039 17.49677734 4.49165039 17.49677734 3.4609375 18.51269531 C2.75388672 19.19460938 2.04683594 19.87652344 1.31835938 20.57910156 C0.60744141 21.27648437 -0.10347656 21.97386719 -0.8359375 22.69238281 C-2.59044776 24.41156737 -4.35157415 26.12336028 -6.11914062 27.82910156 C-4.76470977 30.886876 -3.27209327 32.87331314 -0.82617188 35.14160156 C-0.19646484 35.74230469 0.43324219 36.34300781 1.08203125 36.96191406 C2.4124842 38.212566 3.74849841 39.4573266 5.08984375 40.69628906 C5.71568359 41.29699219 6.34152344 41.89769531 6.98632812 42.51660156 C7.56535889 43.05671875 8.14438965 43.59683594 8.7409668 44.15332031 C9.88085938 45.82910156 9.88085938 45.82910156 9.66845703 47.90014648 C8.59715819 50.52393202 7.05241381 52.1280992 5.06835938 54.14160156 C4.38128906 54.85960937 3.69421875 55.57761719 2.98632812 56.31738281 C0.88085938 57.82910156 0.88085938 57.82910156 -0.9140625 57.73974609 C-4.08030627 56.43216314 -6.15472335 54.18220741 -8.50585938 51.77050781 C-9.00833694 51.26615707 -9.51081451 50.76180634 -10.02851868 50.24217224 C-11.08675007 49.17723139 -12.1413839 48.10870512 -13.19262695 47.03686523 C-14.80428033 45.39400756 -16.42640677 43.76210741 -18.05078125 42.13183594 C-19.07810101 41.0953477 -20.10481491 40.05825852 -21.13085938 39.02050781 C-21.6162468 38.53087051 -22.10163422 38.04123322 -22.60173035 37.53675842 C-25.30919261 34.77116747 -26.88704196 33.04761953 -27.61914062 29.20410156 C-27.07615897 25.53897539 -26.55923686 24.85255727 -24.16210938 22.21582031 C-23.20860596 21.16539551 -23.20860596 21.16539551 -22.23583984 20.09375 C-18.51008752 16.10758177 -14.75507946 12.15938554 -10.93164062 8.26660156 C-10.13822266 7.43580078 -9.34480469 6.605 -8.52734375 5.74902344 C-7.75970703 4.96978516 -6.99207031 4.19054687 -6.20117188 3.38769531 C-5.5125708 2.6792749 -4.82396973 1.97085449 -4.11450195 1.2409668 C-2.11914062 -0.17089844 -2.11914062 -0.17089844 0 0 Z " fill="#060606" transform="translate(115.119140625,259.1708984375)"/>
<path d="M0 0 C3.86606614 1.34927332 6.32460294 4.08107125 9.16796875 6.9375 C9.88839104 7.65860962 9.88839104 7.65860962 10.62336731 8.39428711 C11.6333707 9.40730151 12.64095273 10.4227352 13.64624023 11.44042969 C15.18746045 12.99995998 16.73658712 14.5512857 18.28710938 16.1015625 C26.73099342 24.58771547 26.73099342 24.58771547 27.5 28.625 C26.28273214 36.84155806 16.25117542 43.87091586 10.5625 49.5 C9.73556641 50.32242188 8.90863281 51.14484375 8.05664062 51.9921875 C6.04005041 53.99712113 4.02114764 55.99966253 2 58 C-1.41059403 56.39464713 -3.61792484 54.59481099 -6.25 51.875 C-6.95640625 51.15054688 -7.6628125 50.42609375 -8.390625 49.6796875 C-8.92171875 49.12539063 -9.4528125 48.57109375 -10 48 C-8.6415798 44.95667235 -7.11536976 42.87690849 -4.7421875 40.546875 C-3.80439453 39.61875 -3.80439453 39.61875 -2.84765625 38.671875 C-2.19667969 38.03765625 -1.54570312 37.4034375 -0.875 36.75 C0.11306641 35.77546875 0.11306641 35.77546875 1.12109375 34.78125 C2.74296643 33.18288273 4.3693281 31.58938103 6 30 C4.64556914 26.94222557 3.15295264 24.95578843 0.70703125 22.6875 C0.07732422 22.08679688 -0.55238281 21.48609375 -1.20117188 20.8671875 C-2.53162482 19.61653557 -3.86763903 18.37177496 -5.20898438 17.1328125 C-5.83482422 16.53210938 -6.46066406 15.93140625 -7.10546875 15.3125 C-7.68449951 14.77238281 -8.26353027 14.23226563 -8.86010742 13.67578125 C-10 12 -10 12 -9.77832031 9.91088867 C-8.78776162 7.47892415 -7.45349682 6.12486909 -5.5625 4.3125 C-4.94503906 3.71050781 -4.32757813 3.10851562 -3.69140625 2.48828125 C-2 1 -2 1 0 0 Z " fill="#050505" transform="translate(157,259)"/>
<path d="M0 0 C15.84 0 31.68 0 48 0 C48 5.28 48 10.56 48 16 C32.16 16 16.32 16 0 16 C0 10.72 0 5.44 0 0 Z " fill="#000000" transform="translate(248,200)"/>
<path d="M0 0 C0 16.17 0 32.34 0 49 C-2.64 49 -5.28 49 -8 49 C-8.09943082 43.73475555 -8.17173199 38.47006657 -8.21972656 33.20410156 C-8.23974959 31.41559316 -8.26697654 29.62714946 -8.30175781 27.83886719 C-8.35068955 25.25699838 -8.37306165 22.6760005 -8.390625 20.09375 C-8.41127014 19.30383667 -8.43191528 18.51392334 -8.45318604 17.70007324 C-8.45572875 11.3022663 -6.79434693 6.06709046 -2.42730713 1.27380371 C-1 0 -1 0 0 0 Z " fill="#FCFCFC" transform="translate(216,295)"/>
<path d="M0 0 C5.28 0 10.56 0 16 0 C16 5.28 16 10.56 16 16 C10.72 16 5.44 16 0 16 C0 10.72 0 5.44 0 0 Z " fill="#FFFFFF" transform="translate(112,192)"/>
<path d="M0 0 C5.28 0 10.56 0 16 0 C16 5.28 16 10.56 16 16 C10.72 16 5.44 16 0 16 C0 10.72 0 5.44 0 0 Z " fill="#FFFFFF" transform="translate(80,192)"/>
<path d="M0 0 C5.28 0 10.56 0 16 0 C16 5.28 16 10.56 16 16 C10.72 16 5.44 16 0 16 C0 10.72 0 5.44 0 0 Z " fill="#000000" transform="translate(72,40)"/>
<path d="M0 0 C5.28 0 10.56 0 16 0 C16 5.28 16 10.56 16 16 C10.72 16 5.44 16 0 16 C0 10.72 0 5.44 0 0 Z " fill="#FFFFFF" transform="translate(40,40)"/>
</svg>
